<svg width="265" height="253" viewBox="0 0 265 253" fill="none" xmlns="http://www.w3.org/2000/svg">
<g clip-path="url(#clip0_140_2483)">
<mask id="mask0_140_2483" style="mask-type:luminance" maskUnits="userSpaceOnUse" x="0" y="0" width="265" height="253">
<path d="M265 0.5H0V252.5H265V0.5Z" fill="white"/>
</mask>
<g mask="url(#mask0_140_2483)">
<path d="M207.337 204.55H133.837V169.55L203.837 4H245.837V169.55H264.037V204.55H245.837V249H207.337V204.55ZM207.337 169.55V74H206.637L168.837 169.55H207.337Z" fill="#01255A" fill-opacity="0.2"/>
<path d="M58.45 252.5C39.55 252.5 25.0833 247.133 15.05 236.4C5.01667 225.667 0 210.5 0 190.9V62.1C0 42.5 5.01667 27.3333 15.05 16.6C25.0833 5.86667 39.55 0.5 58.45 0.5C77.35 0.5 91.8167 5.86667 101.85 16.6C111.883 27.3333 116.9 42.5 116.9 62.1V190.9C116.9 210.5 111.883 225.667 101.85 236.4C91.8167 247.133 77.35 252.5 58.45 252.5ZM58.45 217.5C71.75 217.5 78.4 209.45 78.4 193.35V59.65C78.4 43.55 71.75 35.5 58.45 35.5C45.15 35.5 38.5 43.55 38.5 59.65V193.35C38.5 209.45 45.15 217.5 58.45 217.5Z" fill="#01255A" fill-opacity="0.2"/>
</g>
</g>
<defs>
<clipPath id="clip0_140_2483">
<rect width="265" height="253" fill="white"/>
</clipPath>
</defs>
</svg>
