<svg width="259" height="254" viewBox="0 0 259 254" fill="none" xmlns="http://www.w3.org/2000/svg">
<mask id="mask0_140_2475" style="mask-type:luminance" maskUnits="userSpaceOnUse" x="0" y="0" width="259" height="254">
<path d="M259 0.5H0V253.5H259V0.5Z" fill="white"/>
</mask>
<g mask="url(#mask0_140_2475)">
<path d="M59.3631 253C40.4631 253 25.9964 247.633 15.9631 236.9C5.92975 226.167 0.913086 211 0.913086 191.4V62.6C0.913086 43 5.92975 27.8333 15.9631 17.1C25.9964 6.36666 40.4631 1 59.3631 1C78.2631 1 92.7298 6.36666 102.763 17.1C112.797 27.8333 117.813 43 117.813 62.6V191.4C117.813 211 112.797 226.167 102.763 236.9C92.7298 247.633 78.2631 253 59.3631 253ZM59.3631 218C72.6631 218 79.3131 209.95 79.3131 193.85V60.15C79.3131 44.05 72.6631 36 59.3631 36C46.0631 36 39.4131 44.05 39.4131 60.15V193.85C39.4131 209.95 46.0631 218 59.3631 218ZM200.55 253C181.65 253 167.183 247.633 157.15 236.9C147.117 226.167 142.1 211 142.1 191.4V64.7C142.1 22.2333 161.7 1 200.9 1C219.567 1 233.8 6.36666 243.6 17.1C253.4 27.6 258.3 42.7667 258.3 62.6V67.15H221.9V60.15C221.9 44.05 215.25 36 201.95 36C194.717 36 189.35 38.2167 185.85 42.65C182.35 47.0833 180.6 54.9 180.6 66.1V113H181.3C188.067 98.7667 199.733 91.65 216.3 91.65C230.3 91.65 240.917 96.4333 248.15 106C255.383 115.567 259 129.45 259 147.65V191.4C259 211 253.983 226.167 243.95 236.9C233.917 247.633 219.45 253 200.55 253ZM200.55 218C213.85 218 220.5 210.067 220.5 194.2V150.8C220.5 134.7 213.85 126.65 200.55 126.65C187.25 126.65 180.6 134.7 180.6 150.8V194.2C180.6 210.067 187.25 218 200.55 218Z" fill="#01255A" fill-opacity="0.2"/>
</g>
</svg>
