<svg width="258" height="253" viewBox="0 0 258 253" fill="none" xmlns="http://www.w3.org/2000/svg">
<g clip-path="url(#clip0_140_2461)">
<mask id="mask0_140_2461" style="mask-type:luminance" maskUnits="userSpaceOnUse" x="0" y="0" width="258" height="253">
<path d="M258 0.5H0V252.5H258V0.5Z" fill="white"/>
</mask>
<g mask="url(#mask0_140_2461)">
<path d="M142.237 222.4C142.237 204.9 145.037 189.967 150.637 177.6C156.237 165 166.27 151.117 180.737 135.95C194.97 120.783 204.77 107.833 210.137 97.1C215.737 86.3667 218.537 75.1667 218.537 63.5C218.537 53 216.787 45.7667 213.287 41.8C210.02 37.6 205.12 35.5 198.587 35.5C185.287 35.5 178.637 43.55 178.637 59.65V85.9H142.237V62.1C142.237 42.2667 147.137 27.1 156.937 16.6C166.737 5.86667 180.97 0.5 199.637 0.5C218.303 0.5 232.537 5.86667 242.337 16.6C252.137 27.1 257.037 42.2667 257.037 62.1C257.037 77.0333 253.42 91.6167 246.187 105.85C239.187 120.083 226.937 136.417 209.437 154.85C198.003 166.983 190.303 176.9 186.337 184.6C182.37 192.067 180.387 200.117 180.387 208.75V214H253.537V249H142.237V222.4Z" fill="#01255A" fill-opacity="0.2"/>
<path d="M58.45 252.5C39.55 252.5 25.0833 247.133 15.05 236.4C5.01667 225.667 0 210.5 0 190.9V62.1C0 42.5 5.01667 27.3333 15.05 16.6C25.0833 5.86667 39.55 0.5 58.45 0.5C77.35 0.5 91.8167 5.86667 101.85 16.6C111.883 27.3333 116.9 42.5 116.9 62.1V190.9C116.9 210.5 111.883 225.667 101.85 236.4C91.8167 247.133 77.35 252.5 58.45 252.5ZM58.45 217.5C71.75 217.5 78.4 209.45 78.4 193.35V59.65C78.4 43.55 71.75 35.5 58.45 35.5C45.15 35.5 38.5 43.55 38.5 59.65V193.35C38.5 209.45 45.15 217.5 58.45 217.5Z" fill="#01255A" fill-opacity="0.2"/>
</g>
</g>
<defs>
<clipPath id="clip0_140_2461">
<rect width="258" height="253" fill="white"/>
</clipPath>
</defs>
</svg>
