<svg width="237" height="253" viewBox="0 0 237 253" fill="none" xmlns="http://www.w3.org/2000/svg">
<g clip-path="url(#clip0_140_2454)">
<mask id="mask0_140_2454" style="mask-type:luminance" maskUnits="userSpaceOnUse" x="0" y="0" width="237" height="253">
<path d="M237 0.5H0V252.5H237V0.5Z" fill="white"/>
</mask>
<g mask="url(#mask0_140_2454)">
<path d="M197.75 62.1H157.5V34.8C168.467 34.8 177.217 33.8667 183.75 32C190.517 30.1333 195.883 27.1 199.85 22.9C203.817 18.4667 207.317 12.1667 210.35 4H236.25V249H197.75V62.1Z" fill="#01255A" fill-opacity="0.2"/>
<path d="M59.3631 252.5C40.4631 252.5 25.9965 247.133 15.9631 236.4C5.92976 225.667 0.913086 210.5 0.913086 190.9V62.1C0.913086 42.5 5.92976 27.3333 15.9631 16.6C25.9965 5.86667 40.4631 0.5 59.3631 0.5C78.2631 0.5 92.7298 5.86667 102.763 16.6C112.797 27.3333 117.813 42.5 117.813 62.1V190.9C117.813 210.5 112.797 225.667 102.763 236.4C92.7298 247.133 78.2631 252.5 59.3631 252.5ZM59.3631 217.5C72.6631 217.5 79.3131 209.45 79.3131 193.35V59.65C79.3131 43.55 72.6631 35.5 59.3631 35.5C46.0631 35.5 39.4131 43.55 39.4131 59.65V193.35C39.4131 209.45 46.0631 217.5 59.3631 217.5Z" fill="#01255A" fill-opacity="0.2"/>
</g>
</g>
<defs>
<clipPath id="clip0_140_2454">
<rect width="237" height="253" fill="white"/>
</clipPath>
</defs>
</svg>
