<svg width="259" height="254" viewBox="0 0 259 254" fill="none" xmlns="http://www.w3.org/2000/svg">
<mask id="mask0_140_2475" style="mask-type:luminance" maskUnits="userSpaceOnUse" x="0" y="0" width="259" height="254">
<path d="M259 0.5H0V253.5H259V0.5Z" fill="white"/>
</mask>
<g mask="url(#mask0_140_2475)">
<path d="M59.3633 252.5C40.4633 252.5 25.9966 247.133 15.9633 236.4C5.92995 225.667 0.913281 210.5 0.913281 190.9V62.1C0.913281 42.5 5.92995 27.3333 15.9633 16.6C25.9966 5.86665 40.4633 0.499987 59.3633 0.499987C78.2633 0.499987 92.73 5.86665 102.763 16.6C112.797 27.3333 117.813 42.5 117.813 62.1V190.9C117.813 210.5 112.797 225.667 102.763 236.4C92.73 247.133 78.2633 252.5 59.3633 252.5ZM59.3633 217.5C72.6633 217.5 79.3133 209.45 79.3133 193.35V59.65C79.3133 43.55 72.6633 35.5 59.3633 35.5C46.0633 35.5 39.4133 43.55 39.4133 59.65V193.35C39.4133 209.45 46.0633 217.5 59.3633 217.5ZM219.1 39H141.4V3.99998H256.9V37.6L196.7 249H157.5L219.1 39Z" fill="#01255A" fill-opacity="0.2"/>
</g>
</svg>
