<?xml version="1.0" encoding="UTF-8"?><svg id="_レイヤー_2" xmlns="http://www.w3.org/2000/svg" viewBox="0 0 71.54 96.72"><defs><style>.cls-1{fill:#fff;}.cls-1,.cls-2,.cls-3{stroke:#142345;stroke-linecap:round;stroke-linejoin:round;stroke-width:3px;}.cls-2{fill:none;}.cls-3{fill:#55aba5;}</style></defs><g id="_レイヤー_1-2"><path class="cls-1" d="M56.48,47.7H15.06c-2.05,0-3.88-1.24-4.65-3.14-2.44-6.03-7.07-15.39-8.35-19.8C0,17.68,3.72,5.86,11.19,2.96c12.2-4.74,18.25,3.54,24.58,3.54s12.38-8.28,24.58-3.54c7.47,2.9,11.19,14.72,9.13,21.81-1.28,4.41-5.91,13.76-8.35,19.8-.77,1.9-2.6,3.14-4.65,3.14Z"/><path class="cls-1" d="M35.77,14.67c-4.58,0-9.03-1.23-12.08-4.48"/><path class="cls-1" d="M47.85,10.19c-3.05,3.24-7.5,4.48-12.08,4.48"/><path class="cls-3" d="M50.46,61.44v-6.81s-3.31.63-4.46.84v-7.77h-20.44v11.63c-1.15.22-4.46.84-4.46.84v6.81s3.31-.63,4.46-.84v7.6c-1.15.22-4.46.84-4.46.84v6.81s3.31-.63,4.46-.84v5.64c0,1.25.57,2.43,1.54,3.22l6.1,4.89c1.51,1.21,3.65,1.21,5.16,0l6.1-4.89c.98-.78,1.54-1.97,1.54-3.22v-9.5c1.15-.22,4.46-.84,4.46-.84v-6.81s-3.31.63-4.46.84v-7.6c1.15-.22,4.46-.84,4.46-.84Z"/><line class="cls-2" x1="33.85" y1="57.76" x2="46.55" y2="55.37"/><line class="cls-2" x1="40.78" y1="63.27" x2="46.55" y2="62.18"/><line class="cls-2" x1="47.5" y1="69.6" x2="24.79" y2="73.89"/><line class="cls-2" x1="46.55" y1="76.59" x2="33.31" y2="79.1"/></g></svg>