<?xml version="1.0" encoding="UTF-8"?><svg id="_レイヤー_2" xmlns="http://www.w3.org/2000/svg" viewBox="0 0 79.27 101.26"><defs><style>.cls-1{fill:#fff;}.cls-1,.cls-2,.cls-3,.cls-4{stroke-linecap:round;stroke-linejoin:round;}.cls-1,.cls-2,.cls-4{stroke:#142345;stroke-width:3px;}.cls-2{fill:none;}.cls-3{stroke:#fff;stroke-width:6px;}.cls-3,.cls-4{fill:#dcdde0;}</style></defs><g id="_レイヤー_1-2"><path class="cls-4" d="M63.67,52.65c-10.36,0-37.71,0-48.06,0-2.38,0-4.52-1.44-5.43-3.63-.83-1.99-1.88-4.32-2.91-6.61-2.14-4.77-4.17-9.28-5.03-12.26C-.41,21.04,4.22,7,13.93,3.23c9.62-3.73,16.49-.57,21.04,1.52,1.82.84,3.54,1.63,4.67,1.63s2.85-.79,4.67-1.63c4.55-2.09,11.42-5.26,21.04-1.52,9.71,3.77,14.34,17.81,11.69,26.91-.86,2.98-2.89,7.49-5.03,12.26-1.03,2.29-2.08,4.63-2.91,6.62-.92,2.2-3.05,3.63-5.44,3.63Z"/><path class="cls-1" d="M15.43,52.65c1.37,4.44.25,16.22.13,20.82-.38,14.77,4.83,26.28,10.52,26.28,6.58.05,7.49-13.06,7.11-18.7-.38-5.64.23-14.8,6.44-14.76,6.21-.04,6.81,9.12,6.44,14.76-.38,5.64.53,18.74,7.11,18.7,5.69,0,10.9-11.51,10.52-26.28-.12-4.6-1.24-16.39.13-20.82H15.43Z"/><path class="cls-2" d="M51.71,9.9c-3.05,3.24-7.5,4.48-12.08,4.48s-9.03-1.23-12.08-4.48"/><path class="cls-3" d="M12.09,24.56c-.54-3.75.87-8.06,3.33-10.18"/><path class="cls-3" d="M15.43,35.82c.71,1.39,1.43,2.77,2.14,4.16"/></g></svg>