<svg width="20" height="20" viewBox="0 0 20 20" fill="none" xmlns="http://www.w3.org/2000/svg">
<path d="M10.4476 3.87341C13.5844 3.87341 16.1255 6.41558 16.1255 9.55133" stroke="#01255A" stroke-linecap="round" stroke-linejoin="round"/>
<path d="M10.4476 1.05697C15.14 1.05697 18.943 4.86101 18.943 9.55235" stroke="#01255A" stroke-linecap="round" stroke-linejoin="round"/>
<path d="M1.34626 1.23401C1.34626 1.23401 1.34626 1.23401 1.34626 1.23504C-1.42823 4.0085 0.223568 10.1562 5.03363 14.9662C9.84368 19.7763 15.9913 21.4281 18.7648 18.6546C19.605 17.8144 19.9878 15.9047 19.9878 15.9047C20.0502 15.5905 19.867 15.2395 19.5805 15.1248L14.5453 13.1128C14.2587 12.9982 13.834 13.0944 13.6027 13.3267L12.1443 14.7861C11.866 15.0634 11.4648 15.1341 11.1465 14.9908C11.1219 14.9775 11.0974 14.9652 11.0728 14.9519C11.0626 14.9458 11.0513 14.9396 11.0401 14.9335C9.93272 14.3297 8.75886 13.4495 7.6546 12.3463C6.55033 11.243 5.67122 10.0692 5.0674 8.96183C5.06228 8.9516 5.05614 8.94137 5.05102 8.93113C5.03772 8.90555 5.02442 8.88098 5.01009 8.85437C4.86681 8.53609 4.93743 8.13491 5.21477 7.85654L6.67519 6.39613C6.9075 6.16381 7.0037 5.74012 6.88908 5.45356L4.87602 0.419375C4.7614 0.132818 4.41037 -0.0503731 4.09618 0.0120553C4.09618 0.0120553 2.18648 0.39379 1.34626 1.23401Z" fill="#01255A"/>
</svg>
