<svg width="45" height="45" viewBox="0 0 45 45" fill="none" xmlns="http://www.w3.org/2000/svg">
<path d="M22.5021 0.0413818C10.2796 0.0413818 0 8.38795 0 19.0942C0 28.6425 8.14446 36.3916 18.75 37.8815C18.994 37.9362 19.2552 38.0238 19.4217 38.0996C19.4059 38.194 19.4436 38.632 19.3924 39.0323V39.0344C19.3787 39.1196 19.152 40.5156 19.1037 40.8069L19.1057 40.8048C19.0253 41.2834 18.7673 42.0832 19.4866 43.2055C19.8463 43.7667 20.6566 44.2432 21.3825 44.2569C22.1084 44.2707 22.7176 44.0245 23.3852 43.646C28.2581 40.8815 33.5523 37.762 37.7239 33.8443C41.8955 29.9265 45 25.0665 45 19.0942C44.9999 8.38833 34.7246 0.0413818 22.5021 0.0413818ZM22.5021 3.35755C33.3174 3.35755 41.7857 10.6172 41.7857 19.0942C41.7857 23.894 39.3525 27.8301 35.5601 31.3917C31.9236 34.8069 27.0868 37.7276 22.433 40.3816C22.4947 40.0008 22.5711 39.5245 22.5711 39.5245L22.5753 39.4986L22.5795 39.4727C22.6599 38.8507 22.8848 37.9175 22.4121 36.6984L22.41 36.6963V36.6941C22.0526 35.7824 21.3908 35.3861 20.8615 35.1245C20.3321 34.863 19.8312 34.7285 19.4155 34.6366L19.3527 34.6236L19.2878 34.615C9.87176 33.3369 3.21429 26.7073 3.21429 19.0942C3.21429 10.6176 11.6868 3.35755 22.5021 3.35755ZM17.4944 13.4572C16.8901 13.4572 16.3979 13.9608 16.3979 14.5798V23.084C16.3979 23.7041 16.8891 24.2067 17.4944 24.2067C18.0987 24.2067 18.591 23.703 18.591 23.084V14.5798C18.591 13.9608 18.0998 13.4572 17.4944 13.4572ZM21.2653 13.4572C21.1475 13.4572 21.0294 13.4768 20.9159 13.5155C20.468 13.6691 20.1667 14.0968 20.1667 14.5798V23.084C20.1667 23.7041 20.66 24.2067 21.2653 24.2067C21.8718 24.2067 22.364 23.703 22.364 23.084V17.8248L26.6225 23.7576C26.8282 24.0384 27.1564 24.2067 27.4993 24.2067C27.6161 24.2067 27.7331 24.187 27.8467 24.1484C28.2967 23.9969 28.5979 23.5693 28.5979 23.084V14.5777C28.5979 13.9587 28.1068 13.4572 27.5014 13.4572C26.896 13.4572 26.4028 13.9587 26.4028 14.5777V19.8412L22.1422 13.9062C21.9364 13.6255 21.6071 13.4572 21.2653 13.4572ZM10.1367 13.4593C9.53243 13.4593 9.04018 13.9608 9.04018 14.5798V23.0862C9.04018 23.7063 9.53136 24.2088 10.1367 24.2088H14.2927C14.898 24.2088 15.3882 23.703 15.3871 23.084C15.3871 22.465 14.898 21.9613 14.2927 21.9613H11.2312V14.5798C11.2312 13.9608 10.7421 13.4593 10.1367 13.4593ZM31.1677 13.4593C30.5634 13.4593 30.0711 13.963 30.0711 14.582V14.5842V18.8308V18.833V18.8352V23.084C30.0711 23.7041 30.5645 24.2067 31.1677 24.2067H35.3237C35.929 24.2067 36.4223 23.703 36.4223 23.084C36.4223 22.465 35.929 21.9613 35.3237 21.9613H32.2642V19.9535H35.3237C35.9301 19.9535 36.4223 19.4499 36.4223 18.8308C36.4223 18.2107 35.929 17.7082 35.3237 17.7082V17.7125H32.2642V15.7047H35.3237C35.9301 15.7047 36.4223 15.201 36.4223 14.582C36.4223 13.963 35.929 13.4593 35.3237 13.4593H31.1677Z" fill="white"/>
</svg>
