<svg width="173" height="70" viewBox="0 0 173 70" fill="none" xmlns="http://www.w3.org/2000/svg">
<path d="M0.18989 14.5385H12.7938C17.047 14.5385 20.2369 15.6796 22.3635 17.9618C24.4901 20.244 25.5534 23.5895 25.5534 27.9982V33.3666C25.5534 37.7754 24.4901 41.1209 22.3635 43.4031C20.2369 45.6853 17.047 46.8264 12.7938 46.8264H8.74813V69H0.18989V14.5385ZM12.7938 39.0462C14.1943 39.0462 15.2316 38.6571 15.9059 37.8791C16.6321 37.1011 16.9952 35.7785 16.9952 33.9112V27.4536C16.9952 25.5864 16.6321 24.2637 15.9059 23.4857C15.2316 22.7077 14.1943 22.3187 12.7938 22.3187H8.74813V39.0462H12.7938ZM42.572 69.778C38.3707 69.778 35.1549 68.5851 32.9246 66.1991C30.6942 63.8132 29.5791 60.4418 29.5791 56.0848V27.4536C29.5791 23.0967 30.6942 19.7253 32.9246 17.3393C35.1549 14.9534 38.3707 13.7604 42.572 13.7604C46.7733 13.7604 49.9892 14.9534 52.2195 17.3393C54.4498 19.7253 55.565 23.0967 55.565 27.4536V56.0848C55.565 60.4418 54.4498 63.8132 52.2195 66.1991C49.9892 68.5851 46.7733 69.778 42.572 69.778ZM42.572 61.9978C45.5285 61.9978 47.0068 60.2084 47.0068 56.6295V26.909C47.0068 23.3301 45.5285 21.5407 42.572 21.5407C39.6155 21.5407 38.1373 23.3301 38.1373 26.909V56.6295C38.1373 60.2084 39.6155 61.9978 42.572 61.9978ZM61.3527 14.5385H69.911V69H61.3527V14.5385ZM76.3206 14.5385H87.0573L95.3821 47.1376H95.5377V14.5385H103.162V69H94.3707L84.1008 29.2431H83.9452V69H76.3206V14.5385ZM116.214 22.3187H107.267V14.5385H133.72V22.3187H124.772V69H116.214V22.3187ZM156.555 56.6489H136.132V46.9236L155.583 0.923073H167.253V46.9236H172.31V56.6489H167.253V69H156.555V56.6489ZM156.555 46.9236V20.3736H156.361L145.857 46.9236H156.555Z" fill="#01255A" fill-opacity="0.3"/>
</svg>
