<svg width="171" height="71" viewBox="0 0 171 71" fill="none" xmlns="http://www.w3.org/2000/svg">
<path d="M0.18989 15.0385H12.7938C17.047 15.0385 20.2369 16.1796 22.3635 18.4618C24.4901 20.744 25.5534 24.0895 25.5534 28.4982V33.8666C25.5534 38.2754 24.4901 41.6209 22.3635 43.9031C20.2369 46.1853 17.047 47.3264 12.7938 47.3264H8.74813V69.5H0.18989V15.0385ZM12.7938 39.5462C14.1943 39.5462 15.2316 39.1571 15.9059 38.3791C16.6321 37.6011 16.9952 36.2785 16.9952 34.4112V27.9536C16.9952 26.0864 16.6321 24.7637 15.9059 23.9857C15.2316 23.2077 14.1943 22.8187 12.7938 22.8187H8.74813V39.5462H12.7938ZM42.572 70.278C38.3707 70.278 35.1549 69.0851 32.9246 66.6991C30.6942 64.3132 29.5791 60.9418 29.5791 56.5848V27.9536C29.5791 23.5967 30.6942 20.2253 32.9246 17.8393C35.1549 15.4534 38.3707 14.2604 42.572 14.2604C46.7733 14.2604 49.9892 15.4534 52.2195 17.8393C54.4498 20.2253 55.565 23.5967 55.565 27.9536V56.5848C55.565 60.9418 54.4498 64.3132 52.2195 66.6991C49.9892 69.0851 46.7733 70.278 42.572 70.278ZM42.572 62.4978C45.5285 62.4978 47.0068 60.7084 47.0068 57.1295V27.409C47.0068 23.8301 45.5285 22.0407 42.572 22.0407C39.6155 22.0407 38.1373 23.8301 38.1373 27.409V57.1295C38.1373 60.7084 39.6155 62.4978 42.572 62.4978ZM61.3527 15.0385H69.911V69.5H61.3527V15.0385ZM76.3206 15.0385H87.0573L95.3821 47.6376H95.5377V15.0385H103.162V69.5H94.3707L84.1008 29.7431H83.9452V69.5H76.3206V15.0385ZM116.214 22.8187H107.267V15.0385H133.72V22.8187H124.772V69.5H116.214V22.8187ZM138.466 62.1088C138.466 57.2462 139.244 53.0967 140.8 49.6604C142.356 46.1593 145.144 42.3016 149.164 38.0874C153.119 33.8731 155.842 30.2747 157.333 27.2923C158.889 24.3099 159.667 21.1978 159.667 17.956C159.667 15.0385 159.181 13.0286 158.209 11.9264C157.301 10.7593 155.939 10.1758 154.124 10.1758C150.428 10.1758 148.581 12.4126 148.581 16.8863V24.1802H138.466V17.567C138.466 12.056 139.828 7.84176 142.551 4.92417C145.274 1.94176 149.229 0.450546 154.416 0.450546C159.603 0.450546 163.557 1.94176 166.281 4.92417C169.004 7.84176 170.365 12.056 170.365 17.567C170.365 21.7165 169.36 25.7687 167.35 29.7236C165.405 33.6786 162.001 38.217 157.139 43.339C153.962 46.7104 151.822 49.4659 150.72 51.6055C149.618 53.6802 149.067 55.917 149.067 58.3159V59.7747H169.393V69.5H138.466V62.1088Z" fill="#01255A" fill-opacity="0.3"/>
</svg>
