<svg width="165" height="70" viewBox="0 0 165 70" fill="none" xmlns="http://www.w3.org/2000/svg">
<path d="M0.18989 14.0385H12.7938C17.047 14.0385 20.2369 15.1796 22.3635 17.4618C24.4901 19.744 25.5534 23.0895 25.5534 27.4982V32.8666C25.5534 37.2754 24.4901 40.6209 22.3635 42.9031C20.2369 45.1853 17.047 46.3264 12.7938 46.3264H8.74813V68.5H0.18989V14.0385ZM12.7938 38.5462C14.1943 38.5462 15.2316 38.1571 15.9059 37.3791C16.6321 36.6011 16.9952 35.2785 16.9952 33.4112V26.9536C16.9952 25.0864 16.6321 23.7637 15.9059 22.9857C15.2316 22.2077 14.1943 21.8187 12.7938 21.8187H8.74813V38.5462H12.7938ZM42.572 69.278C38.3707 69.278 35.1549 68.0851 32.9246 65.6991C30.6942 63.3132 29.5791 59.9418 29.5791 55.5848V26.9536C29.5791 22.5967 30.6942 19.2253 32.9246 16.8393C35.1549 14.4534 38.3707 13.2604 42.572 13.2604C46.7733 13.2604 49.9892 14.4534 52.2195 16.8393C54.4498 19.2253 55.565 22.5967 55.565 26.9536V55.5848C55.565 59.9418 54.4498 63.3132 52.2195 65.6991C49.9892 68.0851 46.7733 69.278 42.572 69.278ZM42.572 61.4978C45.5285 61.4978 47.0068 59.7084 47.0068 56.1295V26.409C47.0068 22.8301 45.5285 21.0407 42.572 21.0407C39.6155 21.0407 38.1373 22.8301 38.1373 26.409V56.1295C38.1373 59.7084 39.6155 61.4978 42.572 61.4978ZM61.3527 14.0385H69.911V68.5H61.3527V14.0385ZM76.3206 14.0385H87.0573L95.3821 46.6376H95.5377V14.0385H103.162V68.5H94.3707L84.1008 28.7431H83.9452V68.5H76.3206V14.0385ZM116.214 21.8187H107.267V14.0385H133.72V21.8187H124.772V68.5H116.214V21.8187ZM153.638 16.567H142.454V8.98131C145.501 8.98131 147.932 8.72198 149.748 8.2033C151.628 7.68461 153.119 6.84176 154.221 5.67472C155.323 4.44286 156.296 2.69231 157.139 0.423073H164.336V68.5H153.638V16.567Z" fill="#01255A" fill-opacity="0.3"/>
</svg>
