<svg width="170" height="71" viewBox="0 0 170 71" fill="none" xmlns="http://www.w3.org/2000/svg">
<path d="M0.18989 15.0385H12.7938C17.047 15.0385 20.2369 16.1796 22.3635 18.4618C24.4901 20.744 25.5534 24.0895 25.5534 28.4982V33.8666C25.5534 38.2754 24.4901 41.6209 22.3635 43.9031C20.2369 46.1853 17.047 47.3264 12.7938 47.3264H8.74813V69.5H0.18989V15.0385ZM12.7938 39.5462C14.1943 39.5462 15.2316 39.1571 15.9059 38.3791C16.6321 37.6011 16.9952 36.2785 16.9952 34.4112V27.9536C16.9952 26.0864 16.6321 24.7637 15.9059 23.9857C15.2316 23.2077 14.1943 22.8187 12.7938 22.8187H8.74813V39.5462H12.7938ZM42.572 70.278C38.3707 70.278 35.1549 69.0851 32.9246 66.6991C30.6942 64.3132 29.5791 60.9418 29.5791 56.5848V27.9536C29.5791 23.5967 30.6942 20.2253 32.9246 17.8393C35.1549 15.4534 38.3707 14.2604 42.572 14.2604C46.7733 14.2604 49.9892 15.4534 52.2195 17.8393C54.4498 20.2253 55.565 23.5967 55.565 27.9536V56.5848C55.565 60.9418 54.4498 64.3132 52.2195 66.6991C49.9892 69.0851 46.7733 70.278 42.572 70.278ZM42.572 62.4978C45.5285 62.4978 47.0068 60.7084 47.0068 57.1295V27.409C47.0068 23.8301 45.5285 22.0407 42.572 22.0407C39.6155 22.0407 38.1373 23.8301 38.1373 27.409V57.1295C38.1373 60.7084 39.6155 62.4978 42.572 62.4978ZM61.3527 15.0385H69.911V69.5H61.3527V15.0385ZM76.3206 15.0385H87.0573L95.3821 47.6376H95.5377V15.0385H103.162V69.5H94.3707L84.1008 29.7431H83.9452V69.5H76.3206V15.0385ZM116.214 22.8187H107.267V15.0385H133.72V22.8187H124.772V69.5H116.214V22.8187ZM153.832 70.4725C148.581 70.4725 144.593 69.0137 141.87 66.0962C139.212 63.1786 137.883 58.9967 137.883 53.5505V48.0071H147.997V54.0368C147.997 58.5104 149.845 60.7473 153.54 60.7473C155.356 60.7473 156.717 60.1962 157.625 59.094C158.598 57.9269 159.084 55.917 159.084 53.0643V47.5209C159.084 44.4088 158.533 42.2044 157.431 40.9077C156.328 39.5462 154.545 38.8654 152.082 38.8654H148.483V29.1401H152.373C154.513 29.1401 156.101 28.589 157.139 27.4868C158.241 26.3846 158.792 24.5368 158.792 21.9434V16.9835C158.792 14.6494 158.306 12.9313 157.333 11.8291C156.361 10.7269 155.064 10.1758 153.443 10.1758C150.007 10.1758 148.289 12.283 148.289 16.4973V20.9709H138.175V17.3725C138.175 11.9264 139.504 7.7445 142.162 4.82692C144.885 1.90934 148.775 0.450546 153.832 0.450546C158.954 0.450546 162.844 1.90934 165.503 4.82692C168.161 7.67967 169.49 11.8291 169.49 17.2753V19.7066C169.49 23.4022 168.874 26.3846 167.642 28.6538C166.41 30.8582 164.498 32.4467 161.904 33.4192V33.6137C164.692 34.6511 166.702 36.3368 167.934 38.6709C169.166 41.0049 169.782 43.9874 169.782 47.6181V53.6478C169.782 59.094 168.42 63.2758 165.697 66.1934C163.039 69.0462 159.084 70.4725 153.832 70.4725Z" fill="#01255A" fill-opacity="0.3"/>
</svg>
