<svg width="168" height="100" viewBox="0 0 168 100" fill="none" xmlns="http://www.w3.org/2000/svg">
<g clip-path="url(#clip0_1_359)">
<path d="M116.625 42.3529H17C17 42.3529 31.4347 17.8823 43.7812 17.8823C56.1276 17.8823 60.8928 27.553 66.8139 27.553C72.735 27.553 77.4975 17.8823 89.844 17.8823C102.19 17.8823 116.625 42.3529 116.625 42.3529Z" fill="#FFC5B6" stroke="#596562" stroke-width="2" stroke-linecap="round" stroke-linejoin="round"/>
<path d="M116.625 42.353C116.625 42.353 101.016 80 66.8139 80C32.6123 80 17 42.353 17 42.353C17 42.353 40.4308 60.24 66.8139 60.24C93.1971 60.24 116.625 42.353 116.625 42.353Z" fill="#FFC5B6" stroke="#596562" stroke-width="2" stroke-linecap="round" stroke-linejoin="round"/>
<path d="M137.772 32C137.772 24.0599 130.907 16.0014 124.144 16.0014C130.907 16.0014 137.772 7.94011 137.772 0C137.772 7.94011 144.637 16.0014 151.4 16.0014C144.637 16.0014 137.772 24.0626 137.772 32Z" fill="#FFF683" stroke="#596562" stroke-width="2" stroke-linecap="round" stroke-linejoin="round"/>
</g>
<defs>
<clipPath id="clip0_1_359">
<rect width="168" height="100" fill="white"/>
</clipPath>
</defs>
</svg>
