<svg width="105" height="120" viewBox="0 0 105 120" fill="none" xmlns="http://www.w3.org/2000/svg">
<g clip-path="url(#clip0_1_342)">
<path d="M89.2272 5.6057C85.9759 3.89183 81.9931 1.85151 77.4413 1.68828C72.0766 1.52506 68.4189 3.40215 65.2489 5.11602C62.3227 6.66666 59.803 8.05408 55.6576 8.05408H49.2363C45.0096 8.05408 42.4898 6.74828 39.6449 5.11602C36.5562 3.48377 32.9798 1.52506 27.5338 1.68828C23.0633 1.85151 18.9992 3.89183 15.8292 5.6057C12.6591 7.23795 9.00143 9.11505 6.31911 12.3796C1.36088 18.2557 1.36088 26.3353 1.92986 33.4357C4.12449 59.4701 10.6271 84.6885 21.3564 108.438C22.7382 111.539 24.5264 114.967 27.859 116.844C29.5659 117.823 31.5167 118.313 33.5487 118.313C35.5808 118.313 38.4257 117.66 40.7829 116.354C45.9037 113.498 49.5614 108.111 50.2929 102.562C50.6993 100.603 51.4309 98.481 52.0811 97.0936C52.894 98.3994 53.8694 100.603 54.6009 102.643C55.495 108.356 59.0714 113.579 64.1109 116.354C68.5002 118.803 73.2959 118.966 77.0349 116.844C80.4487 114.885 82.1556 111.457 83.5375 108.438C94.2667 84.6885 100.769 59.3885 102.964 33.4357C103.533 26.3353 103.533 18.2557 98.656 12.3796C95.9737 9.11505 92.316 7.23795 89.1459 5.6057H89.2272Z" fill="white"/>
<path d="M38.1182 72.1056C35.7182 72.1056 33.6182 71.389 31.8182 69.9556C30.0182 68.5223 28.6182 66.389 27.6182 63.5556C26.6515 60.689 26.1682 57.1223 26.1682 52.8556C26.1682 48.589 26.6515 45.0556 27.6182 42.2556C28.6182 39.4556 30.0182 37.3723 31.8182 36.0056C33.6182 34.6056 35.7182 33.9056 38.1182 33.9056C40.5182 33.9056 42.6015 34.6056 44.3682 36.0056C46.1348 37.4056 47.5015 39.5056 48.4682 42.3056C49.4682 45.0723 49.9682 48.589 49.9682 52.8556C49.9682 57.1223 49.4682 60.689 48.4682 63.5556C47.5015 66.389 46.1348 68.5223 44.3682 69.9556C42.6015 71.389 40.5182 72.1056 38.1182 72.1056ZM38.1182 67.5056C39.3515 67.5056 40.4515 67.0223 41.4182 66.0556C42.3848 65.089 43.1348 63.539 43.6682 61.4056C44.2015 59.239 44.4682 56.389 44.4682 52.8556C44.4682 49.3223 44.2015 46.5056 43.6682 44.4056C43.1348 42.3056 42.3848 40.789 41.4182 39.8556C40.4515 38.9223 39.3515 38.4556 38.1182 38.4556C36.8848 38.4556 35.7848 38.9223 34.8182 39.8556C33.8515 40.789 33.0848 42.3056 32.5182 44.4056C31.9848 46.5056 31.7182 49.3223 31.7182 52.8556C31.7182 56.389 31.9848 59.239 32.5182 61.4056C33.0848 63.539 33.8515 65.089 34.8182 66.0556C35.7848 67.0223 36.8848 67.5056 38.1182 67.5056ZM54.5338 71.4056V68.0556C58.1671 64.8223 61.2005 61.8723 63.6338 59.2056C66.0671 56.5056 67.8838 54.0056 69.0838 51.7056C70.3171 49.4056 70.9338 47.2556 70.9338 45.2556C70.9338 43.9223 70.7005 42.7556 70.2338 41.7556C69.8005 40.7223 69.1171 39.939 68.1838 39.4056C67.2838 38.839 66.1338 38.5556 64.7338 38.5556C63.3005 38.5556 61.9838 38.9556 60.7838 39.7556C59.5838 40.5223 58.4838 41.4723 57.4838 42.6056L54.2338 39.4056C55.8005 37.6723 57.4505 36.3223 59.1838 35.3556C60.9505 34.389 63.0505 33.9056 65.4838 33.9056C67.7171 33.9056 69.6671 34.3723 71.3338 35.3056C73.0005 36.2056 74.2838 37.489 75.1838 39.1556C76.1171 40.789 76.5838 42.7223 76.5838 44.9556C76.5838 47.3223 76.0005 49.7223 74.8338 52.1556C73.6671 54.5556 72.0671 56.989 70.0338 59.4556C68.0005 61.889 65.6838 64.3556 63.0838 66.8556C64.0505 66.7556 65.0671 66.6723 66.1338 66.6056C67.2338 66.5056 68.2171 66.4556 69.0838 66.4556H78.3338V71.4056H54.5338Z" fill="#01255A"/>
<path d="M71.2869 119.978C68.6621 119.978 65.868 119.213 63.2431 117.768C57.8242 114.792 53.9293 109.095 52.9132 102.974C52.7439 102.464 52.4899 101.868 52.3206 101.358C52.1512 101.868 52.0665 102.294 51.9819 102.804C51.1352 109.01 47.2403 114.707 41.652 117.853C36.8257 120.489 31.2374 120.744 27.0885 118.363C23.2783 116.152 21.3309 112.496 19.8914 109.18C9.05351 85.2037 2.44915 59.7816 0.247693 33.6794C-0.345007 26.1973 -0.260335 17.6949 4.98929 11.3181C7.95278 7.83214 11.6783 5.8766 14.9805 4.0911C18.3674 2.3056 22.5162 0.180008 27.4272 0.00996061C33.2695 -0.160087 37.1644 1.88048 40.2972 3.58096H40.4666C43.2607 5.19641 45.5468 6.38674 49.2724 6.38674H55.6227C59.3483 6.38674 61.6344 5.19641 64.4285 3.66598C67.646 1.96551 71.6256 -0.160087 77.4679 0.00996061C81.7862 0.0949843 85.5964 1.88048 88.7292 3.49593L89.9146 4.0911C93.2168 5.79157 97.027 7.74712 99.9058 11.3181C105.155 17.6949 105.24 26.1122 104.647 33.5943C102.446 59.7816 95.8416 85.2037 85.0883 109.095C83.5643 112.411 81.7015 116.067 77.8913 118.278C75.9438 119.383 73.6577 119.978 71.3716 119.978H71.2869ZM51.8125 93.5361L53.4213 96.1718C54.3527 97.7022 55.3687 99.9128 56.1308 102.038V102.294C56.9775 107.48 60.2796 112.241 64.8519 114.792C68.7468 116.918 72.8957 117.173 76.1132 115.302C79.0767 113.602 80.6854 110.456 81.9555 107.65C92.6241 84.0984 99.0591 59.1015 101.261 33.2542C101.853 26.4523 101.769 18.8002 97.281 13.4437C95.0796 10.723 92.0314 9.02248 89.2372 7.57707L88.3059 7.06693C85.2577 5.45148 81.4475 3.49593 77.2986 3.41091C72.303 3.24086 69.0008 5.02636 65.9526 6.64181C62.9891 8.25726 60.195 9.70267 55.5381 9.70267H49.1877C44.6155 9.70267 41.7366 8.17224 38.7731 6.64181H38.6038C35.5556 4.94134 32.4228 3.24086 27.4272 3.41091C23.2783 3.49593 19.4681 5.5365 16.4199 7.06693C13.3717 8.68238 9.98489 10.4679 7.44475 13.4437C2.95717 18.8002 2.95717 26.4523 3.4652 33.2542C5.66666 59.0164 12.1017 84.0134 22.7703 107.65C24.0403 110.456 25.6491 113.602 28.6126 115.302C30.052 116.152 31.6607 116.577 33.4388 116.577C35.2169 116.577 37.7571 115.982 39.8739 114.792C44.4461 112.241 47.833 107.31 48.5103 102.294V102.123C48.9337 100.168 49.6957 97.8723 50.4578 96.2568L51.8125 93.451V93.5361Z" fill="#01255A"/>
</g>
<defs>
<clipPath id="clip0_1_342">
<rect width="104.895" height="120" fill="white"/>
</clipPath>
</defs>
</svg>
