<svg width="542" height="179" viewBox="0 0 542 179" fill="none" xmlns="http://www.w3.org/2000/svg">
<g filter="url(#filter0_d_1_398)">
<path d="M32.32 12.2C32.4 12.12 32.5067 11.9733 32.64 11.76C32.8 11.5467 32.9333 11.4 33.04 11.32C33.1467 11.2133 33.2533 11.16 33.36 11.16C33.52 11.16 33.88 11.3733 34.44 11.8C35.0267 12.2 35.5733 12.64 36.08 13.12C36.5867 13.6 36.84 13.9333 36.84 14.12C36.4933 14.52 35.9333 14.8133 35.16 15V32.32C35.2133 35.6267 35.32 38.76 35.48 41.72C35.2667 42.0133 34.84 42.3067 34.2 42.6C33.56 42.92 32.9733 43.08 32.44 43.08C32.2267 43.08 32.0667 43 31.96 42.84C31.88 42.68 31.84 42.4933 31.84 42.28C31.84 42.28 31.8933 41.9333 32 41.24V40.32H14.48V41.92C14.48 42.16 14.2 42.4267 13.64 42.72C13.1067 43.0133 12.52 43.16 11.88 43.16C11.6133 43.16 11.3733 43.08 11.16 42.92C10.9733 42.76 10.88 42.5733 10.88 42.36C10.9867 40.7867 11.08 39.2667 11.16 37.8C11.24 36.3067 11.2933 34.36 11.32 31.96V19.6C11.32 16.24 11.1467 13.5067 10.8 11.4L14.76 13.2H19.72C20.04 12.1333 20.2933 10.9467 20.48 9.64C20.6667 8.30667 20.7333 7.13333 20.68 6.12L26.16 7.28C26.1067 7.54667 25.96 7.76 25.72 7.92C25.48 8.08 25.1733 8.17333 24.8 8.2C23.6267 10.0667 22.3867 11.7333 21.08 13.2H31.56L32.32 12.2ZM32 21.68V14.32H14.48V21.68H32ZM32 30.28V22.8H14.48V30.28H32ZM14.48 31.48V39.12H32V31.48H14.48ZM50.16 21.52C48.6667 23.84 47.1067 25.8133 45.48 27.44L44.96 27.04C47.04 23.7867 49 19.64 50.84 14.6C51.2933 13.2933 51.72 11.8133 52.12 10.16C52.52 8.48 52.76 7.09333 52.84 6C54.6 6.56 55.8133 7 56.48 7.32C57.1733 7.64 57.52 7.88 57.52 8.04C57.52 8.17333 57.4133 8.28 57.2 8.36L56.48 8.64C55.3867 11.6533 54.1333 14.52 52.72 17.24C53.68 17.96 54.16 18.4667 54.16 18.76C54.16 18.8933 54.0533 19.0267 53.84 19.16L53.28 19.4V32.56C53.3333 35.8667 53.44 39 53.6 41.96C53.36 42.2533 52.96 42.5333 52.4 42.8C51.84 43.0667 51.28 43.2 50.72 43.2C50.4533 43.2 50.2133 43.12 50 42.96C49.8133 42.8 49.72 42.6133 49.72 42.4C49.8267 40.8267 49.92 39.3067 50 37.84C50.08 36.3467 50.1333 34.4 50.16 32V21.52ZM73.24 7.88C73.3733 7.72 73.52 7.52 73.68 7.28C73.84 7.04 73.9733 6.86667 74.08 6.76C74.1867 6.62667 74.2933 6.56 74.4 6.56C74.56 6.56 74.92 6.78667 75.48 7.24C76.04 7.69333 76.56 8.17333 77.04 8.68C77.5467 9.18666 77.8 9.53333 77.8 9.72C77.6933 10.12 77.3467 10.32 76.76 10.32H66.2C64.3067 10.3467 62.3067 10.5333 60.2 10.88L59.2 8.88C60.6667 9.04 62.44 9.14667 64.52 9.2H72.36L73.24 7.88ZM63.16 15.88C61.2667 15.9067 59.2667 16.0933 57.16 16.44L56.12 14.4C57.5867 14.56 59.36 14.6667 61.44 14.72H75.6L76.48 13.4C76.5867 13.2667 76.72 13.08 76.88 12.84C77.0667 12.5733 77.2133 12.3867 77.32 12.28C77.4533 12.1467 77.5733 12.08 77.68 12.08C77.84 12.08 78.2 12.3067 78.76 12.76C79.3467 13.2133 79.88 13.6933 80.36 14.2C80.8667 14.7067 81.12 15.0533 81.12 15.24C81.0133 15.6667 80.68 15.88 80.12 15.88H63.16ZM65.32 21.2C63.5067 21.2267 61.6133 21.4133 59.64 21.76L58.6 19.72C60.0667 19.88 61.84 19.9867 63.92 20.04H73.36L74.2 18.8C74.3067 18.6667 74.44 18.48 74.6 18.24C74.7867 18 74.9333 17.8267 75.04 17.72C75.1467 17.5867 75.2533 17.52 75.36 17.52C75.52 17.52 75.88 17.7333 76.44 18.16C77 18.5867 77.52 19.0533 78 19.56C78.48 20.04 78.72 20.3733 78.72 20.56C78.64 20.9867 78.2933 21.2 77.68 21.2H65.32ZM74.2 24.08C74.3067 23.9467 74.44 23.76 74.6 23.52C74.7867 23.28 74.9333 23.1067 75.04 23C75.1467 22.8667 75.2533 22.8 75.36 22.8C75.52 22.8 75.88 23.0267 76.44 23.48C77 23.9067 77.52 24.3733 78 24.88C78.48 25.3867 78.72 25.7333 78.72 25.92C78.6933 26.1067 78.5733 26.2533 78.36 26.36C78.1733 26.4667 77.9467 26.52 77.68 26.52H65.64C63.7467 26.5467 61.7467 26.7333 59.64 27.08L58.6 25.04C60.0667 25.2 61.84 25.3067 63.92 25.36H73.36L74.2 24.08ZM62.24 42.04C62.24 42.2 61.9467 42.4 61.36 42.64C60.8 42.9067 60.2267 43.04 59.64 43.04C59.4267 43.04 59.2533 42.96 59.12 42.8C59.0133 42.64 58.96 42.4533 58.96 42.24C59.0667 41.2533 59.1467 39.9867 59.2 38.44V36.12C59.2 33.16 59.0533 30.8 58.76 29.04L62.48 30.68H74.16L74.88 29.8C74.9867 29.6933 75.1333 29.52 75.32 29.28C75.5333 29.0133 75.72 28.88 75.88 28.88C76.04 28.88 76.3867 29.0667 76.92 29.44C77.48 29.8133 77.9867 30.2267 78.44 30.68C78.92 31.1067 79.16 31.4133 79.16 31.6C79.0267 31.76 78.8267 31.92 78.56 32.08C78.2933 32.2133 77.9867 32.3067 77.64 32.36V35.56C77.6933 38.1733 77.7733 40.2133 77.88 41.68C77.72 41.92 77.32 42.1733 76.68 42.44C76.0667 42.7333 75.5067 42.88 75 42.88C74.7867 42.88 74.6267 42.8 74.52 42.64C74.44 42.48 74.4 42.2933 74.4 42.08C74.4 42.08 74.4533 41.76 74.56 41.12V40.24H62.24V42.04ZM62.24 31.84V39.08H74.56V31.84H62.24ZM93.8 40.24C93.3733 40.24 92.9067 40 92.4 39.52C91.8933 39.04 91.5067 38.48 91.24 37.84C90.2 35.2267 89.68 32.0533 89.68 28.32C89.68 26.56 89.8133 25 90.08 23.64C90.3467 22.2533 90.7067 20.7867 91.16 19.24C91.4533 18.2 91.6667 17.3867 91.8 16.8C91.9333 16.1867 92 15.5867 92 15C92 14.44 91.8933 13.88 91.68 13.32C91.4933 12.7333 91.2267 12.2667 90.88 11.92C90.8267 11.8667 90.7467 11.7867 90.64 11.68C90.5333 11.5467 90.48 11.4267 90.48 11.32C90.48 11.2133 90.56 11.16 90.72 11.16C90.88 11.16 91.0933 11.2267 91.36 11.36C92.4267 11.8933 93.2933 12.5733 93.96 13.4C94.6267 14.2 94.96 15.2533 94.96 16.56C94.96 17.2 94.84 17.8533 94.6 18.52C94.36 19.1867 94 19.96 93.52 20.84C93.2533 21.3733 92.9867 21.9467 92.72 22.56C92.4533 23.1467 92.2533 23.7067 92.12 24.24C91.8533 25.2 91.72 26.2267 91.72 27.32C91.72 27.9867 91.7867 28.6133 91.92 29.2C92.0533 29.76 92.2267 30.04 92.44 30.04C92.5467 30.04 92.6667 29.9333 92.8 29.72C92.96 29.48 93.0667 29.32 93.12 29.24L95.32 24.72C95.5067 24.4267 95.6533 24.28 95.76 24.28C95.84 24.28 95.88 24.3333 95.88 24.44L95.76 24.92C95.36 25.9867 94.9333 27.3067 94.48 28.88C94.0533 30.4267 93.84 31.6933 93.84 32.68C93.84 33.3733 93.9067 34.0667 94.04 34.76C94.1733 35.4533 94.36 36.3067 94.6 37.32C94.84 38.2267 94.96 38.7867 94.96 39C94.96 39.4 94.84 39.7067 94.6 39.92C94.3867 40.1333 94.12 40.24 93.8 40.24ZM108.32 17.8C106.933 17.8 105.76 17.6267 104.8 17.28C103.947 16.9867 103.213 16.6 102.6 16.12C101.987 15.6133 101.56 15.12 101.32 14.64C101.213 14.4267 101.16 14.2533 101.16 14.12C101.16 14.0133 101.2 13.96 101.28 13.96C101.333 13.96 101.467 14.0267 101.68 14.16C101.893 14.2933 102.08 14.4 102.24 14.48C103.147 14.8533 104.173 15.04 105.32 15.04C106.067 15.04 107.04 14.96 108.24 14.8C109.44 14.64 110.467 14.4533 111.32 14.24C111.72 14.1067 112.053 14.04 112.32 14.04C112.933 14.04 113.48 14.2133 113.96 14.56C114.44 14.88 114.68 15.2667 114.68 15.72C114.68 16.44 114 16.9733 112.64 17.32C111.28 17.64 109.84 17.8 108.32 17.8ZM109.56 38.52C107.373 38.52 105.493 38.2 103.92 37.56C102.373 36.8933 101.267 35.6933 100.6 33.96C100.413 33.5067 100.32 33.2 100.32 33.04C100.32 32.9333 100.373 32.88 100.48 32.88C100.56 32.88 100.667 32.9333 100.8 33.04C100.933 33.1467 101.04 33.2267 101.12 33.28C102.16 34.1067 103.36 34.68 104.72 35C105.36 35.16 106.267 35.24 107.44 35.24C108.72 35.24 110.387 35.0933 112.44 34.8C113.453 34.6933 114 34.64 114.08 34.64C114.8 34.64 115.373 34.8267 115.8 35.2C116.227 35.5733 116.44 35.9867 116.44 36.44C116.44 37.2933 115.787 37.8533 114.48 38.12C113.2 38.3867 111.56 38.52 109.56 38.52ZM157.52 22C157.68 22 158.04 22.1867 158.6 22.56C159.16 22.9067 159.667 23.2933 160.12 23.72C160.6 24.1467 160.84 24.4533 160.84 24.64C160.707 24.8 160.493 24.96 160.2 25.12C159.907 25.28 159.573 25.4 159.2 25.48V39.28C159.2 40.1067 159.107 40.7733 158.92 41.28C158.733 41.7867 158.333 42.2 157.72 42.52C157.107 42.8667 156.2 43.0933 155 43.2C154.92 42.2133 154.64 41.52 154.16 41.12C153.627 40.64 152.613 40.2667 151.12 40V39.4C153.627 39.5867 155.12 39.68 155.6 39.68C155.893 39.68 156.093 39.6267 156.2 39.52C156.307 39.3867 156.36 39.1733 156.36 38.88V24.88H148.48V34.6H151.56C151.56 31.56 151.4 29.0267 151.08 27C153.293 27.6933 154.4 28.2133 154.4 28.56C154.4 28.6667 154.333 28.76 154.2 28.84L153.76 29.12V31.2C153.813 33.5467 153.893 35.4 154 36.76C153.867 37 153.587 37.24 153.16 37.48C152.76 37.6933 152.373 37.8 152 37.8H151.56V35.8H142.88V37.64C142.88 37.7733 142.68 37.9467 142.28 38.16C141.907 38.3467 141.547 38.44 141.2 38.44C141.013 38.44 140.867 38.36 140.76 38.2C140.653 38.04 140.6 37.8533 140.6 37.64C140.68 36.9733 140.733 36.3067 140.76 35.64C140.76 35.24 140.773 34.92 140.8 34.68V32.8C140.8 30.5333 140.68 28.6 140.44 27C142.52 27.6933 143.56 28.2133 143.56 28.56C143.56 28.64 143.48 28.7333 143.32 28.84L142.88 29.12V34.6H145.92V24.88H138.32V32.56C138.373 35.8667 138.48 39 138.64 41.96C138.453 42.2533 138.107 42.5333 137.6 42.8C137.093 43.0667 136.573 43.2 136.04 43.2C135.853 43.2 135.68 43.12 135.52 42.96C135.36 42.8 135.28 42.6133 135.28 42.4C135.467 40.08 135.587 37.4933 135.64 34.64V30.32C135.64 26.96 135.467 24.2267 135.12 22.12L138.56 23.72H145.72V19.72H141.48C139.587 19.7467 137.587 19.9333 135.48 20.28L134.6 18.48C132.893 24.0533 131.76 27.84 131.2 29.84C130.88 31.2 130.72 32.36 130.72 33.32C130.72 33.6667 130.76 34.04 130.84 34.44C130.947 34.84 131.067 35.24 131.2 35.64C131.413 36.44 131.573 37.16 131.68 37.8C131.813 38.4133 131.88 39.1067 131.88 39.88C131.88 40.92 131.667 41.7333 131.24 42.32C130.813 42.9333 130.227 43.24 129.48 43.24C129.107 43.24 128.773 43.0667 128.48 42.72C128.213 42.3733 128.067 41.88 128.04 41.24C128.253 39.5867 128.36 38.1733 128.36 37C128.36 35.96 128.293 35.1067 128.16 34.44C128.027 33.7733 127.827 33.3467 127.56 33.16C127.16 32.84 126.533 32.64 125.68 32.56V31.72H127.32C127.587 31.72 127.773 31.68 127.88 31.6C127.987 31.4933 128.133 31.2533 128.32 30.88C128.667 30.2133 129.293 28.7467 130.2 26.48C131.133 24.2133 132.773 20.1333 135.12 14.24L135.84 14.4C135.733 14.88 135.573 15.4 135.36 15.96L134.68 18.28C135.987 18.4133 137.493 18.5067 139.2 18.56H141.4V13.32H139.4C138.28 13.3467 137.08 13.5333 135.8 13.88L134.76 11.8C135.987 11.96 137.48 12.0667 139.24 12.12H141.4C141.4 9.82666 141.28 7.90667 141.04 6.36C143.92 7.10667 145.36 7.68 145.36 8.08C145.36 8.18667 145.253 8.30667 145.04 8.44L144.36 8.88V12.12H150.04C150.04 9.82666 149.92 7.90667 149.68 6.36C152.56 7.10667 154 7.66667 154 8.04C154 8.17333 153.88 8.30667 153.64 8.44L152.96 8.88V12.12H155.24L156.04 10.92C156.12 10.7867 156.24 10.6133 156.4 10.4C156.587 10.16 156.733 9.98667 156.84 9.88C156.947 9.74667 157.053 9.68 157.16 9.68C157.32 9.68 157.667 9.89333 158.2 10.32C158.76 10.7467 159.267 11.2 159.72 11.68C160.2 12.16 160.44 12.4933 160.44 12.68C160.333 13.1067 160 13.32 159.44 13.32H152.96V18.56H155.52L156.36 17.28C156.467 17.1467 156.6 16.96 156.76 16.72C156.947 16.48 157.093 16.3067 157.2 16.2C157.307 16.0667 157.413 16 157.52 16C157.68 16 158.027 16.2267 158.56 16.68C159.12 17.1067 159.64 17.5733 160.12 18.08C160.6 18.56 160.84 18.8933 160.84 19.08C160.76 19.5067 160.427 19.72 159.84 19.72H148.68V23.72H156L156.6 22.88C156.68 22.7733 156.773 22.64 156.88 22.48C157.013 22.32 157.12 22.2 157.2 22.12C157.307 22.04 157.413 22 157.52 22ZM131.04 12.4C130.747 11.4933 130.2 10.5467 129.4 9.56C128.627 8.54667 127.813 7.69333 126.96 7L127.28 6.68C129.467 7 131.08 7.58667 132.12 8.44C133.16 9.26667 133.68 10.1333 133.68 11.04C133.68 11.52 133.533 11.92 133.24 12.24C132.947 12.56 132.587 12.72 132.16 12.72C131.76 12.72 131.387 12.6133 131.04 12.4ZM144.36 13.32V18.56H150.04V13.32H144.36ZM128.56 21.72C128.347 20.8667 127.893 19.9867 127.2 19.08C126.533 18.1467 125.8 17.36 125 16.72L125.32 16.4C127.32 16.6667 128.8 17.2 129.76 18C130.747 18.7733 131.24 19.5867 131.24 20.44C131.24 20.8933 131.093 21.2933 130.8 21.64C130.507 21.96 130.147 22.12 129.72 22.12C129.32 22.12 128.933 21.9867 128.56 21.72ZM187 25.04C189.053 25.04 190.72 25.68 192 26.96C193.28 28.2133 193.92 29.92 193.92 32.08C193.92 34.96 192.667 37.3067 190.16 39.12C187.68 40.9067 183.827 41.96 178.6 42.28H178.36C178.013 42.28 177.84 42.2 177.84 42.04C177.84 41.88 178.053 41.7733 178.48 41.72C182.213 41.2667 185.187 40.16 187.4 38.4C189.613 36.64 190.72 34.3467 190.72 31.52C190.72 30.0267 190.36 28.8267 189.64 27.92C188.947 26.9867 187.933 26.52 186.6 26.52C185.48 26.52 184.413 26.8533 183.4 27.52C182.387 28.16 181.52 28.9467 180.8 29.88C180.08 30.8133 179.547 31.68 179.2 32.48C178.773 33.4133 178.24 33.88 177.6 33.88C177.147 33.88 176.733 33.6533 176.36 33.2C175.533 32.2133 175.12 30.7467 175.12 28.8C175.12 27.2267 175.573 23.9067 176.48 18.84L176.68 17.8C175.107 17.7467 173.773 17.4267 172.68 16.84C171.587 16.2267 170.733 15.2933 170.12 14.04C170.013 13.7733 169.96 13.6133 169.96 13.56C169.96 13.4533 169.987 13.3733 170.04 13.32C170.093 13.24 170.16 13.2 170.24 13.2C170.373 13.2 170.627 13.3467 171 13.64C172.467 14.7867 174.08 15.36 175.84 15.36C176.373 15.36 176.787 15.3467 177.08 15.32C177.453 12.84 177.64 11.32 177.64 10.76C177.64 10.28 177.533 9.88 177.32 9.56C177.133 9.24 176.827 8.94666 176.4 8.68C176.32 8.62667 176.187 8.54667 176 8.44C175.813 8.30667 175.72 8.17333 175.72 8.04C175.72 7.85333 175.987 7.69333 176.52 7.56C177.053 7.42666 177.573 7.36 178.08 7.36C178.933 7.36 179.653 7.50666 180.24 7.8C180.853 8.09333 181.16 8.56 181.16 9.2C181.16 9.49333 180.947 10.2133 180.52 11.36C181.96 12.16 183.107 12.6 183.96 12.68C184.093 12.68 184.36 12.6933 184.76 12.72C185.16 12.7467 185.467 12.7867 185.68 12.84C185.893 12.8933 186.053 12.9733 186.16 13.08C186.48 13.2133 186.64 13.4533 186.64 13.8C186.64 14.2533 186.373 14.7733 185.84 15.36C185.307 15.9467 184.613 16.4133 183.76 16.76C183.2 16.9733 182.467 17.1733 181.56 17.36C180.653 17.5467 179.693 17.68 178.68 17.76C178.067 21.0133 177.76 23.6933 177.76 25.8C177.76 27.72 177.987 28.68 178.44 28.68C178.627 28.68 178.973 28.4933 179.48 28.12C180.44 27.2933 181.613 26.5733 183 25.96C184.413 25.3467 185.747 25.04 187 25.04ZM180.28 12.04C179.747 13.4267 179.4 14.44 179.24 15.08C180.44 14.92 181.4 14.6667 182.12 14.32C182.28 14.24 182.413 14.16 182.52 14.08C182.627 14 182.68 13.92 182.68 13.84C182.68 13.7867 182.613 13.6667 182.48 13.48C182.24 13.2667 181.907 13.0267 181.48 12.76C181.053 12.4667 180.653 12.2267 180.28 12.04ZM222.12 15.56C222.12 16.0133 221.773 16.5067 221.08 17.04C219.56 18.2133 217.813 19.2267 215.84 20.08C215.76 20.5333 215.613 21.2133 215.4 22.12C213.453 31.48 212.32 36.6667 212 37.68C211.707 38.5867 211.4 39.2533 211.08 39.68C210.787 40.08 210.427 40.28 210 40.28C209.493 40.28 209.04 40.1067 208.64 39.76C208.267 39.3867 208.08 38.8933 208.08 38.28C208.08 37.8267 208.24 37.24 208.56 36.52C210.72 31.8 212.36 26.5867 213.48 20.88C212.36 21.2 211.307 21.36 210.32 21.36C208.88 21.36 207.493 20.56 206.16 18.96C205.973 18.7733 205.88 18.6133 205.88 18.48C205.88 18.32 205.96 18.24 206.12 18.24C206.2 18.24 206.4 18.3067 206.72 18.44C207.68 18.8133 208.56 19 209.36 19C209.947 19 210.667 18.8933 211.52 18.68C212.267 18.4933 213.093 18.2267 214 17.88C214.133 17 214.307 15.7333 214.52 14.08C214.573 13.7067 214.6 13.3333 214.6 12.96C214.6 12.1067 214.44 11.4533 214.12 11C213.8 10.5467 213.24 10.0667 212.44 9.56C212.227 9.42667 212.12 9.30667 212.12 9.2C212.12 9.12 212.213 9.05333 212.4 9C212.613 8.94667 212.853 8.92 213.12 8.92C213.467 8.92 213.88 8.97333 214.36 9.08C214.867 9.18666 215.32 9.33333 215.72 9.52C216.28 9.76 216.72 10.04 217.04 10.36C217.387 10.68 217.56 11.16 217.56 11.8C217.56 11.96 217.547 12.1067 217.52 12.24C217.493 12.3733 217.467 12.4933 217.44 12.6C217.76 12.9733 218.253 13.3467 218.92 13.72C219.213 13.88 219.733 14.0667 220.48 14.28C221.04 14.4667 221.453 14.64 221.72 14.8C221.987 14.96 222.12 15.2133 222.12 15.56ZM216.56 16.72C217.787 16.0267 218.4 15.4933 218.4 15.12C218.4 14.88 218.307 14.64 218.12 14.4C217.96 14.16 217.68 13.8133 217.28 13.36L216.56 16.72ZM235.08 17.32C235.693 17.6933 236.16 18.1733 236.48 18.76C236.8 19.32 236.96 19.8267 236.96 20.28C236.96 21.0533 236.32 21.5333 235.04 21.72C234.853 21.7467 234.48 21.8 233.92 21.88C233.387 21.96 232.907 22.0667 232.48 22.2C232.027 22.3333 231.547 22.52 231.04 22.76C230.56 23 230.2 23.2 229.96 23.36C229.773 23.4667 229.613 23.52 229.48 23.52C229.347 23.52 229.28 23.4667 229.28 23.36C229.28 23.2533 229.347 23.12 229.48 22.96C229.64 22.8 229.987 22.4933 230.52 22.04C231.293 21.4267 231.867 20.9467 232.24 20.6C232.613 20.2267 232.8 19.8933 232.8 19.6C232.8 19.3333 232.6 19.0533 232.2 18.76C231.613 18.3067 230.973 18 230.28 17.84C229.587 17.6533 228.96 17.56 228.4 17.56C228.133 17.56 227.88 17.5867 227.64 17.64C227.427 17.6667 227.293 17.68 227.24 17.68C226.867 17.68 226.68 17.5733 226.68 17.36C226.68 17.2 226.853 17.04 227.2 16.88C228.48 16.4267 229.68 16.2 230.8 16.2C231.653 16.2 232.44 16.3067 233.16 16.52C233.907 16.7067 234.547 16.9733 235.08 17.32ZM233.44 36.84C234.667 36.84 235.44 37.1067 235.76 37.64C235.947 37.8533 236.04 38.1467 236.04 38.52C236.04 39.32 235.627 39.8533 234.8 40.12C234 40.4133 232.88 40.56 231.44 40.56C228.56 40.56 226.187 40.0267 224.32 38.96C222.453 37.8933 221.52 36.2667 221.52 34.08C221.52 33.5467 221.573 33.0533 221.68 32.6C221.787 32.1467 221.907 31.8 222.04 31.56C222.2 31.2667 222.36 31 222.52 30.76C222.68 30.52 222.827 30.4 222.96 30.4C223.067 30.4 223.12 30.48 223.12 30.64C223.12 30.7467 223.093 30.9067 223.04 31.12C222.987 31.3067 222.947 31.48 222.92 31.64C222.893 31.8 222.88 32 222.88 32.24C222.88 32.7733 222.987 33.3467 223.2 33.96C223.44 34.5733 223.853 35.1333 224.44 35.64C224.893 36.04 225.587 36.3867 226.52 36.68C227.48 36.9467 228.56 37.08 229.76 37.08C230.027 37.08 230.333 37.0667 230.68 37.04C231.053 37.0133 231.413 36.9867 231.76 36.96C232.48 36.88 233.04 36.84 233.44 36.84ZM259.44 10.48C259.547 10.3467 259.653 10.1867 259.76 10C259.893 9.81333 260.027 9.65333 260.16 9.52C260.293 9.38667 260.413 9.32 260.52 9.32C260.68 9.32 261 9.52 261.48 9.92C261.987 10.2933 262.44 10.7067 262.84 11.16C263.267 11.6133 263.48 11.9333 263.48 12.12C263.373 12.5467 263.04 12.76 262.48 12.76H255.16C256.28 13.3467 257.093 14.0133 257.6 14.76C258.133 15.48 258.4 16.1733 258.4 16.84C258.4 17.3733 258.253 17.8133 257.96 18.16C257.693 18.5067 257.347 18.68 256.92 18.68C256.493 18.68 256.093 18.5067 255.72 18.16C255.64 17.3333 255.387 16.4267 254.96 15.44C254.533 14.4533 254.04 13.56 253.48 12.76H251.8C249.933 15.88 247.853 18.4267 245.56 20.4L245 20C246.147 18.4 247.213 16.5067 248.2 14.32C248.787 13.1467 249.333 11.7333 249.84 10.08C250.347 8.42666 250.667 7.04 250.8 5.92C252.373 6.50666 253.467 6.96 254.08 7.28C254.693 7.6 255 7.84 255 8C255 8.10666 254.88 8.21333 254.64 8.32L253.92 8.6C253.573 9.42667 253.08 10.4267 252.44 11.6H258.68L259.44 10.48ZM275.6 26.64C275.733 26.4533 275.88 26.24 276.04 26C276.227 25.7333 276.373 25.5467 276.48 25.44C276.613 25.3067 276.733 25.24 276.84 25.24C277 25.24 277.373 25.48 277.96 25.96C278.573 26.4133 279.133 26.9067 279.64 27.44C280.173 27.9733 280.44 28.3333 280.44 28.52C280.333 28.9467 280 29.16 279.44 29.16H264.72C266 32.12 268 34.4533 270.72 36.16C273.44 37.8667 276.787 39.08 280.76 39.8V40.24C280.093 40.3733 279.533 40.6933 279.08 41.2C278.653 41.7067 278.333 42.3467 278.12 43.12C274.36 41.92 271.32 40.2267 269 38.04C266.707 35.8533 265 32.8933 263.88 29.16H263.52C263.013 31.48 262.133 33.5067 260.88 35.24C259.653 36.9733 257.8 38.52 255.32 39.88C252.867 41.24 249.613 42.3733 245.56 43.28L245.24 42.64C249.987 40.9867 253.48 39.08 255.72 36.92C257.96 34.7333 259.453 32.1467 260.2 29.16H252.48C250.587 29.1867 248.587 29.3733 246.48 29.72L245.48 27.68C246.947 27.84 248.72 27.9467 250.8 28H260.44C260.707 26.4267 260.88 24.6533 260.96 22.68C256.373 23.08 252.2 23.28 248.44 23.28L248.32 22.56C252.187 22.24 256.293 21.68 260.64 20.88C264.987 20.08 268.693 19.2267 271.76 18.32C271.493 18.24 271.267 18.12 271.08 17.96C270.973 17.1333 270.64 16.2533 270.08 15.32C269.547 14.36 268.933 13.5067 268.24 12.76H266.44C264.92 15.2133 263.147 17.2 261.12 18.72L260.64 18.36C261.493 17.1867 262.267 15.8533 262.96 14.36C263.547 13.1867 264.067 11.7867 264.52 10.16C265 8.50667 265.28 7.12 265.36 6C267.013 6.56 268.16 7 268.8 7.32C269.44 7.64 269.76 7.88 269.76 8.04C269.76 8.12 269.64 8.21333 269.4 8.32L268.68 8.6C268.333 9.42667 267.84 10.4267 267.2 11.6H275.4L276.24 10.4C276.32 10.2667 276.44 10.0933 276.6 9.88C276.787 9.64 276.933 9.46667 277.04 9.36C277.147 9.22667 277.253 9.16 277.36 9.16C277.52 9.16 277.88 9.37333 278.44 9.8C279 10.2 279.52 10.64 280 11.12C280.48 11.6 280.72 11.9333 280.72 12.12C280.613 12.5467 280.28 12.76 279.72 12.76H270.28C271.48 13.2667 272.347 13.8667 272.88 14.56C273.44 15.2533 273.72 15.9333 273.72 16.6C273.72 17.08 273.6 17.48 273.36 17.8C275.173 19.5067 276.08 20.5067 276.08 20.8C276.08 20.88 276.013 20.9333 275.88 20.96C275.773 20.9867 275.627 20.9867 275.44 20.96L274.4 20.8C271.52 21.36 268.173 21.8667 264.36 22.32C264.227 24.6933 264.027 26.5867 263.76 28H274.68L275.6 26.64ZM289.72 20.88V24.4C289.72 27.8667 289.44 31.1333 288.88 34.2C288.347 37.24 287.16 39.96 285.32 42.36L284.8 41.92C285.76 39.4667 286.36 36.8933 286.6 34.2C286.867 31.48 287 28.2133 287 24.4V21.36C287 20 286.933 18.92 286.8 18.12L290.2 19.72H295.12C295.493 18.6 295.813 17.4133 296.08 16.16C296.373 14.88 296.533 13.7733 296.56 12.84H292.24C290.347 12.8667 288.347 13.0533 286.24 13.4L285.2 11.36C286.56 11.52 288.213 11.6267 290.16 11.68H292.48C292.48 9.52 292.373 7.8 292.16 6.52C294.987 7.26667 296.4 7.84 296.4 8.24C296.4 8.37333 296.293 8.50667 296.08 8.64L295.4 9.08V11.68H298.56L299.36 10.48C299.44 10.3467 299.56 10.1733 299.72 9.96C299.907 9.72 300.053 9.54666 300.16 9.44C300.267 9.30666 300.373 9.24 300.48 9.24C300.64 9.24 300.987 9.45333 301.52 9.88C302.053 10.28 302.547 10.72 303 11.2C303.453 11.68 303.68 12.0133 303.68 12.2C303.573 12.6267 303.227 12.84 302.64 12.84H297.44C299.547 13.5067 300.6 14 300.6 14.32C300.6 14.4 300.48 14.4933 300.24 14.6L299.56 14.84C298.467 16.7067 297.333 18.3333 296.16 19.72H298.52L299.28 18.6C299.36 18.4933 299.467 18.3333 299.6 18.12C299.76 17.9067 299.893 17.7467 300 17.64C300.107 17.5333 300.213 17.48 300.32 17.48C300.48 17.48 300.8 17.68 301.28 18.08C301.787 18.4533 302.253 18.8667 302.68 19.32C303.107 19.7467 303.32 20.0533 303.32 20.24C303.24 20.6667 302.907 20.88 302.32 20.88H298.12L299.56 22.04C300.52 22.52 301 22.88 301 23.12C301 23.2267 300.853 23.3067 300.56 23.36L299.92 23.4C298.693 24.36 297.253 25.28 295.6 26.16C293.947 27.04 292.307 27.7733 290.68 28.36L290.2 27.64C290.813 27.2933 291.413 26.8933 292 26.44C293.013 25.7467 294.013 24.88 295 23.84C296.013 22.8 296.813 21.8133 297.4 20.88H289.72ZM317.48 6.88C317.64 6.88 318.013 7.10666 318.6 7.56C319.187 8.01333 319.733 8.50667 320.24 9.04C320.773 9.54666 321.04 9.89333 321.04 10.08C320.933 10.48 320.587 10.68 320 10.68H312.92C312.093 12.3333 311.173 13.8667 310.16 15.28H315.2L315.88 14.36C315.933 14.28 316.027 14.1467 316.16 13.96C316.293 13.7733 316.413 13.64 316.52 13.56C316.627 13.4533 316.733 13.4 316.84 13.4C317 13.4 317.32 13.6 317.8 14C318.307 14.3733 318.773 14.7867 319.2 15.24C319.627 15.6667 319.84 15.9733 319.84 16.16C319.733 16.32 319.547 16.4667 319.28 16.6C319.04 16.7333 318.76 16.8267 318.44 16.88V25.04C318.493 28.3467 318.6 31.48 318.76 34.44C318.573 34.68 318.173 34.9333 317.56 35.2C316.973 35.4667 316.453 35.6 316 35.6H315.56V34.16H307.04V35.08C307.04 35.2667 306.787 35.4933 306.28 35.76C305.773 36 305.227 36.12 304.64 36.12C304.4 36.12 304.2 36.04 304.04 35.88C303.88 35.72 303.8 35.5333 303.8 35.32C303.987 32.7067 304.107 29.8133 304.16 26.64V21.88C304.16 18.52 303.987 15.7867 303.64 13.68L307.24 15.28H308.88C309.12 14.08 309.307 12.5467 309.44 10.68H307.28C306.08 10.7067 304.8 10.8933 303.44 11.24L302.4 9.24C303.867 9.4 305.64 9.50667 307.72 9.56H315.4L316.28 8.24C316.36 8.13333 316.493 7.94667 316.68 7.68C316.867 7.41333 317.013 7.21333 317.12 7.08C317.253 6.94666 317.373 6.88 317.48 6.88ZM291.88 19.48C291.453 19.48 291.027 19.2667 290.6 18.84C290.627 17.9867 290.48 17.0533 290.16 16.04C289.867 15 289.507 14.1067 289.08 13.36L289.52 13.12C290.827 13.76 291.787 14.4933 292.4 15.32C293.04 16.12 293.36 16.88 293.36 17.6C293.36 18.1333 293.213 18.5867 292.92 18.96C292.627 19.3067 292.28 19.48 291.88 19.48ZM315.56 21.08V16.48H307.04V21.08H315.56ZM307.04 27H315.56V22.2H307.04V27ZM300.24 27.64C301.2 28.12 301.68 28.4933 301.68 28.76C301.68 28.8933 301.533 28.96 301.24 28.96L300.6 29C299.16 30.2 297.52 31.32 295.68 32.36C293.867 33.3733 292.04 34.2133 290.2 34.88L289.76 34.2C290.64 33.6933 291.653 33.0267 292.8 32.2C293.893 31.3733 294.96 30.4 296 29.28C297.04 28.1333 297.813 27.0667 298.32 26.08L300.24 27.64ZM307.04 33.04H315.56V28.16H307.04V33.04ZM301.68 34.96C298.053 38.8 293.427 41.5333 287.8 43.16L287.48 42.48C289.88 41.36 292.027 40.0267 293.92 38.48C294.933 37.6267 295.933 36.5867 296.92 35.36C297.907 34.1333 298.627 33.0133 299.08 32L301.28 33.52C302.347 34 302.88 34.3733 302.88 34.64C302.88 34.7467 302.72 34.8267 302.4 34.88L301.68 34.96ZM309.68 36.36C310.747 36.8667 311.28 37.2533 311.28 37.52C311.28 37.6533 311.147 37.72 310.88 37.72H310.24C309.12 38.7867 307.533 39.84 305.48 40.88C303.453 41.92 301.427 42.7333 299.4 43.32L299.04 42.76C300.187 42.12 301.213 41.4533 302.12 40.76C303.267 39.9333 304.333 38.9733 305.32 37.88C306.333 36.76 307.053 35.72 307.48 34.76L309.68 36.36ZM312.52 35.44C314.28 35.8933 315.72 36.48 316.84 37.2C317.96 37.8933 318.773 38.6133 319.28 39.36C319.787 40.1067 320.04 40.8133 320.04 41.48C320.04 41.9867 319.907 42.4 319.64 42.72C319.4 43.04 319.067 43.2 318.64 43.2C318.347 43.2 317.987 43.0933 317.56 42.88C317.187 41.76 316.467 40.5467 315.4 39.24C314.36 37.9333 313.267 36.7867 312.12 35.8L312.52 35.44ZM344.6 41C341.933 41 339.653 40.4933 337.76 39.48C335.893 38.4667 334.96 36.6933 334.96 34.16C334.96 32.1333 335.507 30.4267 336.6 29.04C337.72 27.6267 339.16 26.36 340.92 25.24C339.88 24.44 339.133 23.5733 338.68 22.64C338.253 21.7067 338.04 20.5333 338.04 19.12C338.04 18.0533 338.12 17.0933 338.28 16.24C338.467 15.36 338.573 14.8267 338.6 14.64C338.733 14.08 338.84 13.52 338.92 12.96C339.027 12.3733 339.08 11.8267 339.08 11.32C339.08 10.1733 338.773 9.25333 338.16 8.56C337.973 8.37333 337.787 8.21333 337.6 8.08C337.44 7.92 337.36 7.81333 337.36 7.76C337.36 7.57333 337.56 7.48 337.96 7.48C338.227 7.48 338.547 7.52 338.92 7.6C339.293 7.68 339.613 7.78666 339.88 7.92C340.707 8.24 341.333 8.66667 341.76 9.2C342.187 9.73333 342.4 10.4267 342.4 11.28C342.4 11.7333 342.333 12.16 342.2 12.56C342.093 12.96 341.947 13.3733 341.76 13.8C341.6 14.2 341.48 14.52 341.4 14.76C341.32 14.9733 341.16 15.36 340.92 15.92C340.707 16.4533 340.533 17.0133 340.4 17.6C340.293 18.1867 340.24 18.8133 340.24 19.48C340.24 20.52 340.467 21.5067 340.92 22.44C341.4 23.3467 341.933 23.8 342.52 23.8C342.84 23.8 343.2 23.72 343.6 23.56C344 23.4 344.52 23.16 345.16 22.84C345.32 22.76 345.667 22.6 346.2 22.36C346.76 22.12 347.2 22 347.52 22C348.16 22 348.747 22.1733 349.28 22.52C349.84 22.8667 350.12 23.2533 350.12 23.68C350.12 24.24 349.88 24.64 349.4 24.88C348.92 25.0933 348.133 25.2933 347.04 25.48C344.613 25.88 342.373 26.7067 340.32 27.96C338.267 29.1867 337.24 30.9867 337.24 33.36C337.24 34.72 337.707 35.8267 338.64 36.68C339.573 37.5333 340.987 37.96 342.88 37.96C343.76 37.96 344.92 37.8267 346.36 37.56C347.56 37.32 348.493 37.2 349.16 37.2C350.84 37.2 351.68 37.7333 351.68 38.8C351.68 39.5733 351 40.1333 349.64 40.48C348.307 40.8267 346.627 41 344.6 41ZM371.2 41.52C370.293 40 369.44 38.7067 368.64 37.64C367.867 36.5733 366.973 35.6267 365.96 34.8C365.853 34.72 365.707 34.6133 365.52 34.48C365.333 34.3467 365.24 34.24 365.24 34.16C365.24 34.0267 365.347 33.96 365.56 33.96C365.747 33.96 365.987 34 366.28 34.08C367.16 34.2933 368.293 34.7333 369.68 35.4C371.067 36.0667 372.28 36.88 373.32 37.84C374.387 38.7733 374.92 39.7467 374.92 40.76C374.92 41.48 374.72 42.0267 374.32 42.4C373.947 42.7733 373.533 42.96 373.08 42.96C372.387 42.96 371.76 42.48 371.2 41.52ZM34.88 75.08C35.0133 74.92 35.1467 74.7467 35.28 74.56C35.44 74.3467 35.5867 74.16 35.72 74C35.88 73.84 36.0133 73.76 36.12 73.76C36.28 73.76 36.6667 73.9867 37.28 74.44C37.8933 74.8933 38.4667 75.3867 39 75.92C39.5333 76.4267 39.8 76.7733 39.8 76.96C39.7733 77.3867 39.44 77.6 38.8 77.6H15.8C13.32 81.04 10.4 83.7733 7.04 85.8L6.56 85.32C8.29333 83.6667 9.92 81.5867 11.44 79.08C12.1333 77.9333 12.8133 76.56 13.48 74.96C14.1467 73.3333 14.5733 71.9733 14.76 70.88C16.4667 71.52 17.64 72.0133 18.28 72.36C18.9467 72.68 19.28 72.9333 19.28 73.12C19.28 73.2 19.16 73.2933 18.92 73.4L18.2 73.68C17.88 74.32 17.3467 75.2267 16.6 76.4H33.96L34.88 75.08ZM36.84 89.68C36.92 89.5733 37.04 89.4 37.2 89.16C37.36 88.8933 37.4933 88.7067 37.6 88.6C37.7333 88.4667 37.8533 88.4 37.96 88.4C38.12 88.4 38.4533 88.6267 38.96 89.08C39.4933 89.5067 39.9733 89.9733 40.4 90.48C40.8533 90.96 41.08 91.2933 41.08 91.48C40.9733 91.9067 40.6533 92.12 40.12 92.12H34.2C33.9333 95 33.56 97.6267 33.08 100H35.48L36.24 98.76C36.3467 98.6267 36.4667 98.44 36.6 98.2C36.76 97.96 36.8933 97.7867 37 97.68C37.1067 97.5467 37.2133 97.48 37.32 97.48C37.48 97.48 37.8133 97.6933 38.32 98.12C38.8533 98.5467 39.3467 99.0133 39.8 99.52C40.2533 100 40.48 100.333 40.48 100.52C40.3733 100.947 40.0533 101.16 39.52 101.16H32.84C32.1733 103.88 31.3867 105.707 30.48 106.64C29.8667 107.28 29.1467 107.72 28.32 107.96C27.52 108.227 26.5733 108.36 25.48 108.36C25.48 107.827 25.4267 107.4 25.32 107.08C25.24 106.787 25.0667 106.533 24.8 106.32C24.5067 106.053 24.0133 105.8 23.32 105.56C22.6533 105.347 21.9067 105.16 21.08 105L21.12 104.32C23.8133 104.64 25.6133 104.8 26.52 104.8C26.92 104.8 27.2267 104.76 27.44 104.68C27.68 104.6 27.9467 104.44 28.24 104.2C28.7733 103.693 29.24 102.68 29.64 101.16H12.72L12.16 103.4C11.8133 103.64 11.3867 103.76 10.88 103.76C10.4267 103.76 9.8 103.64 9 103.4C9.98667 99.6667 10.9067 95.9067 11.76 92.12H9.72C8.6 92.1467 7.4 92.3333 6.12 92.68L5.08 90.64C6.38667 90.8 7.96 90.9067 9.8 90.96H12L12.6 88.24C12.8933 86.9067 13.1333 85.5333 13.32 84.12C13.5067 82.7067 13.6 81.4667 13.6 80.4L17.48 82.16H31.44L32.24 81.2C32.3467 81.0667 32.5067 80.8667 32.72 80.6C32.96 80.3333 33.16 80.2 33.32 80.2C33.48 80.2 33.8133 80.4133 34.32 80.84C34.8533 81.24 35.3467 81.68 35.8 82.16C36.2533 82.6133 36.48 82.9333 36.48 83.12C36.1867 83.4667 35.64 83.6933 34.84 83.8C34.7333 85.8533 34.56 88.24 34.32 90.96H36L36.84 89.68ZM21.4 90.96L22.56 83.32H16.64C16.16 85.8 15.6267 88.3467 15.04 90.96H21.4ZM31.28 90.96C31.52 88.1867 31.7067 85.64 31.84 83.32H25.56C25.4 84.7067 25.0133 87.2533 24.4 90.96H31.28ZM19.72 100C20.2267 97.4667 20.7067 94.84 21.16 92.12H14.8L14.44 93.76C13.7467 96.7733 13.2533 98.8533 12.96 100H19.72ZM24.2 92.12C24.1467 92.4133 24.0533 92.96 23.92 93.76C23.76 94.56 23.56 95.6133 23.32 96.92C23.08 98.2 22.88 99.2267 22.72 100H29.96C30.4667 97.6267 30.8667 95 31.16 92.12H24.2ZM54.52 105.08C54.5467 105.4 54.56 105.68 54.56 105.92C54.5867 106.187 54.6133 106.373 54.64 106.48C54.5867 106.8 54.2933 107.12 53.76 107.44C53.2267 107.76 52.6267 107.92 51.96 107.92C51.6667 107.92 51.4133 107.84 51.2 107.68C51.0133 107.52 50.92 107.333 50.92 107.12C51.0267 105.547 51.12 104.027 51.2 102.56C51.28 101.067 51.3333 99.12 51.36 96.72V81.8C51.36 78.44 51.1867 75.7067 50.84 73.6L54.84 75.4H71.28L72.04 74.4C72.1467 74.2667 72.3067 74.0667 72.52 73.8C72.76 73.5333 72.96 73.4 73.12 73.4C73.28 73.4 73.64 73.6133 74.2 74.04C74.76 74.44 75.28 74.88 75.76 75.36C76.2667 75.8133 76.52 76.1333 76.52 76.32C76.2533 76.72 75.7333 77 74.96 77.16V96.96C75.0133 100.267 75.12 103.4 75.28 106.36C75.0667 106.627 74.6267 106.907 73.96 107.2C73.2933 107.52 72.6933 107.68 72.16 107.68C71.7333 107.68 71.52 107.413 71.52 106.88C71.52 106.88 71.5733 106.4 71.68 105.44V104.28H54.52V105.08ZM71.68 89V76.56H54.52V89H71.68ZM54.52 90.16V103.12H71.68V90.16H54.52ZM103.68 77.04C105.973 77.04 108.253 77.5067 110.52 78.44C112.787 79.3733 114.68 80.8667 116.2 82.92C117.72 84.9733 118.48 87.5867 118.48 90.76C118.48 94.6267 117.32 97.6667 115 99.88C112.68 102.067 110.04 103.56 107.08 104.36C104.147 105.133 101.48 105.52 99.08 105.52C98.8933 105.52 98.72 105.493 98.56 105.44C98.4 105.413 98.32 105.373 98.32 105.32C98.32 105.213 98.4933 105.107 98.84 105C99.1867 104.92 99.5333 104.853 99.88 104.8C104.36 104.053 108.013 102.52 110.84 100.2C113.693 97.8533 115.12 94.64 115.12 90.56C115.12 87.6 114.493 85.2133 113.24 83.4C111.987 81.56 110.453 80.2533 108.64 79.48C106.827 78.7067 105.027 78.32 103.24 78.32C102.813 78.32 102.507 78.3333 102.32 78.36C102.64 79.0533 102.907 79.9067 103.12 80.92C103.333 81.9333 103.44 82.8667 103.44 83.72C103.44 84.7333 103.32 85.8667 103.08 87.12C102.84 88.3467 102.48 89.5733 102 90.8C101.147 93.0667 100.147 95.0533 99 96.76C97.88 98.4667 96.7867 99.7733 95.72 100.68C94.6533 101.587 93.7867 102.04 93.12 102.04C92.1333 102.04 91.2 101.547 90.32 100.56C89.4667 99.5733 88.7733 98.2933 88.24 96.72C87.7333 95.1467 87.48 93.5467 87.48 91.92C87.48 88.9867 88.2533 86.3867 89.8 84.12C91.3733 81.8533 93.4 80.1067 95.88 78.88C98.3867 77.6533 100.987 77.04 103.68 77.04ZM102.08 81.44C102.08 80.3733 101.933 79.36 101.64 78.4C99.56 78.6667 97.64 79.3867 95.88 80.56C94.12 81.7333 92.72 83.2533 91.68 85.12C90.64 86.96 90.12 89 90.12 91.24C90.12 92.76 90.3067 94.0533 90.68 95.12C91.08 96.16 91.52 96.9333 92 97.44C92.5067 97.9467 92.9067 98.2 93.2 98.2C93.84 98.2 94.6 97.72 95.48 96.76C96.3867 95.8 97.2533 94.68 98.08 93.4C99.52 91.16 100.547 89.1067 101.16 87.24C101.773 85.3467 102.08 83.4133 102.08 81.44ZM150.32 82.52C150.4 82.4133 150.507 82.2667 150.64 82.08C150.8 81.8933 150.92 81.76 151 81.68C151.107 81.6 151.213 81.56 151.32 81.56C151.48 81.56 151.813 81.76 152.32 82.16C152.827 82.5333 153.293 82.9467 153.72 83.4C154.173 83.8267 154.4 84.1333 154.4 84.32C154.107 84.6667 153.667 84.8933 153.08 85V88.32C153.133 90.9867 153.213 93.12 153.32 94.72C153.16 94.9867 152.773 95.28 152.16 95.6C151.547 95.8933 150.973 96.04 150.44 96.04H149.96V94.84H143.2C144.293 97.0267 145.88 98.8667 147.96 100.36L148.12 100.24C149.213 99.3867 150.28 98.4267 151.32 97.36C152.387 96.2667 153.2 95.2667 153.76 94.36C156.16 96.1733 157.36 97.24 157.36 97.56C157.36 97.6933 157.24 97.76 157 97.76H156.28C155.347 98.2667 154.213 98.8133 152.88 99.4C151.547 99.9867 150.227 100.507 148.92 100.96C151.88 102.827 155.773 104.133 160.6 104.88L160.56 105.32C159.92 105.48 159.373 105.813 158.92 106.32C158.493 106.827 158.173 107.467 157.96 108.24C153.933 107.12 150.64 105.52 148.08 103.44C145.52 101.333 143.6 98.4667 142.32 94.84H136.28V103.16L145.6 101.68L145.72 102.32C141.213 103.947 136.067 105.613 130.28 107.32C130.093 107.8 129.8 108.107 129.4 108.24L127.32 104.36C128.44 104.253 130.427 104 133.28 103.6V82.6C130.667 84.1733 128.187 85.4267 125.84 86.36L125.56 85.8C127.48 84.7867 129.453 83.4933 131.48 81.92C133.533 80.32 135.387 78.6533 137.04 76.92C139.093 74.7333 140.347 72.68 140.8 70.76L146.36 72.4C146.307 72.64 146.147 72.8267 145.88 72.96C145.613 73.0667 145.227 73.1467 144.72 73.2C146.373 74.9067 148.64 76.48 151.52 77.92C154.427 79.36 157.547 80.5733 160.88 81.56L160.8 82.16C160.16 82.32 159.613 82.6667 159.16 83.2C158.707 83.7333 158.413 84.32 158.28 84.96C155.267 83.68 152.48 82.04 149.92 80.04C147.387 78.04 145.44 75.9067 144.08 73.64C142.933 75.0533 141.467 76.52 139.68 78.04C137.893 79.5333 135.947 80.9333 133.84 82.24L136.48 83.44H141.52C141.52 81.36 141.413 79.6933 141.2 78.44C144.053 79.1867 145.48 79.7333 145.48 80.08C145.48 80.1867 145.387 80.3067 145.2 80.44L144.6 80.84V83.44H149.6L150.32 82.52ZM149.96 88.48V84.6H136.28V88.48H149.96ZM136.28 89.64V93.64H149.96V89.64H136.28ZM192.6 88.92C192.707 88.7867 192.853 88.5867 193.04 88.32C193.253 88.0533 193.44 87.92 193.6 87.92C193.76 87.92 194.107 88.1333 194.64 88.56C195.173 88.96 195.667 89.4 196.12 89.88C196.6 90.3333 196.84 90.6533 196.84 90.84C196.493 91.1867 195.973 91.44 195.28 91.6V94.8H195.96L196.8 93.48C196.88 93.3467 197 93.16 197.16 92.92C197.347 92.6533 197.493 92.4667 197.6 92.36C197.707 92.2267 197.813 92.16 197.92 92.16C198.08 92.16 198.427 92.3867 198.96 92.84C199.493 93.2667 199.987 93.7333 200.44 94.24C200.893 94.7467 201.12 95.0933 201.12 95.28C201.013 95.7067 200.68 95.92 200.12 95.92H195.28V97.96L195.32 99.2C195.347 100.133 195.4 101.013 195.48 101.84C195.347 102.08 194.973 102.347 194.36 102.64C193.773 102.907 193.227 103.04 192.72 103.04C192.507 103.04 192.347 102.96 192.24 102.8C192.16 102.64 192.12 102.453 192.12 102.24C192.147 102.213 192.2 101.987 192.28 101.56V100.8H184.44V104C184.44 104.907 184.32 105.627 184.08 106.16C183.867 106.72 183.4 107.173 182.68 107.52C181.987 107.893 180.947 108.147 179.56 108.28C179.4 107.293 179.04 106.587 178.48 106.16C177.68 105.6 176.387 105.213 174.6 105V104.36C177.827 104.6 179.733 104.72 180.32 104.72C180.72 104.72 180.987 104.653 181.12 104.52C181.28 104.387 181.36 104.16 181.36 103.84V100.8H176.24C174.347 100.827 172.347 101.013 170.24 101.36L169.2 99.32C170.667 99.48 172.44 99.5867 174.52 99.64H181.36V95.92H172.12C170.227 95.9467 168.227 96.1333 166.12 96.48L165.04 94.48C166.507 94.64 168.28 94.7467 170.36 94.8H181.36V91.08H176.48C174.587 91.1067 172.587 91.2933 170.48 91.64L169.44 89.6C170.907 89.76 172.68 89.8667 174.76 89.92H181.36V86.24H173.68V87.4C173.68 87.56 173.387 87.76 172.8 88C172.213 88.24 171.627 88.36 171.04 88.36C170.853 88.36 170.707 88.28 170.6 88.12C170.493 87.96 170.44 87.7733 170.44 87.56C170.52 87 170.573 86.44 170.6 85.88C170.6 85.56 170.613 85.2933 170.64 85.08V83.4C170.64 81.24 170.533 79.5333 170.32 78.28L173.92 79.92H181.36V76.76H172.16C170.267 76.7867 168.267 76.9733 166.16 77.32L165.12 75.24C166.587 75.4 168.36 75.5067 170.44 75.56H181.36C181.36 73.7467 181.267 72.2667 181.08 71.12C184.013 71.9467 185.48 72.5333 185.48 72.88C185.48 73.0133 185.36 73.1467 185.12 73.28L184.44 73.72V75.56H194.56L195.52 74.24C195.6 74.1333 195.733 73.9467 195.92 73.68C196.133 73.4133 196.307 73.2133 196.44 73.08C196.573 72.9467 196.693 72.88 196.8 72.88C196.96 72.88 197.347 73.12 197.96 73.6C198.6 74.0533 199.187 74.5467 199.72 75.08C200.28 75.5867 200.56 75.9333 200.56 76.12C200.453 76.5467 200.12 76.76 199.56 76.76H184.44V79.92H191.84L192.52 79.04C192.6 78.9333 192.747 78.76 192.96 78.52C193.173 78.28 193.36 78.16 193.52 78.16C193.68 78.16 194.04 78.3467 194.6 78.72C195.16 79.0933 195.68 79.4933 196.16 79.92C196.64 80.3467 196.88 80.6533 196.88 80.84C196.533 81.1867 196.013 81.44 195.32 81.6V83.32L195.4 84.72C195.4 85.12 195.427 85.72 195.48 86.52C195.373 86.7333 195 86.9733 194.36 87.24C193.747 87.5067 193.2 87.64 192.72 87.64H192.2V86.24H184.44V89.92H191.92L192.6 88.92ZM173.68 81.08V85.08H181.36V81.08H173.68ZM192.2 85.08V81.08H184.44V85.08H192.2ZM192.28 91.08H184.44V94.8H192.28V91.08ZM184.44 99.64H192.28V95.92H184.44V99.64ZM233.36 82C234.32 82 235.16 82.3067 235.88 82.92C236.6 83.5333 236.96 84.3333 236.96 85.32C236.96 86.6 236.4 87.68 235.28 88.56C234.187 89.4133 232.733 90.2133 230.92 90.96L229.08 91.64C228.627 91.8267 227.893 92.1067 226.88 92.48C225.867 92.8533 224.987 93.2 224.24 93.52C224.16 94.2133 224.147 95.0133 224.2 95.92C224.2 96.16 224.2 96.64 224.2 97.36C224.227 98.08 224.227 98.5467 224.2 98.76C224.173 99.24 223.987 99.6667 223.64 100.04C223.32 100.413 222.947 100.6 222.52 100.6C222.12 100.6 221.76 100.427 221.44 100.08C221.147 99.7333 221 99.3333 221 98.88C221 98.5333 221.067 97.8 221.2 96.68L221.36 94.88C218.16 96.5867 216.56 98.4 216.56 100.32C216.56 102.267 218.467 103.24 222.28 103.24C223.053 103.24 223.747 103.187 224.36 103.08C225 102.973 225.693 102.827 226.44 102.64C226.573 102.613 226.907 102.547 227.44 102.44C227.973 102.307 228.48 102.24 228.96 102.24C229.547 102.24 230 102.36 230.32 102.6C230.64 102.84 230.8 103.173 230.8 103.6C230.8 104.507 230.027 105.147 228.48 105.52C226.96 105.893 225.32 106.08 223.56 106.08C220.467 106.08 218.267 105.6 216.96 104.64C215.68 103.653 215.04 102.387 215.04 100.84C215.04 99.3733 215.6 98.0667 216.72 96.92C217.84 95.7733 219.413 94.64 221.44 93.52C221.467 93.2267 221.48 92.8133 221.48 92.28C221.48 90.8667 221.253 89.8 220.8 89.08C220.347 88.36 219.813 88 219.2 88C218.347 88 217.493 88.48 216.64 89.44C215.813 90.3733 214.92 91.56 213.96 93L213.52 93.68C213.44 93.7867 213.24 94.08 212.92 94.56C212.6 95.04 212.293 95.4133 212 95.68C211.707 95.9467 211.44 96.08 211.2 96.08C210.693 96.08 210.293 95.88 210 95.48C209.733 95.08 209.6 94.5867 209.6 94C209.6 93.2267 209.933 92.52 210.6 91.88L211.2 91.32C211.947 90.6267 212.587 90 213.12 89.44C213.68 88.8533 214.2 88.2 214.68 87.48C215.96 85.5067 217.027 83.24 217.88 80.68C216.68 80.92 215.667 81.04 214.84 81.04C213.933 81.04 213.147 80.8667 212.48 80.52C211.84 80.1467 211.067 79.56 210.16 78.76C210.053 78.6533 210 78.56 210 78.48C210 78.4 210.067 78.36 210.2 78.36C210.307 78.36 210.493 78.4 210.76 78.48C211.72 78.8267 212.693 79 213.68 79C214.213 79 214.907 78.9467 215.76 78.84C216.64 78.7067 217.56 78.48 218.52 78.16C218.68 77.3867 218.76 76.7333 218.76 76.2C218.76 75.08 218.333 74.2267 217.48 73.64C217.267 73.5067 217.16 73.3733 217.16 73.24C217.187 73 217.267 72.8133 217.4 72.68C217.533 72.52 217.72 72.44 217.96 72.44C218.333 72.44 218.853 72.52 219.52 72.68C220.213 72.84 220.667 73.04 220.88 73.28C221.067 73.4933 221.16 73.8267 221.16 74.28C221.16 74.44 221.133 74.7067 221.08 75.08C221.587 75.3467 222.16 75.48 222.8 75.48C223.147 75.48 223.44 75.44 223.68 75.36C224 75.3067 224.28 75.28 224.52 75.28C225.16 75.28 225.48 75.5333 225.48 76.04C225.48 76.4933 225.253 76.96 224.8 77.44C224.373 77.92 223.813 78.36 223.12 78.76C222.08 79.32 220.947 79.7867 219.72 80.16C218.893 82.6933 217.96 85.0667 216.92 87.28C217.667 86.88 218.373 86.68 219.04 86.68C221.467 86.68 222.987 87.96 223.6 90.52C224.027 89.4267 224.507 88.48 225.04 87.68C225.573 86.8533 226.213 86.04 226.96 85.24C227.76 84.3867 228.733 83.64 229.88 83C231.053 82.3333 232.213 82 233.36 82ZM220.56 77.32C221.067 77.0267 221.36 76.8533 221.44 76.8C221.627 76.6933 221.72 76.5867 221.72 76.48C221.72 76.3733 221.613 76.2533 221.4 76.12L220.96 75.84L220.56 77.32ZM230 89.08C231.227 88.36 232.2 87.5867 232.92 86.76C233.667 85.9067 234.04 85.1733 234.04 84.56C234.04 83.7333 233.52 83.32 232.48 83.32C231.787 83.32 231 83.56 230.12 84.04C229.24 84.4933 228.413 85.1333 227.64 85.96C226.947 86.7067 226.307 87.64 225.72 88.76C225.133 89.8533 224.72 90.92 224.48 91.96L224.96 91.72L225.84 91.28C227.52 90.4533 228.907 89.72 230 89.08ZM256.2 72.24C259.027 72.6667 261.32 73.2933 263.08 74.12C264.867 74.9467 266.133 75.8267 266.88 76.76C267.653 77.6667 268.04 78.5333 268.04 79.36C268.04 79.8667 267.893 80.2933 267.6 80.64C267.307 80.9867 266.933 81.16 266.48 81.16C266.133 81.16 265.773 81.0533 265.4 80.84C264.707 79.5867 263.533 78.2133 261.88 76.72C260.227 75.2 258.267 73.8933 256 72.8L256.08 72.52L256.2 72.24ZM255.56 88.4C255.56 85.04 255.387 82.3067 255.04 80.2C256.747 80.6533 257.92 81.0267 258.56 81.32C259.227 81.5867 259.56 81.8133 259.56 82C259.56 82.1067 259.467 82.2267 259.28 82.36L258.64 82.8V102.48C258.64 102.96 258.787 103.293 259.08 103.48C259.373 103.667 259.973 103.76 260.88 103.76H265.64C267.88 103.76 269.36 103.72 270.08 103.64C270.373 103.613 270.587 103.547 270.72 103.44C270.88 103.333 271.027 103.173 271.16 102.96C271.533 102.133 272.04 99.88 272.68 96.2H273.16L273.28 103.24C273.813 103.427 274.173 103.64 274.36 103.88C274.573 104.093 274.68 104.36 274.68 104.68C274.68 105.267 274.427 105.707 273.92 106C273.44 106.32 272.547 106.547 271.24 106.68C269.933 106.813 268.013 106.88 265.48 106.88H260.44C259.133 106.88 258.133 106.773 257.44 106.56C256.747 106.373 256.253 106.027 255.96 105.52C255.693 105.04 255.56 104.307 255.56 103.32V88.4ZM272.56 83.88C275.467 85.4533 277.573 87.2267 278.88 89.2C280.213 91.1733 280.88 93.0533 280.88 94.84C280.88 95.8533 280.68 96.6933 280.28 97.36C279.907 98.0267 279.453 98.36 278.92 98.36C278.387 98.36 277.92 98.08 277.52 97.52C277.467 95.3067 277.013 92.9733 276.16 90.52C275.333 88.0667 274.027 85.9867 272.24 84.28L272.56 83.88ZM250.72 84.32C251.253 86.2933 251.52 88.1733 251.52 89.96C251.52 91.7733 251.267 93.3733 250.76 94.76C250.253 96.12 249.64 97.2 248.92 98C248.547 98.4 248.133 98.72 247.68 98.96C247.253 99.1733 246.84 99.28 246.44 99.28C245.907 99.28 245.507 99.1067 245.24 98.76C245.053 98.4933 244.96 98.1867 244.96 97.84C244.96 97.1733 245.267 96.5333 245.88 95.92C247.053 94.9867 248.053 93.4533 248.88 91.32C249.707 89.16 250.107 86.8267 250.08 84.32H250.72ZM303.2 83.04C306.4 83.04 308 85.16 308 89.4C308 90.4667 307.84 91.8933 307.52 93.68C307.227 95.4667 306.76 97.2267 306.12 98.96C305.48 100.693 304.707 102.027 303.8 102.96C303.347 103.44 302.853 103.84 302.32 104.16C301.813 104.453 301.373 104.6 301 104.6C300.227 104.6 299.613 103.96 299.16 102.68C298.813 101.667 298.16 100.533 297.2 99.28C296.933 98.9067 296.8 98.6667 296.8 98.56C296.8 98.5067 296.84 98.48 296.92 98.48C297.027 98.48 297.28 98.6133 297.68 98.88C298.08 99.12 298.387 99.2933 298.6 99.4C298.787 99.5067 299.04 99.6667 299.36 99.88C299.707 100.093 300 100.253 300.24 100.36C300.48 100.467 300.707 100.52 300.92 100.52C301.8 100.52 302.587 99.7867 303.28 98.32C304 96.8533 304.547 95.16 304.92 93.24C305.32 91.2933 305.52 89.72 305.52 88.52C305.52 87.24 305.333 86.28 304.96 85.64C304.587 84.9733 303.973 84.64 303.12 84.64C302 84.64 300.453 85.12 298.48 86.08C297.173 91.8667 295.187 96.9067 292.52 101.2C292.147 101.84 291.733 102.347 291.28 102.72C290.827 103.093 290.4 103.28 290 103.28C289.627 103.28 289.32 103.16 289.08 102.92C288.84 102.653 288.72 102.307 288.72 101.88C288.72 101.027 289.213 99.9733 290.2 98.72C292.947 95.0933 294.84 91.2933 295.88 87.32C294.653 87.9067 293.64 88.36 292.84 88.68C292.067 89 291.467 89.16 291.04 89.16C290.48 89.16 289.907 88.9733 289.32 88.6C288.733 88.2 288.24 87.7067 287.84 87.12C287.467 86.5333 287.28 85.9467 287.28 85.36C287.28 85.0933 287.347 84.96 287.48 84.96C287.587 84.96 287.747 85.0267 287.96 85.16C288.173 85.2667 288.333 85.3467 288.44 85.4C289.187 85.7467 290.013 85.92 290.92 85.92C291.907 85.8933 292.813 85.7867 293.64 85.6C294.493 85.4133 295.44 85.12 296.48 84.72C296.827 83.04 297 81.6267 297 80.48C297 79.0933 296.72 78.0667 296.16 77.4C295.92 77.08 295.613 76.76 295.24 76.44C294.893 76.12 294.72 75.9067 294.72 75.8C294.72 75.64 294.853 75.52 295.12 75.44C295.387 75.3333 295.733 75.28 296.16 75.28C296.667 75.28 297.2 75.3467 297.76 75.48C298.32 75.6133 298.747 75.8 299.04 76.04C299.733 76.4667 300.08 77.0533 300.08 77.8C300.08 78.12 299.973 78.7333 299.76 79.64C299.6 80.12 299.48 80.6267 299.4 81.16L298.96 83.84C300.507 83.3067 301.92 83.04 303.2 83.04ZM311.52 82.92C313.707 82.9733 315.493 83.3733 316.88 84.12C318.293 84.8667 319.32 85.7467 319.96 86.76C320.6 87.7467 320.92 88.68 320.92 89.56C320.92 90.2267 320.773 90.8267 320.48 91.36C320.213 91.8667 319.867 92.2667 319.44 92.56C319.013 92.8533 318.6 93 318.2 93C317.96 93 317.733 92.9467 317.52 92.84C317.307 92.7067 317.04 92.5333 316.72 92.32C316.027 91.7867 314.64 91.4 312.56 91.16C312.187 91.1067 312 91.0267 312 90.92C312 90.8133 312.2 90.7333 312.6 90.68L314.32 90.48L315.28 90.36C316.08 90.2 316.613 90.04 316.88 89.88C317.173 89.72 317.32 89.4267 317.32 89C317.32 87.7467 316.72 86.6 315.52 85.56C314.32 84.4933 312.947 83.7467 311.4 83.32C311.16 83.24 311.04 83.16 311.04 83.08C311.04 82.9733 311.2 82.92 311.52 82.92ZM337.2 106.52C336.853 106.52 336.68 106.44 336.68 106.28C336.68 106.147 336.733 106.053 336.84 106C336.973 105.947 337.107 105.907 337.24 105.88C337.4 105.853 337.507 105.84 337.56 105.84C341.773 105.147 344.947 103.987 347.08 102.36C349.24 100.707 350.32 98.6267 350.32 96.12C350.32 94.68 349.987 93.5333 349.32 92.68C348.68 91.8 347.76 91.36 346.56 91.36C345.307 91.36 344.2 91.8533 343.24 92.84C342.28 93.8 341.213 95.2667 340.04 97.24C339.8 97.6933 339.44 98.08 338.96 98.4C338.48 98.72 338.067 98.88 337.72 98.88C336.44 98.88 335.453 98.4933 334.76 97.72C334.093 96.9467 333.76 95.84 333.76 94.4C333.76 93.5467 333.813 92.28 333.92 90.6C334.053 88.92 334.147 87.7333 334.2 87.04C334.36 85.5467 334.44 84.5067 334.44 83.92C334.44 83.52 334.4 83.1333 334.32 82.76C334.267 82.3867 334.24 82.1067 334.24 81.92C334.24 81.36 334.4 80.8933 334.72 80.52C335.04 80.12 335.547 79.6667 336.24 79.16C336.8 78.7333 337.8 78.1867 339.24 77.52C339.987 77.2 340.507 76.96 340.8 76.8C341.12 76.6133 341.28 76.4133 341.28 76.2C341.28 75.9067 341.04 75.5467 340.56 75.12C340.08 74.6933 339.533 74.3067 338.92 73.96C338.84 73.9067 338.72 73.8533 338.56 73.8C338.427 73.72 338.36 73.64 338.36 73.56C338.36 73.48 338.52 73.4267 338.84 73.4C339.16 73.3467 339.427 73.32 339.64 73.32C340.787 73.32 341.8 73.5467 342.68 74C343.56 74.4267 344.32 75.1867 344.96 76.28C345.227 76.7333 345.36 77.2 345.36 77.68C345.36 78.2133 345.2 78.6667 344.88 79.04C344.56 79.4133 344.2 79.6 343.8 79.6C343.587 79.6 343.387 79.56 343.2 79.48C343.013 79.3733 342.827 79.2533 342.64 79.12C342.267 78.88 341.933 78.6933 341.64 78.56C341.347 78.4267 340.973 78.36 340.52 78.36C339.453 78.36 338.333 78.7467 337.16 79.52C336.867 79.68 336.64 79.92 336.48 80.24C336.32 80.5333 336.24 80.8133 336.24 81.08C336.24 81.2933 336.28 81.5067 336.36 81.72C336.467 81.9067 336.533 82.0267 336.56 82.08C336.88 82.6667 337.04 83.2133 337.04 83.72C337.04 84.0667 336.947 84.9467 336.76 86.36C336.387 88.76 336.2 90.56 336.2 91.76C336.2 92.48 336.293 93.1733 336.48 93.84C336.693 94.48 336.973 94.8 337.32 94.8C337.693 94.8 338.48 94.36 339.68 93.48C341.04 92.4933 342.293 91.7067 343.44 91.12C344.613 90.5333 345.853 90.24 347.16 90.24C348.333 90.24 349.427 90.56 350.44 91.2C351.453 91.8133 352.253 92.6533 352.84 93.72C353.427 94.76 353.72 95.88 353.72 97.08C353.72 98.3067 353.413 99.4933 352.8 100.64C352.187 101.76 350.72 102.867 348.4 103.96C346.107 105.053 342.667 105.88 338.08 106.44C337.733 106.493 337.44 106.52 337.2 106.52ZM386.92 75.12C387.027 74.9867 387.173 74.7867 387.36 74.52C387.573 74.2533 387.76 74.12 387.92 74.12C388.08 74.12 388.427 74.32 388.96 74.72C389.493 75.12 389.987 75.56 390.44 76.04C390.92 76.4933 391.16 76.8133 391.16 77C390.813 77.4 390.28 77.6533 389.56 77.76V81.92C389.64 85.4133 389.733 88.0933 389.84 89.96C389.68 90.2 389.293 90.4533 388.68 90.72C388.093 90.96 387.56 91.08 387.08 91.08H386.56V89.4H379.44V90.6C379.44 90.76 379.173 90.96 378.64 91.2C378.107 91.44 377.56 91.56 377 91.56C376.787 91.56 376.613 91.48 376.48 91.32C376.347 91.16 376.28 90.9733 376.28 90.76C376.413 89.5067 376.507 87.8133 376.56 85.68V82.72C376.56 79.36 376.387 76.6267 376.04 74.52L379.64 76.08H380.84C381.213 73.9467 381.347 72.24 381.24 70.96C384.253 71.4667 385.76 71.8933 385.76 72.24C385.76 72.3467 385.64 72.4667 385.4 72.6L384.72 72.96C384.613 73.12 384.053 73.84 383.04 75.12C382.667 75.5467 382.4 75.8667 382.24 76.08H386.2L386.92 75.12ZM397.8 75.2C399 75.8667 399.6 76.32 399.6 76.56C399.6 76.6667 399.48 76.72 399.24 76.72H398.64C397.893 77.3067 396.84 78.04 395.48 78.92C394.12 79.8 393.293 80.3333 393 80.52L391 81.8L390.56 81.28L391.16 80.48C391.987 79.44 392.787 78.2667 393.56 76.96C394.36 75.6267 394.973 74.44 395.4 73.4L397.8 75.2ZM367.16 74.32C368.867 74.72 370.253 75.2533 371.32 75.92C372.413 76.56 373.2 77.24 373.68 77.96C374.187 78.6533 374.44 79.32 374.44 79.96C374.44 80.4667 374.293 80.8933 374 81.24C373.733 81.56 373.373 81.72 372.92 81.72C372.547 81.72 372.147 81.5867 371.72 81.32C371.373 80.28 370.72 79.1333 369.76 77.88C368.827 76.6267 367.84 75.5467 366.8 74.64L367.16 74.32ZM386.56 82.08V77.24H379.44V82.08H386.56ZM379.44 83.24V88.24H386.56V83.24H379.44ZM390.32 83.32C392.587 83.5867 394.453 84.0533 395.92 84.72C397.413 85.3867 398.493 86.12 399.16 86.92C399.827 87.6933 400.16 88.44 400.16 89.16C400.16 89.6133 400.027 89.9867 399.76 90.28C399.493 90.5467 399.133 90.68 398.68 90.68C398.387 90.68 398.093 90.6267 397.8 90.52C397.107 89.4267 396 88.24 394.48 86.96C392.96 85.68 391.48 84.6133 390.04 83.76L390.32 83.32ZM365.52 87.96C366.48 87.6133 367.96 87.0133 369.96 86.16C371.987 85.3067 374.04 84.3867 376.12 83.4L376.32 83.92C374.293 85.76 371.72 87.9467 368.6 90.48C368.52 90.96 368.293 91.32 367.92 91.56L365.52 87.96ZM395.68 93.6C395.787 93.4667 395.933 93.2667 396.12 93C396.333 92.7333 396.493 92.5333 396.6 92.4C396.733 92.2667 396.853 92.2 396.96 92.2C397.12 92.2 397.507 92.44 398.12 92.92C398.733 93.3733 399.307 93.8667 399.84 94.4C400.4 94.9333 400.68 95.2933 400.68 95.48C400.573 95.9067 400.24 96.12 399.68 96.12H385.84C387.547 97.8533 389.8 99.3867 392.6 100.72C395.4 102.053 398.227 103 401.08 103.56L401.04 104C400.427 104.133 399.88 104.453 399.4 104.96C398.947 105.467 398.627 106.107 398.44 106.88C395.56 105.867 392.92 104.44 390.52 102.6C388.147 100.76 386.227 98.6 384.76 96.12H384.56V99.84C384.64 102.933 384.733 105.32 384.84 107C384.68 107.267 384.307 107.52 383.72 107.76C383.133 108.027 382.533 108.16 381.92 108.16C381.653 108.16 381.44 108.08 381.28 107.92C381.12 107.76 381.04 107.573 381.04 107.36C381.2 105.28 381.307 103.2 381.36 101.12V97.6C379.493 99.6533 377.187 101.493 374.44 103.12C371.72 104.72 368.707 106.04 365.4 107.08L365.12 106.52C367.733 105.293 370.173 103.773 372.44 101.96C374.707 100.12 376.613 98.1733 378.16 96.12H372.08C370.187 96.1467 368.187 96.3333 366.08 96.68L365.04 94.64C366.507 94.8 368.28 94.9067 370.36 94.96H381.36C381.36 93.3333 381.28 91.9467 381.12 90.8C382.773 91.2267 383.933 91.5867 384.6 91.88C385.267 92.1467 385.6 92.3733 385.6 92.56C385.6 92.6667 385.48 92.7867 385.24 92.92L384.56 93.36V94.96H394.72L395.68 93.6ZM422.24 105.84C419.04 105.84 416.773 104.907 415.44 103.04C414.133 101.147 413.48 98.2933 413.48 94.48C413.48 92.0533 413.653 89.1067 414 85.64C414.24 83.5333 414.36 81.96 414.36 80.92C414.36 79.6933 414.213 78.68 413.92 77.88C413.653 77.08 413.173 76.4667 412.48 76.04C412.24 75.9067 412.12 75.7733 412.12 75.64C412.12 75.4533 412.293 75.32 412.64 75.24C413.013 75.16 413.4 75.12 413.8 75.12C415.293 75.12 416.333 75.52 416.92 76.32C417.533 77.0933 417.84 78.1733 417.84 79.56C417.84 80.3067 417.747 81.3333 417.56 82.64C417.373 83.92 417.267 84.68 417.24 84.92C417.187 85.1067 417.133 85.4133 417.08 85.84C416.547 89.1733 416.28 92.0667 416.28 94.52C416.28 96.6533 416.493 98.3333 416.92 99.56C417.373 100.76 418.093 101.627 419.08 102.16C420.093 102.693 421.48 102.96 423.24 102.96C426.76 102.96 431.053 100.96 436.12 96.96C436.2 96.9067 436.32 96.8267 436.48 96.72C436.667 96.5867 436.813 96.52 436.92 96.52C437 96.52 437.04 96.5733 437.04 96.68C437.04 96.84 436.88 97.1067 436.56 97.48C431.707 103.053 426.933 105.84 422.24 105.84ZM474.28 82.44C475.24 82.44 476.133 82.9067 476.96 83.84C477.813 84.7733 478.493 85.8667 479 87.12C479.533 88.3467 479.8 89.3067 479.8 90C479.8 90.5067 479.627 90.9733 479.28 91.4C478.96 91.8 478.6 92 478.2 92C477.96 92 477.667 91.9067 477.32 91.72C477 91.5067 476.747 91.36 476.56 91.28C476.107 91.0933 475.427 91 474.52 91C474.307 91 473.933 91.0267 473.4 91.08L472.6 91.12C472.387 91.12 472.28 91.0667 472.28 90.96C472.28 90.8267 472.427 90.72 472.72 90.64C474.667 90.16 475.72 89.56 475.88 88.84C475.907 88.76 475.92 88.64 475.92 88.48C475.92 87.7867 475.747 87.0133 475.4 86.16C475.053 85.28 474.64 84.8 474.16 84.72C473.573 84.56 473.027 84.8267 472.52 85.52C472.04 86.1867 471.693 87.0933 471.48 88.24C471.293 88.32 471.147 88.64 471.04 89.2C470.96 89.76 470.92 90.2667 470.92 90.72C470.92 92.2133 471 93.5867 471.16 94.84C471.32 96.0933 471.507 96.92 471.72 97.32C472.067 98.0933 472.32 98.7333 472.48 99.24C472.64 99.72 472.72 100.253 472.72 100.84C472.72 102.733 471.533 104.107 469.16 104.96C466.787 105.787 464.013 106.2 460.84 106.2C458.947 106.2 457.187 105.867 455.56 105.2C453.933 104.56 453.12 103.413 453.12 101.76C453.12 101.307 453.187 100.693 453.32 99.92C453.453 99.12 453.627 98.3467 453.84 97.6C452.747 97.0133 451.787 96.08 450.96 94.8C450.16 93.52 449.76 91.96 449.76 90.12C449.76 88.5467 450.2 87.2933 451.08 86.36C451.987 85.4 453.213 84.92 454.76 84.92C454.947 84.92 455.227 84.9467 455.6 85L455.68 82.08C454.88 82.2133 454.16 82.28 453.52 82.28C450.987 82.28 449.28 81.1733 448.4 78.96C448.347 78.7467 448.32 78.6133 448.32 78.56C448.32 78.48 448.373 78.44 448.48 78.44C448.56 78.44 448.667 78.4933 448.8 78.6C450 79.56 451.32 80.04 452.76 80.04C453.667 80.04 454.64 79.88 455.68 79.56C455.68 78.04 455.667 77.1333 455.64 76.84C455.587 76.1467 455.44 75.5733 455.2 75.12C454.96 74.64 454.533 74.1867 453.92 73.76C453.76 73.6533 453.587 73.56 453.4 73.48C453.213 73.3733 453.12 73.2667 453.12 73.16C453.12 73 453.267 72.8667 453.56 72.76C453.853 72.6267 454.213 72.56 454.64 72.56C455.627 72.56 456.507 72.8267 457.28 73.36C458.08 73.8667 458.48 74.5333 458.48 75.36C458.48 75.44 458.453 75.64 458.4 75.96C458.96 76.3067 459.627 76.52 460.4 76.6C461.12 76.6533 461.64 76.8133 461.96 77.08C462.28 77.32 462.44 77.6667 462.44 78.12C462.44 78.8667 462.067 79.4667 461.32 79.92C460.067 80.6667 458.747 81.24 457.36 81.64L457.08 84.16L456.96 85.52C458.053 86.1867 458.6 87 458.6 87.96C458.6 88.2533 458.56 88.5333 458.48 88.8L458.16 89.72C457.947 90.0933 457.747 90.68 457.56 91.48C457.293 92.5733 457.133 93.84 457.08 95.28C457.053 95.7333 457.013 96.16 456.96 96.56C456.933 96.9333 456.867 97.2267 456.76 97.44C456.493 97.92 456.093 98.16 455.56 98.16C455.4 98.16 455.267 98.1467 455.16 98.12C455 99.1333 454.92 99.8667 454.92 100.32C454.92 101.627 455.387 102.48 456.32 102.88C457.28 103.253 458.453 103.44 459.84 103.44C462.347 103.44 464.613 103.173 466.64 102.64C468.667 102.107 469.72 100.867 469.8 98.92C469.827 98.4667 469.84 97.96 469.84 97.4C469.84 96.8133 469.853 96.2267 469.88 95.64C469.88 93.8267 469.893 92.68 469.92 92.2C470 89.8267 470.333 87.6133 470.92 85.56C471.507 83.48 472.627 82.44 474.28 82.44ZM457.88 77.96C457.773 78.4667 457.72 78.7467 457.72 78.8C457.827 78.7467 458.107 78.6133 458.56 78.4C458.96 78.2133 459.16 77.9733 459.16 77.68C459.16 77.4667 459.027 77.28 458.76 77.12L458.16 76.76L457.88 77.96ZM451.2 89.72C451.2 90.4133 451.32 91.12 451.56 91.84C451.8 92.5333 452.107 93.1067 452.48 93.56C452.853 94.0133 453.24 94.24 453.64 94.24C454.12 94.24 454.48 93.8267 454.72 93C454.96 92.1467 455.12 91.2 455.2 90.16C455.227 89.9733 455.28 89.6533 455.36 89.2C455.44 88.72 455.48 88.3067 455.48 87.96C455.48 86.8667 455.053 86.32 454.2 86.32C453.133 86.32 452.36 86.68 451.88 87.4C451.427 88.12 451.2 88.8933 451.2 89.72ZM22.24 170.84C19.04 170.84 16.7733 169.907 15.44 168.04C14.1333 166.147 13.48 163.293 13.48 159.48C13.48 157.053 13.6533 154.107 14 150.64C14.24 148.533 14.36 146.96 14.36 145.92C14.36 144.693 14.2133 143.68 13.92 142.88C13.6533 142.08 13.1733 141.467 12.48 141.04C12.24 140.907 12.12 140.773 12.12 140.64C12.12 140.453 12.2933 140.32 12.64 140.24C13.0133 140.16 13.4 140.12 13.8 140.12C15.2933 140.12 16.3333 140.52 16.92 141.32C17.5333 142.093 17.84 143.173 17.84 144.56C17.84 145.307 17.7467 146.333 17.56 147.64C17.3733 148.92 17.2667 149.68 17.24 149.92C17.1867 150.107 17.1333 150.413 17.08 150.84C16.5467 154.173 16.28 157.067 16.28 159.52C16.28 161.653 16.4933 163.333 16.92 164.56C17.3733 165.76 18.0933 166.627 19.08 167.16C20.0933 167.693 21.48 167.96 23.24 167.96C26.76 167.96 31.0533 165.96 36.12 161.96C36.2 161.907 36.32 161.827 36.48 161.72C36.6667 161.587 36.8133 161.52 36.92 161.52C37 161.52 37.04 161.573 37.04 161.68C37.04 161.84 36.88 162.107 36.56 162.48C31.7067 168.053 26.9333 170.84 22.24 170.84ZM58.4 170.72C58.2933 170.72 58.1867 170.68 58.08 170.6C58 170.547 57.96 170.48 57.96 170.4C57.96 170.16 58.1333 170.027 58.48 170C60.9867 169.76 63.28 169.133 65.36 168.12C67.44 167.08 69.08 165.8 70.28 164.28C71.48 162.733 72.08 161.12 72.08 159.44C72.08 158.293 71.8267 157.307 71.32 156.48C70.8133 155.653 70.1467 155.04 69.32 154.64C68.52 154.213 67.68 154 66.8 154C65.04 154 63.2533 154.573 61.44 155.72C59.6267 156.867 58.1467 157.947 57 158.96C56.36 159.52 55.7333 160.013 55.12 160.44C54.5067 160.84 53.9067 161.04 53.32 161.04C52.68 161.04 52.04 160.827 51.4 160.4C50.76 159.973 50.2533 159.52 49.88 159.04C49.5333 158.72 49.36 158.467 49.36 158.28C49.36 158.04 49.5067 157.92 49.8 157.92C49.9867 157.92 50.2667 157.96 50.64 158.04C51.0133 158.093 51.3867 158.12 51.76 158.12C52.32 158.12 52.9333 157.973 53.6 157.68C54.2667 157.36 55.1733 156.867 56.32 156.2C58.2133 155.107 59.9067 154.253 61.4 153.64C62.8933 153.027 64.5067 152.72 66.24 152.72C67.68 152.72 69.0533 153.04 70.36 153.68C71.6667 154.293 72.72 155.2 73.52 156.4C74.3467 157.6 74.76 159 74.76 160.6C74.76 161.747 74.4133 163.027 73.72 164.44C73.0267 165.827 71.5067 167.16 69.16 168.44C66.8133 169.693 63.4133 170.44 58.96 170.68L58.4 170.72ZM103.2 148.04C106.4 148.04 108 150.16 108 154.4C108 155.467 107.84 156.893 107.52 158.68C107.227 160.467 106.76 162.227 106.12 163.96C105.48 165.693 104.707 167.027 103.8 167.96C103.347 168.44 102.853 168.84 102.32 169.16C101.813 169.453 101.373 169.6 101 169.6C100.227 169.6 99.6133 168.96 99.16 167.68C98.8133 166.667 98.16 165.533 97.2 164.28C96.9333 163.907 96.8 163.667 96.8 163.56C96.8 163.507 96.84 163.48 96.92 163.48C97.0267 163.48 97.28 163.613 97.68 163.88C98.08 164.12 98.3867 164.293 98.6 164.4C98.7867 164.507 99.04 164.667 99.36 164.88C99.7067 165.093 100 165.253 100.24 165.36C100.48 165.467 100.707 165.52 100.92 165.52C101.8 165.52 102.587 164.787 103.28 163.32C104 161.853 104.547 160.16 104.92 158.24C105.32 156.293 105.52 154.72 105.52 153.52C105.52 152.24 105.333 151.28 104.96 150.64C104.587 149.973 103.973 149.64 103.12 149.64C102 149.64 100.453 150.12 98.48 151.08C97.1733 156.867 95.1867 161.907 92.52 166.2C92.1467 166.84 91.7333 167.347 91.28 167.72C90.8267 168.093 90.4 168.28 90 168.28C89.6267 168.28 89.32 168.16 89.08 167.92C88.84 167.653 88.72 167.307 88.72 166.88C88.72 166.027 89.2133 164.973 90.2 163.72C92.9467 160.093 94.84 156.293 95.88 152.32C94.6533 152.907 93.64 153.36 92.84 153.68C92.0667 154 91.4667 154.16 91.04 154.16C90.48 154.16 89.9067 153.973 89.32 153.6C88.7333 153.2 88.24 152.707 87.84 152.12C87.4667 151.533 87.28 150.947 87.28 150.36C87.28 150.093 87.3467 149.96 87.48 149.96C87.5867 149.96 87.7467 150.027 87.96 150.16C88.1733 150.267 88.3333 150.347 88.44 150.4C89.1867 150.747 90.0133 150.92 90.92 150.92C91.9067 150.893 92.8133 150.787 93.64 150.6C94.4933 150.413 95.44 150.12 96.48 149.72C96.8267 148.04 97 146.627 97 145.48C97 144.093 96.72 143.067 96.16 142.4C95.92 142.08 95.6133 141.76 95.24 141.44C94.8933 141.12 94.72 140.907 94.72 140.8C94.72 140.64 94.8533 140.52 95.12 140.44C95.3867 140.333 95.7333 140.28 96.16 140.28C96.6667 140.28 97.2 140.347 97.76 140.48C98.32 140.613 98.7467 140.8 99.04 141.04C99.7333 141.467 100.08 142.053 100.08 142.8C100.08 143.12 99.9733 143.733 99.76 144.64C99.6 145.12 99.48 145.627 99.4 146.16L98.96 148.84C100.507 148.307 101.92 148.04 103.2 148.04ZM111.52 147.92C113.707 147.973 115.493 148.373 116.88 149.12C118.293 149.867 119.32 150.747 119.96 151.76C120.6 152.747 120.92 153.68 120.92 154.56C120.92 155.227 120.773 155.827 120.48 156.36C120.213 156.867 119.867 157.267 119.44 157.56C119.013 157.853 118.6 158 118.2 158C117.96 158 117.733 157.947 117.52 157.84C117.307 157.707 117.04 157.533 116.72 157.32C116.027 156.787 114.64 156.4 112.56 156.16C112.187 156.107 112 156.027 112 155.92C112 155.813 112.2 155.733 112.6 155.68L114.32 155.48L115.28 155.36C116.08 155.2 116.613 155.04 116.88 154.88C117.173 154.72 117.32 154.427 117.32 154C117.32 152.747 116.72 151.6 115.52 150.56C114.32 149.493 112.947 148.747 111.4 148.32C111.16 148.24 111.04 148.16 111.04 148.08C111.04 147.973 111.2 147.92 111.52 147.92ZM144.56 144.4C145.547 144.4 146.507 144.827 147.44 145.68C148.373 146.507 149.133 147.72 149.72 149.32C150.333 150.92 150.64 152.773 150.64 154.88C150.64 163.76 146.587 169.4 138.48 171.8C138.24 171.907 138.027 171.96 137.84 171.96C137.627 171.96 137.52 171.867 137.52 171.68C137.52 171.573 137.587 171.48 137.72 171.4C141.267 169.933 143.747 167.693 145.16 164.68C146.6 161.667 147.32 158.467 147.32 155.08C147.32 152.573 147 150.453 146.36 148.72C145.747 146.987 144.88 146.12 143.76 146.12C142.853 146.12 142 146.667 141.2 147.76C140.4 148.853 139.747 150.133 139.24 151.6C138.76 153.04 138.52 154.24 138.52 155.2C138.52 155.653 138.6 156.107 138.76 156.56C138.92 156.987 139.133 157.467 139.4 158C139.587 158.373 139.747 158.747 139.88 159.12C140.04 159.493 140.12 159.827 140.12 160.12C140.12 160.467 140 160.747 139.76 160.96C139.547 161.173 139.28 161.28 138.96 161.28C138.213 161.28 137.56 160.96 137 160.32C136.467 159.68 136.053 158.88 135.76 157.92C135.467 156.933 135.32 155.973 135.32 155.04C135.32 153.893 135.453 152.6 135.72 151.16C135.987 149.693 136.36 147.987 136.84 146.04C137.48 143.32 137.8 141.573 137.8 140.8C137.8 140.107 137.587 139.533 137.16 139.08C136.973 138.893 136.773 138.72 136.56 138.56C136.347 138.373 136.24 138.213 136.24 138.08C136.24 137.947 136.347 137.827 136.56 137.72C136.773 137.613 137.053 137.56 137.4 137.56C138.227 137.56 138.893 137.907 139.4 138.6C139.933 139.293 140.2 140.147 140.2 141.16C140.2 142.013 140.093 142.853 139.88 143.68C139.693 144.507 139.4 145.507 139 146.68L138.44 148.44C138.253 149.107 138.107 149.88 138 150.76C138.933 148.68 139.893 147.107 140.88 146.04C141.867 144.947 143.093 144.4 144.56 144.4ZM195 139.88C195.107 139.747 195.227 139.573 195.36 139.36C195.52 139.12 195.653 138.947 195.76 138.84C195.867 138.733 195.973 138.68 196.08 138.68C196.24 138.68 196.573 138.893 197.08 139.32C197.587 139.72 198.053 140.16 198.48 140.64C198.907 141.093 199.12 141.413 199.12 141.6C199.04 142.027 198.707 142.24 198.12 142.24H189.92V146.2H195.92L196.76 144.96C196.84 144.827 196.96 144.653 197.12 144.44C197.307 144.2 197.453 144.027 197.56 143.92C197.667 143.787 197.773 143.72 197.88 143.72C198.04 143.72 198.387 143.933 198.92 144.36C199.453 144.787 199.947 145.24 200.4 145.72C200.853 146.2 201.08 146.533 201.08 146.72C201 147.147 200.68 147.36 200.12 147.36H175.76V152.76C175.813 156.067 175.92 159.2 176.08 162.16C175.893 162.427 175.52 162.693 174.96 162.96C174.427 163.2 173.947 163.32 173.52 163.32C173.307 163.32 173.147 163.24 173.04 163.08C172.96 162.92 172.92 162.733 172.92 162.52C172.92 162.52 172.973 162.093 173.08 161.24V160.16H169.16V161.68L169.24 162.92C169.24 163.293 169.267 163.8 169.32 164.44C169.24 164.733 168.973 165.013 168.52 165.28C168.067 165.52 167.573 165.64 167.04 165.64C166.8 165.64 166.587 165.56 166.4 165.4C166.213 165.24 166.12 165.053 166.12 164.84C166.227 163.267 166.32 161.747 166.4 160.28C166.48 158.787 166.533 156.84 166.56 154.44V148C166.56 144.64 166.387 141.907 166.04 139.8L169.32 141.28H172.72L173.32 140.48C173.4 140.4 173.533 140.253 173.72 140.04C173.907 139.8 174.08 139.68 174.24 139.68C174.4 139.68 174.72 139.853 175.2 140.2C175.707 140.52 176.173 140.88 176.6 141.28C177.027 141.68 177.24 141.973 177.24 142.16C176.973 142.507 176.48 142.76 175.76 142.92V146.2H180.16C180.16 143.107 180 140.52 179.68 138.44C182.507 139.213 183.92 139.787 183.92 140.16C183.92 140.267 183.813 140.387 183.6 140.52L182.96 140.92V146.2H187.04V144.56C187.04 141.2 186.867 138.467 186.52 136.36C189.453 137.107 190.92 137.68 190.92 138.08C190.92 138.187 190.813 138.307 190.6 138.44L189.92 138.88V141.08H194.2L195 139.88ZM169.16 142.48V159.04H173.08V142.48H169.16ZM192.76 156.08C192.84 155.973 192.933 155.827 193.04 155.64C193.173 155.453 193.28 155.32 193.36 155.24C193.467 155.16 193.573 155.12 193.68 155.12C193.947 155.12 194.44 155.453 195.16 156.12C195.88 156.76 196.24 157.227 196.24 157.52C196.133 157.947 195.8 158.16 195.24 158.16H189.44V159.48C191.36 160.093 192.76 160.867 193.64 161.8C194.547 162.733 195 163.64 195 164.52C195 164.973 194.893 165.347 194.68 165.64C194.467 165.907 194.187 166.04 193.84 166.04C193.52 166.04 193.187 165.907 192.84 165.64C192.707 164.787 192.307 163.853 191.64 162.84C191 161.827 190.267 160.947 189.44 160.2V162.64L189.48 164.16C189.507 165.253 189.56 166.307 189.64 167.32C189.533 167.587 189.253 167.84 188.8 168.08C188.373 168.293 187.947 168.4 187.52 168.4C187.28 168.4 187.093 168.32 186.96 168.16C186.827 168 186.76 167.813 186.76 167.6C186.867 166.56 186.947 165.227 187 163.6V161.16C185.507 163.373 183.613 165.307 181.32 166.96L180.88 166.32C182.907 164.16 184.547 161.44 185.8 158.16H184.24C183.36 158.187 182.453 158.373 181.52 158.72L180.52 156.68C181.72 156.84 183.187 156.947 184.92 157H187V156.52C187 153.16 186.827 150.427 186.48 148.32C189.013 149.067 190.28 149.627 190.28 150C190.28 150.107 190.187 150.213 190 150.32L189.44 150.68V157H192.16L192.76 156.08ZM196.32 156.8C196.32 153.44 196.147 150.707 195.8 148.6C197.4 149.053 198.507 149.413 199.12 149.68C199.76 149.92 200.08 150.133 200.08 150.32C200.08 150.4 199.973 150.52 199.76 150.68L199.12 151.08V162.4C199.173 165.707 199.28 168.84 199.44 171.8C199.28 172.093 198.933 172.36 198.4 172.6C197.893 172.867 197.4 173 196.92 173C196.413 173 196.16 172.733 196.16 172.2C196.16 172.2 196.213 171.88 196.32 171.24V170.32H180.48V172.32C180.48 172.48 180.24 172.667 179.76 172.88C179.28 173.093 178.813 173.2 178.36 173.2C178.093 173.2 177.867 173.12 177.68 172.96C177.493 172.8 177.4 172.613 177.4 172.4C177.507 170.88 177.587 169.373 177.64 167.88C177.72 166.387 177.773 164.507 177.8 162.24V156.72C177.8 153.36 177.627 150.627 177.28 148.52C178.827 148.947 179.907 149.307 180.52 149.6C181.133 149.867 181.44 150.093 181.44 150.28C181.44 150.36 181.333 150.48 181.12 150.64L180.48 151.04V169.16H196.32V156.8ZM193.88 150.52C194.92 150.733 195.44 150.973 195.44 151.24C195.44 151.347 195.307 151.467 195.04 151.6L194.4 151.84C193.44 153.227 192.307 154.627 191 156.04L190.48 155.88C190.827 154.893 191.12 153.827 191.36 152.68C191.6 151.507 191.733 150.493 191.76 149.64L193.88 150.52ZM182.48 150.2C183.573 150.813 184.373 151.48 184.88 152.2C185.387 152.92 185.64 153.6 185.64 154.24C185.64 154.72 185.507 155.133 185.24 155.48C185 155.8 184.693 155.96 184.32 155.96C183.92 155.96 183.56 155.773 183.24 155.4C183.32 154.627 183.227 153.787 182.96 152.88C182.693 151.947 182.36 151.12 181.96 150.4L182.48 150.2ZM226.28 146.44C228.2 146.6 229.987 147.12 231.64 148C233.293 148.88 234.627 150.107 235.64 151.68C236.68 153.227 237.2 155.04 237.2 157.12C237.2 160.853 235.8 163.76 233 165.84C230.227 167.92 226.507 169.24 221.84 169.8L220.4 169.92C220.293 169.92 220.213 169.893 220.16 169.84C220.107 169.787 220.08 169.733 220.08 169.68C220.08 169.573 220.187 169.48 220.4 169.4C220.613 169.32 220.8 169.267 220.96 169.24C221.147 169.213 221.267 169.187 221.32 169.16C225.16 168.2 228.173 166.693 230.36 164.64C232.547 162.587 233.64 159.96 233.64 156.76C233.64 155.16 233.293 153.747 232.6 152.52C231.907 151.267 230.96 150.267 229.76 149.52C228.587 148.773 227.267 148.307 225.8 148.12C224.653 151.747 223.333 154.947 221.84 157.72C221.973 157.8 222.227 157.933 222.6 158.12C223 158.307 223.293 158.493 223.48 158.68C223.88 159.053 224.08 159.427 224.08 159.8C224.08 160.12 223.947 160.387 223.68 160.6C223.44 160.813 223.12 160.92 222.72 160.92C222.107 160.92 221.32 160.68 220.36 160.2C219.133 162.067 217.8 163.56 216.36 164.68C214.92 165.773 213.707 166.32 212.72 166.32C212.213 166.32 211.693 166.133 211.16 165.76C210.653 165.387 210.227 164.813 209.88 164.04C209.533 163.24 209.36 162.28 209.36 161.16C209.36 159.133 209.72 157.293 210.44 155.64C211.16 153.987 212.16 152.533 213.44 151.28L213.04 150.16C212.533 148.747 212.12 147.693 211.8 147C211.507 146.307 211.16 145.787 210.76 145.44C210.52 145.2 210.267 145 210 144.84C209.76 144.653 209.64 144.52 209.64 144.44C209.64 144.333 209.773 144.28 210.04 144.28C210.307 144.28 210.627 144.333 211 144.44C211.373 144.547 211.747 144.693 212.12 144.88C212.76 145.227 213.267 145.76 213.64 146.48C214.04 147.173 214.56 148.293 215.2 149.84C216.453 148.933 217.8 148.2 219.24 147.64C220.68 147.053 222.08 146.68 223.44 146.52C223.733 144.973 223.88 143.8 223.88 143C223.88 142.573 223.8 142.2 223.64 141.88C223.48 141.56 223.187 141.253 222.76 140.96C222.627 140.88 222.453 140.787 222.24 140.68C222.027 140.547 221.92 140.427 221.92 140.32C221.92 140.213 222.053 140.12 222.32 140.04C222.587 139.933 222.853 139.88 223.12 139.88C224.293 139.88 225.24 140.2 225.96 140.84C226.68 141.453 227.04 142.187 227.04 143.04C227.04 143.493 226.96 144 226.8 144.56C226.667 145.093 226.587 145.413 226.56 145.52C226.427 146 226.333 146.307 226.28 146.44ZM218.2 155C218.867 155.613 219.507 156.147 220.12 156.6C221.347 154.173 222.347 151.32 223.12 148.04C221.787 148.173 220.493 148.533 219.24 149.12C218.013 149.707 216.88 150.467 215.84 151.4C216.56 152.973 217.347 154.173 218.2 155ZM213.2 163.32C213.867 163.32 214.693 162.973 215.68 162.28C216.667 161.56 217.653 160.493 218.64 159.08C217.573 158.307 216.747 157.507 216.16 156.68C215.52 155.827 214.867 154.653 214.2 153.16C213.373 154.253 212.72 155.413 212.24 156.64C211.787 157.867 211.56 159.12 211.56 160.4C211.56 161.147 211.707 161.827 212 162.44C212.293 163.027 212.693 163.32 213.2 163.32ZM264.72 153.64C266.213 153.64 267.64 153.933 269 154.52C270.36 155.08 271.467 155.947 272.32 157.12C273.2 158.293 273.64 159.72 273.64 161.4C273.64 163.133 273.133 164.667 272.12 166C271.107 167.307 269.787 168.32 268.16 169.04C266.533 169.733 264.84 170.08 263.08 170.08C261.533 170.08 260.187 169.733 259.04 169.04C257.893 168.347 257.32 167.44 257.32 166.32C257.32 165.413 257.68 164.653 258.4 164.04C259.147 163.427 260.067 163.12 261.16 163.12C262.253 163.12 263.28 163.48 264.24 164.2C265.227 164.893 265.947 165.867 266.4 167.12C267.627 166.48 268.64 165.613 269.44 164.52C270.24 163.4 270.64 162.187 270.64 160.88C270.64 158.853 270 157.347 268.72 156.36C267.44 155.373 265.933 154.88 264.2 154.88C262.52 154.88 260.947 155.387 259.48 156.4C258.04 157.387 256.627 159.093 255.24 161.52C255.133 161.707 254.92 162.093 254.6 162.68C254.28 163.267 253.96 163.68 253.64 163.92C253.347 164.16 253.013 164.28 252.64 164.28C252.133 164.28 251.733 164.12 251.44 163.8C251.147 163.48 251 163.093 251 162.64C251 161.813 251.293 160.96 251.88 160.08C252.467 159.2 253.467 157.947 254.88 156.32C259.2 151.36 262.293 147.667 264.16 145.24C264.293 145.053 264.453 144.84 264.64 144.6C264.853 144.36 265 144.147 265.08 143.96C265.187 143.773 265.24 143.6 265.24 143.44C265.24 143.173 265.133 142.92 264.92 142.68C264.707 142.413 264.493 142.28 264.28 142.28C263.96 142.28 263.613 142.52 263.24 143C262.413 144.093 261.533 145 260.6 145.72C259.667 146.413 258.747 146.76 257.84 146.76C257.093 146.76 256.467 146.48 255.96 145.92C255.48 145.333 255.16 144.453 255 143.28L254.96 142.56C254.96 142.32 255.013 142.2 255.12 142.2C255.2 142.2 255.4 142.4 255.72 142.8C256.093 143.28 256.52 143.52 257 143.52C257.48 143.52 258.2 143.32 259.16 142.92C260.147 142.493 261.227 141.933 262.4 141.24C263.093 140.787 263.72 140.56 264.28 140.56C264.787 140.56 265.413 140.707 266.16 141C266.933 141.293 267.6 141.693 268.16 142.2C268.72 142.68 269 143.213 269 143.8C269 144.573 268.52 145.32 267.56 146.04C263.747 148.973 260.507 152.227 257.84 155.8C260.107 154.36 262.4 153.64 264.72 153.64ZM262.88 168.04C263.093 168.04 263.413 168.013 263.84 167.96C263.573 167.107 263.187 166.4 262.68 165.84C262.173 165.28 261.493 165 260.64 165C260.16 165 259.8 165.12 259.56 165.36C259.32 165.573 259.2 165.84 259.2 166.16C259.2 166.667 259.587 167.107 260.36 167.48C261.16 167.853 262 168.04 262.88 168.04ZM294.08 147.8C292.187 147.827 290.187 148.013 288.08 148.36L287 146.28C288.467 146.44 290.24 146.547 292.32 146.6H299.68C299.733 145.693 299.76 144.987 299.76 144.48C299.787 144.133 299.8 143.587 299.8 142.84C299.8 140.413 299.64 138.2 299.32 136.2L304.64 136.92C304.587 137.24 304.453 137.493 304.24 137.68C304.053 137.867 303.733 137.987 303.28 138.04C303.227 141.907 303.147 144.76 303.04 146.6H313.4L314.24 145.6C314.32 145.52 314.44 145.373 314.6 145.16C314.76 144.947 314.893 144.8 315 144.72C315.133 144.613 315.253 144.56 315.36 144.56C315.52 144.56 315.867 144.773 316.4 145.2C316.96 145.627 317.467 146.093 317.92 146.6C318.4 147.08 318.64 147.413 318.64 147.6C318.453 147.787 318.24 147.933 318 148.04C317.76 148.12 317.4 148.2 316.92 148.28C316.76 154.68 316.427 159.813 315.92 163.68C315.413 167.547 314.68 170 313.72 171.04C313.133 171.707 312.427 172.187 311.6 172.48C310.773 172.773 309.773 172.92 308.6 172.92C308.653 171.8 308.373 171 307.76 170.52C307.387 170.253 306.76 169.987 305.88 169.72C305 169.427 304.067 169.2 303.08 169.04L303.12 168.36C304.32 168.493 305.587 168.613 306.92 168.72C308.28 168.827 309.2 168.88 309.68 168.88C310.08 168.88 310.387 168.84 310.6 168.76C310.84 168.68 311.053 168.547 311.24 168.36C312.52 167.187 313.373 160.333 313.8 147.8H302.96C302.667 151.613 302.013 155.013 301 158C300.013 160.96 298.32 163.747 295.92 166.36C293.52 168.947 290.2 171.24 285.96 173.24L285.52 172.56C289.013 170.453 291.747 168.12 293.72 165.56C295.72 163 297.147 160.307 298 157.48C298.853 154.627 299.4 151.4 299.64 147.8H294.08ZM353.36 147C354.32 147 355.16 147.307 355.88 147.92C356.6 148.533 356.96 149.333 356.96 150.32C356.96 151.6 356.4 152.68 355.28 153.56C354.187 154.413 352.733 155.213 350.92 155.96L349.08 156.64C348.627 156.827 347.893 157.107 346.88 157.48C345.867 157.853 344.987 158.2 344.24 158.52C344.16 159.213 344.147 160.013 344.2 160.92C344.2 161.16 344.2 161.64 344.2 162.36C344.227 163.08 344.227 163.547 344.2 163.76C344.173 164.24 343.987 164.667 343.64 165.04C343.32 165.413 342.947 165.6 342.52 165.6C342.12 165.6 341.76 165.427 341.44 165.08C341.147 164.733 341 164.333 341 163.88C341 163.533 341.067 162.8 341.2 161.68L341.36 159.88C338.16 161.587 336.56 163.4 336.56 165.32C336.56 167.267 338.467 168.24 342.28 168.24C343.053 168.24 343.747 168.187 344.36 168.08C345 167.973 345.693 167.827 346.44 167.64C346.573 167.613 346.907 167.547 347.44 167.44C347.973 167.307 348.48 167.24 348.96 167.24C349.547 167.24 350 167.36 350.32 167.6C350.64 167.84 350.8 168.173 350.8 168.6C350.8 169.507 350.027 170.147 348.48 170.52C346.96 170.893 345.32 171.08 343.56 171.08C340.467 171.08 338.267 170.6 336.96 169.64C335.68 168.653 335.04 167.387 335.04 165.84C335.04 164.373 335.6 163.067 336.72 161.92C337.84 160.773 339.413 159.64 341.44 158.52C341.467 158.227 341.48 157.813 341.48 157.28C341.48 155.867 341.253 154.8 340.8 154.08C340.347 153.36 339.813 153 339.2 153C338.347 153 337.493 153.48 336.64 154.44C335.813 155.373 334.92 156.56 333.96 158L333.52 158.68C333.44 158.787 333.24 159.08 332.92 159.56C332.6 160.04 332.293 160.413 332 160.68C331.707 160.947 331.44 161.08 331.2 161.08C330.693 161.08 330.293 160.88 330 160.48C329.733 160.08 329.6 159.587 329.6 159C329.6 158.227 329.933 157.52 330.6 156.88L331.2 156.32C331.947 155.627 332.587 155 333.12 154.44C333.68 153.853 334.2 153.2 334.68 152.48C335.96 150.507 337.027 148.24 337.88 145.68C336.68 145.92 335.667 146.04 334.84 146.04C333.933 146.04 333.147 145.867 332.48 145.52C331.84 145.147 331.067 144.56 330.16 143.76C330.053 143.653 330 143.56 330 143.48C330 143.4 330.067 143.36 330.2 143.36C330.307 143.36 330.493 143.4 330.76 143.48C331.72 143.827 332.693 144 333.68 144C334.213 144 334.907 143.947 335.76 143.84C336.64 143.707 337.56 143.48 338.52 143.16C338.68 142.387 338.76 141.733 338.76 141.2C338.76 140.08 338.333 139.227 337.48 138.64C337.267 138.507 337.16 138.373 337.16 138.24C337.187 138 337.267 137.813 337.4 137.68C337.533 137.52 337.72 137.44 337.96 137.44C338.333 137.44 338.853 137.52 339.52 137.68C340.213 137.84 340.667 138.04 340.88 138.28C341.067 138.493 341.16 138.827 341.16 139.28C341.16 139.44 341.133 139.707 341.08 140.08C341.587 140.347 342.16 140.48 342.8 140.48C343.147 140.48 343.44 140.44 343.68 140.36C344 140.307 344.28 140.28 344.52 140.28C345.16 140.28 345.48 140.533 345.48 141.04C345.48 141.493 345.253 141.96 344.8 142.44C344.373 142.92 343.813 143.36 343.12 143.76C342.08 144.32 340.947 144.787 339.72 145.16C338.893 147.693 337.96 150.067 336.92 152.28C337.667 151.88 338.373 151.68 339.04 151.68C341.467 151.68 342.987 152.96 343.6 155.52C344.027 154.427 344.507 153.48 345.04 152.68C345.573 151.853 346.213 151.04 346.96 150.24C347.76 149.387 348.733 148.64 349.88 148C351.053 147.333 352.213 147 353.36 147ZM340.56 142.32C341.067 142.027 341.36 141.853 341.44 141.8C341.627 141.693 341.72 141.587 341.72 141.48C341.72 141.373 341.613 141.253 341.4 141.12L340.96 140.84L340.56 142.32ZM350 154.08C351.227 153.36 352.2 152.587 352.92 151.76C353.667 150.907 354.04 150.173 354.04 149.56C354.04 148.733 353.52 148.32 352.48 148.32C351.787 148.32 351 148.56 350.12 149.04C349.24 149.493 348.413 150.133 347.64 150.96C346.947 151.707 346.307 152.64 345.72 153.76C345.133 154.853 344.72 155.92 344.48 156.96L344.96 156.72L345.84 156.28C347.52 155.453 348.907 154.72 350 154.08ZM386.4 149.36C388.533 149.36 390.467 149.773 392.2 150.6C393.933 151.4 395.307 152.587 396.32 154.16C397.36 155.733 397.88 157.613 397.88 159.8C397.88 162.013 397.28 164 396.08 165.76C394.88 167.493 393.08 168.907 390.68 170C388.28 171.12 385.36 171.827 381.92 172.12C381.36 172.173 380.653 172.227 379.8 172.28C379.4 172.28 379.2 172.187 379.2 172C379.2 171.947 379.24 171.867 379.32 171.76C379.4 171.68 379.547 171.627 379.76 171.6C384.32 171.013 387.907 169.733 390.52 167.76C393.16 165.76 394.48 162.947 394.48 159.32C394.48 157.587 394.067 156.067 393.24 154.76C392.44 153.453 391.347 152.453 389.96 151.76C388.573 151.04 387.04 150.68 385.36 150.68H384.76C384.947 151.32 385.04 152 385.04 152.72C385.04 155.333 383.8 158.347 381.32 161.76C381.453 162.347 381.64 162.947 381.88 163.56C382.173 164.28 382.32 164.853 382.32 165.28C382.32 165.733 382.187 166.08 381.92 166.32C381.68 166.56 381.4 166.68 381.08 166.68C380.76 166.68 380.453 166.547 380.16 166.28C379.867 166.013 379.64 165.693 379.48 165.32L379.12 164.48C377.76 165.973 376.48 167.04 375.28 167.68C374.107 168.32 373.053 168.64 372.12 168.64C370.867 168.64 369.92 168.24 369.28 167.44C368.64 166.613 368.32 165.573 368.32 164.32C368.32 162.853 368.773 161.28 369.68 159.6C370.613 157.893 371.867 156.293 373.44 154.8C375.013 153.28 376.76 152.067 378.68 151.16C378.787 150.147 378.96 148.84 379.2 147.24C377.813 147.507 376.813 147.64 376.2 147.64C375.267 147.64 374.307 147.347 373.32 146.76C372.36 146.147 371.693 145.507 371.32 144.84C371.133 144.547 371.04 144.347 371.04 144.24C371.04 144.053 371.147 143.96 371.36 143.96C371.52 143.96 371.653 144 371.76 144.08C372.347 144.453 372.907 144.747 373.44 144.96C374 145.173 374.64 145.28 375.36 145.28C375.68 145.28 376.24 145.24 377.04 145.16C377.84 145.053 378.68 144.907 379.56 144.72C379.693 143.653 379.76 142.653 379.76 141.72C379.76 141.107 379.707 140.64 379.6 140.32C379.253 139.573 378.693 139.12 377.92 138.96C377.813 138.933 377.68 138.92 377.52 138.92C377.36 138.893 377.28 138.84 377.28 138.76C377.28 138.467 377.493 138.2 377.92 137.96C378.373 137.72 378.84 137.6 379.32 137.6C379.853 137.6 380.453 137.72 381.12 137.96C381.787 138.2 382.227 138.52 382.44 138.92C382.547 139.107 382.6 139.52 382.6 140.16V140.56C383.24 140.827 384.053 141.067 385.04 141.28C386.027 141.467 386.973 141.587 387.88 141.64C388.413 141.667 388.787 141.747 389 141.88C389.24 142.013 389.36 142.227 389.36 142.52C389.36 143.187 388.293 144.04 386.16 145.08C385.04 145.64 383.48 146.187 381.48 146.72C381.347 147.467 381.2 148.64 381.04 150.24C382.827 149.653 384.613 149.36 386.4 149.36ZM382.16 143.2C382.053 143.547 381.987 143.853 381.96 144.12C382.84 143.827 383.52 143.56 384 143.32C384.293 143.213 384.44 143.04 384.44 142.8C384.44 142.64 384.227 142.467 383.8 142.28C383.32 142.12 382.88 141.92 382.48 141.68C382.4 142.16 382.293 142.667 382.16 143.2ZM383.84 151.68C383.84 151.44 383.813 151.133 383.76 150.76C382.773 150.92 381.84 151.16 380.96 151.48C380.853 152.68 380.8 154 380.8 155.44C380.8 156.587 380.84 157.68 380.92 158.72C381.053 158.56 381.227 158.32 381.44 158C383.04 155.653 383.84 153.547 383.84 151.68ZM372.2 165.72C372.893 165.72 373.813 165.347 374.96 164.6C376.133 163.827 377.307 162.84 378.48 161.64C378.347 160.76 378.28 159.653 378.28 158.32C378.28 156.667 378.373 154.787 378.56 152.68C377.84 153.08 377.04 153.667 376.16 154.44C374.613 155.8 373.333 157.347 372.32 159.08C371.333 160.787 370.84 162.333 370.84 163.72C370.84 165.053 371.293 165.72 372.2 165.72ZM423.08 143.64C421.587 144.653 419.92 145.493 418.08 146.16C417.36 148.187 416.267 151.107 414.8 154.92C413.36 158.733 412.44 161.12 412.04 162.08C411.853 162.507 411.573 162.853 411.2 163.12C410.853 163.36 410.493 163.48 410.12 163.48C409.32 163.48 408.92 162.653 408.92 161C408.92 160.653 408.947 160.413 409 160.28C409.053 160.12 409.187 159.88 409.4 159.56C409.72 159.133 410 158.68 410.24 158.2L411.16 156.48C412.173 154.667 413.04 153.013 413.76 151.52C414.507 150.027 415.147 148.48 415.68 146.88C415.28 146.96 414.92 147 414.6 147C413.347 147 412.36 146.693 411.64 146.08C410.92 145.44 410.373 144.76 410 144.04C409.84 143.747 409.76 143.493 409.76 143.28C409.76 143.147 409.813 143.08 409.92 143.08C410.027 143.08 410.213 143.213 410.48 143.48C410.827 143.8 411.28 144.04 411.84 144.2C412.427 144.36 413.027 144.44 413.64 144.44C414.28 144.44 415.213 144.28 416.44 143.96C416.547 143.453 416.6 142.92 416.6 142.36C416.6 141.347 416.373 140.6 415.92 140.12C415.68 139.853 415.373 139.627 415 139.44C414.653 139.227 414.48 139.08 414.48 139C414.48 138.867 414.587 138.76 414.8 138.68C415.013 138.6 415.28 138.56 415.6 138.56C416.08 138.56 416.533 138.64 416.96 138.8C417.653 139.04 418.173 139.32 418.52 139.64C418.893 139.96 419.12 140.36 419.2 140.84C419.28 140.787 419.493 140.76 419.84 140.76L421.64 140.72C421.827 140.72 421.987 140.707 422.12 140.68C422.28 140.653 422.44 140.64 422.6 140.64C422.787 140.64 422.933 140.653 423.04 140.68C423.36 140.707 423.613 140.84 423.8 141.08C423.987 141.293 424.08 141.56 424.08 141.88C424.08 142.2 423.987 142.52 423.8 142.84C423.613 143.16 423.373 143.427 423.08 143.64ZM419.28 141.48C419.28 141.933 419.2 142.467 419.04 143.08C419.12 143.027 419.213 142.987 419.32 142.96C419.453 142.907 419.573 142.84 419.68 142.76C420.213 142.44 420.48 142.187 420.48 142C420.48 141.867 420.333 141.72 420.04 141.56C419.96 141.533 419.827 141.48 419.64 141.4C419.453 141.293 419.333 141.2 419.28 141.12V141.48ZM430.76 149.24C429.667 149.24 428.787 149.653 428.12 150.48C427.453 151.307 427.12 152.493 427.12 154.04C427.12 154.973 427.173 155.933 427.28 156.92C427.387 157.88 427.547 159.053 427.76 160.44C427.92 161.507 428.027 162.307 428.08 162.84C429.307 163.133 430.453 163.507 431.52 163.96C432.587 164.387 433.4 164.853 433.96 165.36C434.333 165.653 434.613 165.973 434.8 166.32C435.013 166.667 435.12 166.987 435.12 167.28C435.12 167.653 435 167.973 434.76 168.24C434.52 168.507 434.227 168.64 433.88 168.64C433.56 168.64 433.2 168.547 432.8 168.36C432.427 168.147 431.947 167.84 431.36 167.44C430.4 166.8 429.4 166.28 428.36 165.88V166.56C428.36 168.053 427.773 169.24 426.6 170.12C425.453 171 424.08 171.44 422.48 171.44C421.547 171.44 420.627 171.253 419.72 170.88C418.813 170.533 418.067 170.013 417.48 169.32C416.893 168.627 416.6 167.813 416.6 166.88C416.6 165.413 417.32 164.28 418.76 163.48C420.2 162.653 421.947 162.24 424 162.24C424.24 162.24 424.707 162.267 425.4 162.32L425.36 160.72C425.307 159.12 425.28 157.96 425.28 157.24C425.28 155.293 425.427 153.76 425.72 152.64C426.013 151.52 426.6 150.573 427.48 149.8C428.387 149.027 429.747 148.36 431.56 147.8C432.04 147.64 432.28 147.4 432.28 147.08C432.28 146.547 431.653 145.747 430.4 144.68C430.187 144.547 430.08 144.44 430.08 144.36C430.08 144.28 430.2 144.24 430.44 144.24C430.653 144.24 430.92 144.28 431.24 144.36C431.587 144.413 431.88 144.493 432.12 144.6C433.213 144.973 434.253 145.587 435.24 146.44C436.227 147.267 436.72 148.12 436.72 149C436.72 149.56 436.52 150.027 436.12 150.4C435.747 150.773 435.307 150.96 434.8 150.96C434.453 150.96 434.147 150.893 433.88 150.76C433.613 150.627 433.267 150.4 432.84 150.08C432.44 149.787 432.08 149.573 431.76 149.44C431.467 149.307 431.133 149.24 430.76 149.24ZM421.8 169.08C423.24 169.08 424.2 168.72 424.68 168C425.16 167.28 425.413 166.28 425.44 165C424.32 164.76 423.293 164.64 422.36 164.64C421.187 164.64 420.2 164.813 419.4 165.16C418.6 165.507 418.2 166.04 418.2 166.76C418.2 167.507 418.56 168.08 419.28 168.48C420 168.88 420.84 169.08 421.8 169.08ZM462.12 145.56C462.12 146.013 461.773 146.507 461.08 147.04C459.56 148.213 457.813 149.227 455.84 150.08C455.76 150.533 455.613 151.213 455.4 152.12C453.453 161.48 452.32 166.667 452 167.68C451.707 168.587 451.4 169.253 451.08 169.68C450.787 170.08 450.427 170.28 450 170.28C449.493 170.28 449.04 170.107 448.64 169.76C448.267 169.387 448.08 168.893 448.08 168.28C448.08 167.827 448.24 167.24 448.56 166.52C450.72 161.8 452.36 156.587 453.48 150.88C452.36 151.2 451.307 151.36 450.32 151.36C448.88 151.36 447.493 150.56 446.16 148.96C445.973 148.773 445.88 148.613 445.88 148.48C445.88 148.32 445.96 148.24 446.12 148.24C446.2 148.24 446.4 148.307 446.72 148.44C447.68 148.813 448.56 149 449.36 149C449.947 149 450.667 148.893 451.52 148.68C452.267 148.493 453.093 148.227 454 147.88C454.133 147 454.307 145.733 454.52 144.08C454.573 143.707 454.6 143.333 454.6 142.96C454.6 142.107 454.44 141.453 454.12 141C453.8 140.547 453.24 140.067 452.44 139.56C452.227 139.427 452.12 139.307 452.12 139.2C452.12 139.12 452.213 139.053 452.4 139C452.613 138.947 452.853 138.92 453.12 138.92C453.467 138.92 453.88 138.973 454.36 139.08C454.867 139.187 455.32 139.333 455.72 139.52C456.28 139.76 456.72 140.04 457.04 140.36C457.387 140.68 457.56 141.16 457.56 141.8C457.56 141.96 457.547 142.107 457.52 142.24C457.493 142.373 457.467 142.493 457.44 142.6C457.76 142.973 458.253 143.347 458.92 143.72C459.213 143.88 459.733 144.067 460.48 144.28C461.04 144.467 461.453 144.64 461.72 144.8C461.987 144.96 462.12 145.213 462.12 145.56ZM456.56 146.72C457.787 146.027 458.4 145.493 458.4 145.12C458.4 144.88 458.307 144.64 458.12 144.4C457.96 144.16 457.68 143.813 457.28 143.36L456.56 146.72ZM475.08 147.32C475.693 147.693 476.16 148.173 476.48 148.76C476.8 149.32 476.96 149.827 476.96 150.28C476.96 151.053 476.32 151.533 475.04 151.72C474.853 151.747 474.48 151.8 473.92 151.88C473.387 151.96 472.907 152.067 472.48 152.2C472.027 152.333 471.547 152.52 471.04 152.76C470.56 153 470.2 153.2 469.96 153.36C469.773 153.467 469.613 153.52 469.48 153.52C469.347 153.52 469.28 153.467 469.28 153.36C469.28 153.253 469.347 153.12 469.48 152.96C469.64 152.8 469.987 152.493 470.52 152.04C471.293 151.427 471.867 150.947 472.24 150.6C472.613 150.227 472.8 149.893 472.8 149.6C472.8 149.333 472.6 149.053 472.2 148.76C471.613 148.307 470.973 148 470.28 147.84C469.587 147.653 468.96 147.56 468.4 147.56C468.133 147.56 467.88 147.587 467.64 147.64C467.427 147.667 467.293 147.68 467.24 147.68C466.867 147.68 466.68 147.573 466.68 147.36C466.68 147.2 466.853 147.04 467.2 146.88C468.48 146.427 469.68 146.2 470.8 146.2C471.653 146.2 472.44 146.307 473.16 146.52C473.907 146.707 474.547 146.973 475.08 147.32ZM473.44 166.84C474.667 166.84 475.44 167.107 475.76 167.64C475.947 167.853 476.04 168.147 476.04 168.52C476.04 169.32 475.627 169.853 474.8 170.12C474 170.413 472.88 170.56 471.44 170.56C468.56 170.56 466.187 170.027 464.32 168.96C462.453 167.893 461.52 166.267 461.52 164.08C461.52 163.547 461.573 163.053 461.68 162.6C461.787 162.147 461.907 161.8 462.04 161.56C462.2 161.267 462.36 161 462.52 160.76C462.68 160.52 462.827 160.4 462.96 160.4C463.067 160.4 463.12 160.48 463.12 160.64C463.12 160.747 463.093 160.907 463.04 161.12C462.987 161.307 462.947 161.48 462.92 161.64C462.893 161.8 462.88 162 462.88 162.24C462.88 162.773 462.987 163.347 463.2 163.96C463.44 164.573 463.853 165.133 464.44 165.64C464.893 166.04 465.587 166.387 466.52 166.68C467.48 166.947 468.56 167.08 469.76 167.08C470.027 167.08 470.333 167.067 470.68 167.04C471.053 167.013 471.413 166.987 471.76 166.96C472.48 166.88 473.04 166.84 473.44 166.84ZM493.8 170.24C493.373 170.24 492.907 170 492.4 169.52C491.893 169.04 491.507 168.48 491.24 167.84C490.2 165.227 489.68 162.053 489.68 158.32C489.68 156.56 489.813 155 490.08 153.64C490.347 152.253 490.707 150.787 491.16 149.24C491.453 148.2 491.667 147.387 491.8 146.8C491.933 146.187 492 145.587 492 145C492 144.44 491.893 143.88 491.68 143.32C491.493 142.733 491.227 142.267 490.88 141.92C490.827 141.867 490.747 141.787 490.64 141.68C490.533 141.547 490.48 141.427 490.48 141.32C490.48 141.213 490.56 141.16 490.72 141.16C490.88 141.16 491.093 141.227 491.36 141.36C492.427 141.893 493.293 142.573 493.96 143.4C494.627 144.2 494.96 145.253 494.96 146.56C494.96 147.2 494.84 147.853 494.6 148.52C494.36 149.187 494 149.96 493.52 150.84C493.253 151.373 492.987 151.947 492.72 152.56C492.453 153.147 492.253 153.707 492.12 154.24C491.853 155.2 491.72 156.227 491.72 157.32C491.72 157.987 491.787 158.613 491.92 159.2C492.053 159.76 492.227 160.04 492.44 160.04C492.547 160.04 492.667 159.933 492.8 159.72C492.96 159.48 493.067 159.32 493.12 159.24L495.32 154.72C495.507 154.427 495.653 154.28 495.76 154.28C495.84 154.28 495.88 154.333 495.88 154.44L495.76 154.92C495.36 155.987 494.933 157.307 494.48 158.88C494.053 160.427 493.84 161.693 493.84 162.68C493.84 163.373 493.907 164.067 494.04 164.76C494.173 165.453 494.36 166.307 494.6 167.32C494.84 168.227 494.96 168.787 494.96 169C494.96 169.4 494.84 169.707 494.6 169.92C494.387 170.133 494.12 170.24 493.8 170.24ZM508.32 147.8C506.933 147.8 505.76 147.627 504.8 147.28C503.947 146.987 503.213 146.6 502.6 146.12C501.987 145.613 501.56 145.12 501.32 144.64C501.213 144.427 501.16 144.253 501.16 144.12C501.16 144.013 501.2 143.96 501.28 143.96C501.333 143.96 501.467 144.027 501.68 144.16C501.893 144.293 502.08 144.4 502.24 144.48C503.147 144.853 504.173 145.04 505.32 145.04C506.067 145.04 507.04 144.96 508.24 144.8C509.44 144.64 510.467 144.453 511.32 144.24C511.72 144.107 512.053 144.04 512.32 144.04C512.933 144.04 513.48 144.213 513.96 144.56C514.44 144.88 514.68 145.267 514.68 145.72C514.68 146.44 514 146.973 512.64 147.32C511.28 147.64 509.84 147.8 508.32 147.8ZM509.56 168.52C507.373 168.52 505.493 168.2 503.92 167.56C502.373 166.893 501.267 165.693 500.6 163.96C500.413 163.507 500.32 163.2 500.32 163.04C500.32 162.933 500.373 162.88 500.48 162.88C500.56 162.88 500.667 162.933 500.8 163.04C500.933 163.147 501.04 163.227 501.12 163.28C502.16 164.107 503.36 164.68 504.72 165C505.36 165.16 506.267 165.24 507.44 165.24C508.72 165.24 510.387 165.093 512.44 164.8C513.453 164.693 514 164.64 514.08 164.64C514.8 164.64 515.373 164.827 515.8 165.2C516.227 165.573 516.44 165.987 516.44 166.44C516.44 167.293 515.787 167.853 514.48 168.12C513.2 168.387 511.56 168.52 509.56 168.52ZM531.08 172.72C530.067 172.72 529.133 172.467 528.28 171.96C527.427 171.453 526.747 170.773 526.24 169.92C525.733 169.067 525.48 168.12 525.48 167.08C525.48 166.067 525.733 165.133 526.24 164.28C526.747 163.427 527.427 162.76 528.28 162.28C529.133 161.773 530.067 161.52 531.08 161.52C532.093 161.52 533.027 161.773 533.88 162.28C534.733 162.76 535.4 163.427 535.88 164.28C536.387 165.133 536.64 166.067 536.64 167.08C536.64 168.12 536.387 169.067 535.88 169.92C535.4 170.773 534.733 171.453 533.88 171.96C533.027 172.467 532.093 172.72 531.08 172.72ZM531.08 171.44C532.28 171.44 533.293 171.013 534.12 170.16C534.973 169.307 535.4 168.28 535.4 167.08C535.4 165.907 534.973 164.907 534.12 164.08C533.267 163.227 532.253 162.8 531.08 162.8C529.88 162.8 528.853 163.227 528 164.08C527.147 164.907 526.72 165.907 526.72 167.08C526.72 168.307 527.147 169.333 528 170.16C528.853 171.013 529.88 171.44 531.08 171.44Z" fill="#01255A"/>
</g>
<defs>
<filter id="filter0_d_1_398" x="0.0800018" y="0.919998" width="541.56" height="177.32" filterUnits="userSpaceOnUse" color-interpolation-filters="sRGB">
<feFlood flood-opacity="0" result="BackgroundImageFix"/>
<feColorMatrix in="SourceAlpha" type="matrix" values="0 0 0 0 0 0 0 0 0 0 0 0 0 0 0 0 0 0 127 0" result="hardAlpha"/>
<feOffset/>
<feGaussianBlur stdDeviation="2.5"/>
<feComposite in2="hardAlpha" operator="out"/>
<feColorMatrix type="matrix" values="0 0 0 0 1 0 0 0 0 1 0 0 0 0 1 0 0 0 1 0"/>
<feBlend mode="normal" in2="BackgroundImageFix" result="effect1_dropShadow_1_398"/>
<feBlend mode="normal" in="SourceGraphic" in2="effect1_dropShadow_1_398" result="shape"/>
</filter>
</defs>
</svg>
