<svg width="274" height="100" viewBox="0 0 274 100" fill="none" xmlns="http://www.w3.org/2000/svg">
<path d="M269.982 20.6955C270.151 20.4015 270.479 20.1893 270.966 20.0588C271.129 20.0153 271.219 20.0284 271.238 20.0979C271.262 20.1906 271.236 20.3221 271.157 20.4922C270.261 22.2481 269.054 24.0499 267.537 25.8977C266.168 27.5568 265.329 28.5519 265.02 28.8831C263.732 30.1973 262.66 30.9694 261.802 31.1993C261.153 31.3732 260.663 31.169 260.333 30.5866C260.093 30.154 260.027 29.5381 260.136 28.7387C260.271 27.7583 260.816 26.0841 261.772 23.716C262.28 22.4616 262.931 20.9951 263.723 19.3167C263.863 19.0058 264.27 18.7603 264.942 18.5801C265.22 18.5055 265.398 18.52 265.475 18.6235C265.523 18.71 265.505 18.8267 265.42 18.9737C264.739 20.3242 263.807 22.363 262.624 25.0901C262.318 25.8928 261.957 27.0953 261.541 28.6974C261.457 29.217 261.475 29.5602 261.594 29.727C261.725 29.9402 261.93 30.0095 262.209 29.9349C262.371 29.8914 262.481 29.8372 262.538 29.7722C262.468 29.7908 262.598 29.7187 262.927 29.556C264.997 28.0074 267.348 25.0539 269.982 20.6955ZM267.568 12.2483C267.639 12.3286 267.52 12.6711 267.21 13.276C267.087 13.5575 266.889 13.9335 266.618 14.4038C266.419 14.6808 266.137 14.8806 265.772 15.0032C265.431 15.1196 265.177 15.1006 265.012 14.9462C265.005 14.923 265.001 14.8619 265 14.763C265.128 14.4057 265.36 13.8836 265.698 13.1968C266.09 12.6196 266.559 12.2828 267.104 12.1862C267.342 12.1473 267.497 12.168 267.568 12.2483Z" fill="#01255A"/>
<path d="M260.322 1.14573C260.444 0.765262 260.899 0.469401 261.687 0.258141C261.919 0.196006 262.073 0.216677 262.151 0.320159C262.169 0.389704 262.17 0.439173 262.153 0.468568C261.339 3.27092 259.974 7.4012 258.057 12.8594C257.079 15.6063 255.688 19.7312 253.883 25.2341C256.013 21.4082 258.124 19.2272 260.217 18.6912C260.75 18.5482 261.092 18.6182 261.242 18.9009C261.495 19.3798 261.303 20.2883 260.668 21.6264C259.128 24.8718 256.719 27.704 253.442 30.123L260.174 34.2445C261.921 35.292 263.632 36.2993 265.308 37.2665C265.396 37.3174 265.429 37.3955 265.408 37.5006C265.409 37.5996 265.365 37.7109 265.273 37.8347C265.182 37.9585 265.074 38.0622 264.947 38.1459C264.826 38.2527 264.708 38.3216 264.592 38.3527C264.384 38.4086 264.191 38.3857 264.015 38.2839L252.399 30.9615C252.211 31.5585 251.866 32.4958 251.364 33.7734C251.213 34.1369 250.755 34.4212 249.99 34.6262C249.735 34.6946 249.595 34.6824 249.57 34.5897C249.551 34.5201 249.55 34.4707 249.567 34.4413C250.623 30.7791 252.404 25.2329 254.91 17.8028C256.224 13.8975 257.287 10.6806 258.1 8.15185L260.322 1.14573ZM259.231 20.2971C258.984 20.4876 258.615 20.8723 258.124 21.4511C256.269 23.6132 254.676 26.1522 253.345 29.068C255.719 27.2639 257.563 24.9681 258.879 22.1806C259.21 21.4706 259.404 20.8968 259.461 20.4592C259.529 20.3416 259.522 20.2689 259.44 20.2412C259.364 20.2367 259.294 20.2553 259.231 20.2971Z" fill="#01255A"/>
<path d="M251.217 27.9984C251.388 27.8034 251.729 27.6376 252.239 27.5009C252.609 27.4015 252.854 27.3857 252.971 27.4536C253.089 27.5214 253.013 27.7032 252.745 27.9988C250.389 30.5187 248.597 32.5021 247.37 33.9492C246.166 35.39 245.228 36.2005 244.556 36.3807C243.605 36.6355 243.003 36.2876 242.748 35.3372C242.574 34.6881 242.631 33.7411 242.918 32.4962C240.163 35.8437 238.124 37.6945 236.803 38.0487C235.876 38.2972 235.225 38.0492 234.852 37.3045C234.34 36.3234 234.721 34.4075 235.995 31.5566C238.121 26.7877 241.055 23.5536 244.799 21.8544C245.331 21.6126 245.782 21.4419 246.153 21.3425C247.173 21.0691 247.767 21.2454 247.934 21.8713C248.164 22.729 247.907 23.5309 247.163 24.277C246.968 24.4783 246.744 24.613 246.489 24.6814C246.048 24.7995 245.777 24.7604 245.674 24.5642C245.602 24.3849 245.706 24.1707 245.987 23.9214C246.277 23.5206 246.347 23.1789 246.196 22.8962C246.04 22.5903 245.684 22.5613 245.13 22.8094C244.263 23.1908 243.151 24.0479 241.794 25.3808C240.517 26.6424 239.351 28.135 238.298 29.8585C237.142 31.7585 236.438 33.4878 236.185 35.0464C236.081 35.7701 236.089 36.2648 236.21 36.5305C236.312 36.7267 236.502 36.7876 236.781 36.713C237.569 36.5017 238.828 35.4064 240.559 33.4268C242.306 31.4179 243.742 29.4055 244.866 27.3897C245.07 27.037 245.273 26.6347 245.475 26.1831C245.731 25.8411 246.195 25.58 246.867 25.3998C247.122 25.3314 247.289 25.349 247.366 25.4525C247.397 25.5684 247.379 25.6851 247.311 25.8027C246.259 27.6252 245.513 29.1049 245.072 30.2418C244.442 31.8767 244.382 33.3215 244.892 34.5761C245.689 33.8408 246.837 32.7007 248.336 31.1559L251.217 27.9984Z" fill="#01255A"/>
<path d="M234.274 26.2413C234.526 26.7202 234.464 27.3209 234.086 28.0434C233.25 28.9133 232.535 29.6269 231.939 30.1842C231.778 30.3267 231.559 30.4352 231.281 30.5097C230.817 30.634 230.525 30.6127 230.406 30.4459C230.415 30.2944 230.769 29.8518 231.467 29.1181C231.524 29.0531 231.601 28.9703 231.698 28.8697C231.812 28.7397 231.89 28.6569 231.93 28.6213C232.356 27.9853 232.517 27.5198 232.413 27.2246C232.293 27.0578 232.025 27.0303 231.608 27.1422C231.422 27.1919 231.298 27.2376 231.235 27.2795C229.241 27.8138 227.116 29.899 224.861 33.5349C223.489 35.7412 222.867 37.4982 222.994 38.806C222.976 39.109 222.971 39.3216 222.978 39.4437C222.959 39.6478 223.023 39.8417 223.172 40.0255C223.293 40.2913 223.539 40.3745 223.909 40.275C224.929 40.0016 226.146 38.9303 227.558 37.0609C227.871 36.6539 228.215 36.1766 228.59 35.6288C230.113 33.4316 231.489 32.1683 232.718 31.839C233.274 31.6898 233.655 31.8115 233.859 32.2039C234.057 32.5731 233.97 33.4042 233.596 34.6971C233.519 34.9662 233.308 35.5694 232.963 36.5067L232.861 36.6831L232.133 38.5554C233.044 37.6901 233.592 37.2325 233.777 37.1828C233.986 37.1269 234.109 37.1685 234.146 37.3076C234.171 37.4003 234.164 37.5139 234.126 37.6485C234.097 38.0041 233.942 38.3065 233.661 38.5558L232.517 39.5707C232.276 39.7843 231.863 40.193 231.28 40.7967C228.699 47.576 226.56 52.7585 224.862 56.3442C222.462 61.3857 220.461 64.1207 218.862 64.5495C218.259 64.711 217.826 64.5786 217.563 64.1523C217.281 63.6564 217.251 62.7574 217.474 61.4554C218.68 54.6469 222.813 47.725 229.872 40.6895C230.112 40.1032 230.382 39.3477 230.681 38.4228L231.138 37.0703C231.332 36.4964 231.638 35.6442 232.056 34.5136C232.183 34.1563 232.199 33.8911 232.103 33.7181C232.055 33.6316 231.985 33.6008 231.892 33.6256C231.753 33.6629 231.552 33.841 231.29 34.1598C230.828 34.7556 230.148 35.6461 229.248 36.8315C227.339 39.2565 225.453 40.8428 223.591 41.5903C222.533 41.9982 221.832 41.8878 221.49 41.259C221.346 40.9995 221.259 40.5381 221.231 39.875C221.213 39.5318 221.238 39.1151 221.305 38.6249C221.552 36.6705 222.514 34.5119 224.191 32.149C226.159 29.3854 228.307 27.4803 230.635 26.4338C231.19 26.1857 231.664 26.0089 232.058 25.9033C232.337 25.8287 232.537 25.7875 232.659 25.7796C233.124 25.7543 233.421 25.7492 233.549 25.7645C233.888 25.8228 234.129 25.9818 234.274 26.2413ZM225.055 52.7519C226.029 50.4534 227.297 47.3057 228.86 43.3089C226.666 45.7852 224.809 48.3578 223.288 51.0266C221.546 54.0774 220.378 56.4404 219.784 58.1155C219.456 59.0234 219.235 59.9149 219.122 60.7901C219.028 61.4612 219.053 61.9265 219.197 62.186C219.317 62.3528 219.469 62.4114 219.655 62.3617C220.675 62.0883 222.475 58.885 225.055 52.7519Z" fill="#01255A"/>
<path d="M222.741 33.6185C222.922 33.272 223.197 33.049 223.568 32.9496C223.846 32.875 224.016 32.9042 224.076 33.037C224.166 33.1869 224.118 33.4235 223.931 33.7468C222.862 35.5987 221.627 37.4331 220.225 39.2498C218.214 41.8512 216.571 43.3228 215.296 43.6645C214.809 43.795 214.455 43.6787 214.234 43.3157C213.772 42.5201 213.955 40.7938 214.784 38.1367C214.904 37.6573 215.113 36.9552 215.412 36.0303L212.322 40.7719C211.555 41.8968 211.043 42.6303 210.787 42.9723C209.767 44.2644 208.863 45.0162 208.075 45.2274C207.402 45.4076 206.94 45.2583 206.687 44.7793C206.393 44.2371 206.408 43.2268 206.732 41.7484C206.835 41.2984 207.12 40.4145 207.587 39.0967C208.271 37.1989 208.825 35.7458 209.251 34.7372L209.688 33.7256C209.766 33.5555 209.839 33.3621 209.905 33.1456C209.077 33.7651 208.126 34.3429 207.053 34.8792C206.833 34.9877 206.688 35.0018 206.617 34.9215C206.497 34.7547 206.657 34.3765 207.095 33.7869C207.398 33.4325 208.081 32.8766 209.145 32.1193C210.123 31.41 210.858 30.9522 211.349 30.7459C211.794 30.5521 212.07 30.5154 212.177 30.6359C212.26 30.7626 212.252 30.9635 212.152 31.2389C212.013 31.6487 211.79 32.2056 211.482 32.9094C211.365 33.2141 211.206 33.6417 211.006 34.1924C208.799 39.6788 207.878 42.7333 208.244 43.3558C208.309 43.4129 208.364 43.4353 208.411 43.4229C208.573 43.3794 208.955 43.0411 209.555 42.408C211.236 40.6156 212.703 38.6697 213.954 36.5702L217.682 30.3158C217.868 29.9925 218.263 29.75 218.866 29.5885C219.167 29.5077 219.371 29.5275 219.478 29.648C219.469 29.7995 219.448 29.9541 219.416 30.1118C218.912 31.2905 218.2 33.084 217.28 35.4922C215.999 39.2398 215.499 41.3615 215.781 41.8574C215.806 41.9501 215.876 41.981 215.992 41.9499C216.009 41.9205 216.072 41.8787 216.182 41.8244C218.692 39.7852 220.878 37.0499 222.741 33.6185Z" fill="#01255A"/>
<path d="M204.93 33.8455C204.914 34.6201 204.04 36.3202 202.309 38.946C200.93 41.0301 199.846 42.5505 199.059 43.5069C199.308 43.4153 199.537 43.3416 199.745 43.2857C201.53 42.8073 202.804 43.2485 203.566 44.6096C203.758 44.9556 203.907 45.3257 204.013 45.7198C204.106 46.0675 204.171 46.4477 204.207 46.8605C205.466 45.9019 206.738 45.0392 208.023 44.2723C208.126 44.1948 208.259 44.1344 208.422 44.0909C208.561 44.0536 208.654 44.0782 208.702 44.1647C208.75 44.2512 208.755 44.3618 208.717 44.4963C208.695 44.6015 208.549 44.8892 208.277 45.3595C208.226 45.4477 208.137 45.5336 208.011 45.6173C206.599 46.4678 205.338 47.3275 204.23 48.1962C204.143 50.6544 203.377 53.5432 201.931 56.8628C200.766 59.5604 199.302 62.1642 197.539 64.674C195.095 68.1618 192.934 70.1573 191.056 70.6606C190.338 70.8532 189.858 70.7332 189.618 70.3007C189.534 70.174 189.489 70.0496 189.481 69.9275C189.456 69.8348 189.447 69.6632 189.455 69.4127C189.508 67.7585 190.235 65.4641 191.635 62.5296C194.346 56.8833 197.956 52.1387 202.467 48.2958C202.356 47.2323 202.147 46.4063 201.84 45.8176C201.341 44.883 200.408 44.5989 199.04 44.9655C198.414 45.1333 197.756 45.4588 197.066 45.942C196.468 46.4004 195.882 46.8557 195.307 47.3078C195.164 47.4209 195.045 47.4898 194.953 47.5147C194.628 47.6016 194.489 47.4526 194.535 47.0676C194.587 46.7058 194.765 46.3972 195.069 46.1417C197.112 44.4014 199.202 41.7667 201.337 38.2376C202.594 36.1613 203.123 34.9385 202.925 34.5693C202.775 34.2866 202.315 34.2856 201.545 34.5664C199.966 35.1636 198.429 36.383 196.935 38.2247C196.074 39.2755 195.441 40.2526 195.037 41.1559C194.902 41.3911 194.614 41.6172 194.176 41.8342C193.737 42.0512 193.469 42.0732 193.373 41.9001C193.325 41.8136 193.366 41.6412 193.496 41.3829C194.366 39.8079 195.375 38.382 196.523 37.1051C198.77 34.6395 200.901 33.1364 202.918 32.5958C203.868 32.3411 204.488 32.4733 204.776 32.9923C204.878 33.1885 204.93 33.4729 204.93 33.8455ZM200.091 58.064C201.386 55.4806 202.156 52.9759 202.401 50.5499C202.416 50.4216 202.426 50.1333 202.43 49.6849C198.943 52.8061 196.101 56.5247 193.903 60.8408C192.619 63.3716 191.797 65.4056 191.439 66.9428C191.239 67.866 191.2 68.4605 191.321 68.7262C191.44 68.8931 191.627 68.9423 191.882 68.8739C192.948 68.5881 194.7 66.6403 197.136 63.0304C198.329 61.2695 199.314 59.6141 200.091 58.064Z" fill="#01255A"/>
<path d="M196.328 40.4372C196.497 40.1432 196.825 39.931 197.312 39.8005C197.475 39.757 197.565 39.7701 197.584 39.8396C197.608 39.9323 197.582 40.0638 197.503 40.2339C196.607 41.9898 195.4 43.7916 193.883 45.6394C192.514 47.2985 191.675 48.2936 191.366 48.6248C190.078 49.939 189.006 50.7111 188.148 50.941C187.499 51.1149 187.009 50.9107 186.679 50.3283C186.439 49.8957 186.373 49.2798 186.482 48.4804C186.617 47.5 187.162 45.8258 188.118 43.4577C188.626 42.2033 189.277 40.7368 190.069 39.0584C190.209 38.7475 190.616 38.502 191.288 38.3218C191.566 38.2472 191.744 38.2617 191.821 38.3652C191.869 38.4517 191.851 38.5684 191.766 38.7154C191.085 40.0659 190.153 42.1047 188.97 44.8318C188.664 45.6345 188.303 46.837 187.887 48.4391C187.803 48.9587 187.821 49.3019 187.94 49.4687C188.071 49.6819 188.276 49.7512 188.555 49.6766C188.717 49.6331 188.827 49.5789 188.884 49.5139C188.814 49.5325 188.944 49.4604 189.273 49.2977C191.343 47.7491 193.694 44.7956 196.328 40.4372ZM193.914 31.99C193.985 32.0703 193.866 32.4128 193.556 33.0177C193.433 33.2992 193.235 33.6752 192.964 34.1455C192.765 34.4225 192.483 34.6223 192.118 34.7449C191.777 34.8613 191.523 34.8423 191.358 34.6879C191.351 34.6647 191.347 34.6036 191.346 34.5047C191.474 34.1474 191.706 33.6253 192.044 32.9385C192.436 32.3613 192.905 32.0245 193.45 31.9279C193.688 31.889 193.843 31.9097 193.914 31.99Z" fill="#01255A"/>
<path d="M179.572 30.0947C177.518 33.6515 174.678 38.5374 171.052 44.7522C169.724 47.1208 168.396 49.4894 167.068 51.858C164.877 55.551 163.283 57.5311 162.287 57.7983C162.008 57.8729 161.762 57.7897 161.549 57.5488C161.256 57.1055 161.057 56.6868 160.951 56.2927C160.715 55.4118 160.743 54.311 161.035 52.9904C161.235 52.0672 161.729 50.6674 162.519 48.7912L167.54 36.9348C169.939 31.4219 170.916 28.3024 170.473 27.5764C170.419 27.4667 170.334 27.4273 170.218 27.4584C170.102 27.4895 169.962 27.6141 169.797 27.8323C168.691 29.2715 167.375 31.3139 165.848 33.9594L159.756 44.4628C158.178 47.1966 156.516 50.1268 154.77 53.2535L151.269 59.5215C150.715 60.5147 150.059 61.1254 149.3 61.3536C148.999 61.4344 148.731 61.4564 148.498 61.4196C148.119 61.3969 147.899 61.2696 147.837 61.0378C147.643 60.5928 147.612 59.8307 147.746 58.7514C147.896 57.6428 148.271 56.0762 148.871 54.0518C149.659 51.4303 150.804 47.4959 152.304 42.2485C152.695 40.9262 153.191 38.9297 153.793 36.259C154.031 34.555 153.989 33.1003 153.666 31.8949C153.511 31.3153 153.295 30.7892 153.02 30.3165C151.916 28.4256 150.047 27.3366 147.411 27.0493C145.416 26.8385 143.144 27.0748 140.594 27.7583C139.411 28.0752 138.147 28.5012 136.799 29.0363C130.606 31.5162 126.442 34.8933 124.308 39.1676C123.244 41.3163 123.01 42.9445 123.605 44.0522C124.158 45.0966 124.991 45.4697 126.104 45.1714C126.22 45.1403 126.399 45.0674 126.642 44.9527C126.884 44.838 127.063 44.7651 127.179 44.7341C127.481 44.6533 127.665 44.6909 127.731 44.847C127.917 45.1699 127.717 45.5342 127.13 45.94C126.67 46.2621 126.231 46.4791 125.813 46.591C125.025 46.8022 124.211 46.8218 123.369 46.6498C122.417 46.433 121.766 45.9986 121.417 45.3467C120.737 44.0134 121.116 41.9985 122.555 39.302C124.147 36.341 126.742 33.6453 130.339 31.2151C133.706 28.9459 137.326 27.2925 141.197 26.2549C149.357 24.0677 154.13 25.5589 155.515 30.7284C155.925 32.2584 155.987 34.0184 155.701 36.0085C155.538 37.0707 155.315 38.137 155.03 39.2072L152.036 50.1472C151.829 50.9483 151.412 52.3147 150.787 54.2464C150.377 55.4992 150.043 56.8933 149.784 58.4288C149.728 58.5928 149.698 58.7126 149.694 58.7884C149.712 58.8579 149.711 58.9453 149.689 59.0504C149.695 59.0736 149.713 59.0937 149.743 59.1106L156.875 46.0921C159.598 41.1384 162.081 36.8699 164.326 33.2866C167.116 28.8615 169.194 26.4657 170.562 26.0991C171.257 25.9127 171.767 26.0991 172.091 26.6583C172.427 27.2639 172.395 28.4404 171.993 30.1879C171.889 30.539 171.726 31.0919 171.506 31.8466L166.843 42.6751C164.731 47.5894 163.544 50.7154 163.281 52.053C163.094 53.0225 163.083 54.0939 163.248 55.2671L173.038 38.2566C175.498 33.9942 177.111 31.2512 177.876 30.0273C179.169 27.9912 180.245 26.8581 181.102 26.6282C181.589 26.4977 181.973 26.6805 182.255 27.1764C182.489 27.5857 182.56 28.126 182.466 28.797C182.427 29.2052 182.304 29.673 182.097 30.2005C181.835 30.8919 181.501 31.7766 181.094 32.8547C178.434 40.8229 177.508 46.3139 178.316 49.3275C178.776 51.043 179.678 51.7205 181.023 51.3601C182.808 50.8817 185.041 48.1834 187.723 43.2653C187.904 42.9188 188.388 42.6399 189.176 42.4286C189.478 42.3478 189.679 42.3561 189.779 42.4534C189.792 42.4997 189.765 42.6312 189.699 42.8477C188.695 44.7567 187.42 46.6761 185.875 48.6059C183.909 51.0959 182.149 52.5491 180.596 52.9654C178.834 53.4376 177.497 52.9013 176.586 51.3565C176.4 51.0336 176.242 50.6288 176.112 50.142C175.571 48.1252 175.762 45.2664 176.683 41.5657C176.994 40.3146 177.334 39.0805 177.703 37.8633C178.193 36.1668 178.986 33.6559 180.082 30.3306C180.199 30.0259 180.253 29.5767 180.243 28.9831L179.572 30.0947Z" fill="#01255A"/>
<path d="M133.341 56.4255C134.066 55.6099 134.661 55.1399 135.124 55.0156C135.217 54.9908 135.293 54.9953 135.352 55.0292C135.37 55.0988 135.329 55.2217 135.227 55.3981C134.445 56.6514 133.493 57.8754 132.372 59.0704C131.692 59.7747 130.984 60.4241 130.248 61.0187C129.507 61.5901 128.838 61.9682 128.242 62.1529C127.987 62.5938 127.584 63.1741 127.031 63.8937C125.037 66.8382 123.021 68.5839 120.981 69.1307C119.729 69.4662 118.827 69.1613 118.276 68.2158C118.035 67.7833 117.936 67.2261 117.977 66.5442C118.109 64.7198 119.08 62.4097 120.89 59.6138C122.966 56.4233 124.561 54.679 125.674 54.3807C126.045 54.2813 126.29 54.315 126.409 54.4818C126.553 54.7413 126.375 55.05 125.875 55.4078C124.546 56.385 123.206 58.0115 121.853 60.2874C120.754 62.1223 120.11 63.4256 119.919 64.1973L119.739 64.9164C119.722 64.9458 119.694 65.1646 119.654 65.5728C119.526 66.5763 119.551 67.2279 119.731 67.5276C119.952 67.8906 120.307 68.0069 120.793 67.8764C121.582 67.6651 122.546 66.9968 123.685 65.8714C124.727 64.8466 125.471 63.9142 125.917 63.0742C124.65 63.5381 123.8 63.3807 123.368 62.6021C123.086 62.1062 122.997 61.4964 123.101 60.7728C123.219 59.8218 123.73 58.7158 124.634 57.4547C126.136 55.3626 127.559 54.1364 128.903 53.776C129.738 53.5523 130.278 53.6683 130.525 54.1241C131.097 55.238 130.702 57.1949 129.34 59.9949C129.855 59.7824 130.674 59.1777 131.799 58.1806L133.341 56.4255ZM125.207 60.8419C125.244 60.981 125.301 61.1023 125.379 61.2058C125.655 61.6785 126.163 61.766 126.903 61.4682C127.421 60.4348 127.799 59.5756 128.038 58.8904L128.662 57.046C128.714 56.6842 128.733 56.4306 128.719 56.2853C128.726 56.0349 128.685 55.8347 128.595 55.6849C128.487 55.4655 128.316 55.3869 128.085 55.449C127.32 55.654 126.528 56.6862 125.709 58.5455C125.261 59.5603 125.093 60.3257 125.207 60.8419Z" fill="#01255A"/>
<path d="M121.861 59.3903C122.101 59.0777 122.359 58.8842 122.637 58.8096C122.846 58.7537 122.974 58.769 123.023 58.8555C123.054 58.9714 122.964 59.1941 122.754 59.5237C121.335 61.6435 120.159 63.375 119.227 64.7181L117.53 67.1482C115.832 69.3425 114.234 70.7027 112.735 71.2287C111.78 71.5592 111.144 71.4565 110.826 70.9204C110.461 70.2979 110.532 69.1731 111.04 67.5461C111.189 67.0836 111.634 66.0078 112.374 64.3187C112.654 63.6968 113.078 62.7757 113.646 61.5552C112.868 62.3601 111.911 62.9147 110.775 63.2192C110.218 63.3683 109.731 63.4493 109.312 63.4622C107.845 66.2407 105.574 70.1913 102.5 75.3139C102.313 75.6373 102.046 75.8455 101.698 75.9387C101.49 75.9947 101.332 75.9624 101.225 75.842C101.165 75.7091 101.219 75.4957 101.389 75.2017C104.353 70.4069 106.688 66.3272 108.395 62.9625C108.13 62.4372 108.166 61.6449 108.503 60.5854C109.392 57.6887 110.45 55.8894 111.678 55.1875C111.828 55.0976 111.926 55.0465 111.972 55.034C112.181 54.9781 112.348 55.0452 112.474 55.2352C112.647 55.5117 112.614 56.1293 112.374 57.0881C112.016 57.9791 111.286 59.5662 110.184 61.8495C110.597 61.8134 110.965 61.7518 111.29 61.6648C112.124 61.4412 112.753 61.0987 113.176 60.6374C113.451 60.365 113.86 59.9447 114.404 59.3767C114.964 58.7792 115.395 58.4401 115.696 58.3593C115.882 58.3096 116.016 58.3481 116.1 58.4748C116.232 58.6879 116.109 59.1557 115.731 59.8782L114.97 61.3494C113.844 63.6389 113.049 65.5414 112.586 67.0571C112.178 68.4088 112.055 69.2492 112.218 69.5783C112.369 69.861 112.713 69.893 113.25 69.6744C113.967 69.3828 114.774 68.7317 115.671 67.721C115.859 67.4966 116.474 66.6857 117.516 65.2884L121.861 59.3903Z" fill="#01255A"/>
<path d="M106.097 64.8831C106.277 64.5366 106.553 64.3136 106.924 64.2142C107.202 64.1397 107.371 64.1688 107.432 64.3017C107.522 64.4515 107.473 64.6881 107.287 65.0115C106.218 66.8634 104.982 68.6977 103.581 70.5145C101.57 73.1159 99.9269 74.5874 98.6519 74.9291C98.1651 75.0596 97.8109 74.9434 97.5893 74.5803C97.1276 73.7848 97.3109 72.0584 98.1393 69.4014C98.2592 68.922 98.4686 68.2198 98.7673 67.295L95.6776 72.0366C94.9107 73.1615 94.3991 73.8949 94.1429 74.2369C93.1227 75.5291 92.2185 76.2808 91.4303 76.4921C90.758 76.6723 90.2956 76.5229 90.043 76.044C89.7485 75.5017 89.7635 74.4914 90.0878 73.013C90.1908 72.563 90.4757 71.6791 90.9424 70.3614C91.6264 68.4636 92.1811 67.0104 92.6065 66.0019L93.0435 64.9903C93.1221 64.8201 93.1945 64.6268 93.2607 64.4103C92.4329 65.0297 91.4821 65.6076 90.4083 66.1438C90.1889 66.2523 90.0436 66.2664 89.9724 66.1861C89.8531 66.0193 90.0127 65.6411 90.451 65.0516C90.7535 64.6971 91.4369 64.1413 92.5011 63.3839C93.4788 62.6746 94.2134 62.2168 94.7047 62.0106C95.1497 61.8168 95.4256 61.7801 95.5324 61.9005C95.6161 62.0272 95.6078 62.2282 95.5077 62.5035C95.3691 62.9134 95.1456 63.4702 94.8373 64.174C94.7202 64.4787 94.5615 64.9064 94.3613 65.457C92.1544 70.9434 91.2339 73.9979 91.5995 74.6205C91.6645 74.6776 91.7202 74.6999 91.7666 74.6875C91.9288 74.644 92.3102 74.3057 92.9108 73.6726C94.5921 71.8803 96.0583 69.9343 97.3094 67.8348L101.037 61.5804C101.224 61.2571 101.619 61.0147 102.221 60.8531C102.523 60.7723 102.727 60.7922 102.834 60.9126C102.825 61.0641 102.804 61.2188 102.772 61.3765C102.268 62.5552 101.556 64.3486 100.636 66.7569C99.3543 70.5044 98.8545 72.6262 99.1365 73.1221C99.1614 73.2148 99.2318 73.2456 99.3477 73.2145C99.3647 73.1851 99.428 73.1433 99.5377 73.0891C102.047 71.0498 104.234 68.3145 106.097 64.8831Z" fill="#01255A"/>
<path d="M86.912 57.167C86.0624 58.9105 84.5058 62.0485 82.242 66.5811C79.6282 71.7542 78.092 74.5512 77.6334 74.9723C77.2959 77.0506 77.2577 78.5765 77.5187 79.5501C77.7423 80.3847 78.1208 80.7305 78.654 80.5876C78.8858 80.5254 79.1391 80.3581 79.4139 80.0857C80.8854 78.6229 81.9486 77.1204 82.6037 75.5782C81.897 75.4446 81.3818 75.0982 81.058 74.5389C80.4103 73.4205 80.5121 72.039 81.3634 70.3946C82.2316 68.7207 83.3033 67.7129 84.5783 67.3712C85.5287 67.1164 86.1189 67.4179 86.3488 68.2756C86.6967 69.5738 86.2717 71.4643 85.0736 73.9471C85.3224 73.8556 85.6778 73.6982 86.1398 73.475C88.3953 72.2493 90.0725 70.9052 91.1714 69.4429C91.4462 69.1704 91.8418 68.9774 92.358 68.8639C92.5666 68.808 92.6918 68.8117 92.7337 68.875C92.8111 68.9785 92.7525 69.1309 92.558 69.3321C92.0626 69.9867 91.0079 70.9651 89.3941 72.2673C87.4126 73.8668 85.701 74.8971 84.2592 75.3581C83.8734 75.9584 83.2855 76.8242 82.4954 77.9553C80.909 80.1943 79.374 81.5127 77.8904 81.9104C77.1022 82.1216 76.5013 81.8727 76.0876 81.1636C75.7513 80.558 75.593 79.4575 75.6126 77.862C75.6471 75.7656 76.0898 73.1995 76.9408 70.1637C78.1382 65.9169 79.7503 61.4099 81.7771 56.6426C84.7504 49.6587 87.2455 45.8964 89.2623 45.3559C89.8418 45.2005 90.2548 45.3507 90.5012 45.8065C90.6933 46.1525 90.7557 46.5706 90.6883 47.0608C90.3695 49.2086 89.1107 52.5773 86.912 57.167ZM85.1609 53.2757C82.5243 58.8276 80.617 63.948 79.4387 68.6369L78.9888 70.4347C79.012 70.4285 79.0383 70.4339 79.0677 70.4508C79.0909 70.4446 79.1056 70.4531 79.1118 70.4763C79.135 70.4701 79.1728 70.4723 79.2254 70.4831C81.0931 66.976 82.9552 63.3089 84.8117 59.4817C85.9311 57.1691 87.3606 53.7421 89.1002 49.2009C89.4238 48.3688 89.5551 47.7 89.4942 47.1945C89.4722 46.9271 89.3569 46.8213 89.1483 46.8773C89.0092 46.9145 88.8115 47.1042 88.5553 47.4462C87.4565 48.9085 86.325 50.8517 85.1609 53.2757ZM83.4096 71.076C83.3116 71.8229 83.4005 72.4327 83.6763 72.9054C83.856 73.2051 84.0781 73.4313 84.3427 73.584C85.3677 71.1972 85.6579 69.5914 85.2131 68.7664C85.1108 68.5702 84.9438 68.5031 84.712 68.5653C84.3874 68.6523 84.0818 68.9951 83.795 69.5937C83.5314 70.1862 83.4029 70.6803 83.4096 71.076Z" fill="#01255A"/>
<path d="M76.9032 71.553C77.6288 70.7373 78.2234 70.2673 78.687 70.1431C78.7797 70.1182 78.8555 70.1227 78.9143 70.1567C78.9329 70.2262 78.8913 70.3492 78.7895 70.5256C78.0073 71.7788 77.0558 73.0029 75.9349 74.1978C75.254 74.9021 74.546 75.5515 73.8109 76.1461C73.0696 76.7176 72.4007 77.0956 71.8041 77.2804C71.5496 77.7213 71.1461 78.3015 70.5936 79.0211C68.5999 81.9657 66.5831 83.7113 64.5431 84.2581C63.2913 84.5937 62.3896 84.2887 61.838 83.3433C61.5978 82.9107 61.4982 82.3535 61.5391 81.6717C61.6712 79.8473 62.6422 77.5371 64.4521 74.7412C66.5289 71.5508 68.1237 69.8064 69.2364 69.5082C69.6073 69.4087 69.8524 69.4424 69.9716 69.6092C70.1157 69.8688 69.9376 70.1774 69.4371 70.5352C68.1088 71.5124 66.7682 73.1389 65.4153 75.4148C64.3169 77.2497 63.6724 78.553 63.4817 79.3247L63.3017 80.0438C63.2847 80.0732 63.2564 80.292 63.2167 80.7002C63.0882 81.7037 63.1137 82.3553 63.2935 82.655C63.515 83.018 63.8692 83.1343 64.356 83.0038C65.1442 82.7926 66.108 82.1242 67.2475 80.9988C68.2897 79.9741 69.0337 79.0417 69.4794 78.2016C68.2123 78.6655 67.3626 78.5081 66.9303 77.7295C66.6483 77.2336 66.5594 76.6238 66.6636 75.9002C66.7814 74.9493 67.2925 73.8432 68.1968 72.5821C69.6984 70.49 71.1214 69.2638 72.4659 68.9034C73.3005 68.6797 73.8409 68.7958 74.0873 69.2515C74.6592 70.3654 74.2644 72.3224 72.9029 75.1223C73.4174 74.9099 74.2368 74.3051 75.361 73.3081L76.9032 71.553ZM68.7693 75.9694C68.8065 76.1085 68.8639 76.2298 68.9413 76.3332C69.2171 76.806 69.7251 76.8934 70.4652 76.5957C70.9834 75.5623 71.3618 74.703 71.6005 74.0178L72.2243 72.1735C72.2764 71.8116 72.2954 71.5581 72.2813 71.4128C72.2887 71.1623 72.2475 70.9622 72.1576 70.8123C72.0491 70.5929 71.879 70.5143 71.6472 70.5764C70.8822 70.7815 70.0904 71.8137 69.2719 73.673C68.8233 74.6877 68.6557 75.4532 68.7693 75.9694Z" fill="#01255A"/>
<path d="M53.6115 68.478C52.1823 72.7869 51.3726 75.5135 51.1824 76.6578C51.0058 77.5748 50.8427 78.7739 50.6931 80.2551C50.5922 81.1767 50.666 82.1011 50.9146 83.0283C51.0326 83.4688 51.1846 83.8504 51.3706 84.1733C52.1685 85.5745 53.2166 86.1011 54.5148 85.7532C56.462 85.2312 58.4846 83.1361 60.5824 79.468C60.803 79.0858 61.2842 78.7953 62.026 78.5965C62.3738 78.5033 62.601 78.5169 62.7079 78.6374C62.7451 78.7765 62.7214 78.9195 62.6365 79.0665C59.9878 83.5532 57.0871 86.2191 53.9344 87.0641L53.378 87.2132C53.1926 87.2629 53.062 87.2855 52.9862 87.281C51.337 87.5243 50.1521 86.9971 49.4315 85.6994C49.3835 85.6128 49.3083 85.4715 49.2061 85.2753C49.0942 84.858 49.0383 84.6494 49.0383 84.6494C48.5362 82.498 48.4261 80.4652 48.7082 78.5509C48.8661 77.5644 49.0552 76.6937 49.2753 75.939C50.2021 72.9077 51.0675 70.2035 51.8714 67.8263C51.9993 67.469 52.1733 66.913 52.3934 66.1583L52.4511 65.9565C52.5003 65.7693 52.575 65.5381 52.6752 65.2628C52.8303 64.451 52.9863 63.1792 53.1434 61.4475C53.1185 61.3548 53.1177 61.3053 53.1408 61.2991L53.1129 61.1948C53.0541 61.1608 53.0131 61.147 52.9899 61.1532C52.8045 61.2029 52.4094 61.7685 51.8048 62.8499L36.2413 91.1356C35.9251 91.7173 35.4806 92.2837 34.9077 92.8348C34.2483 93.434 33.6405 93.8081 33.0841 93.9572C32.2959 94.1685 31.7639 94.0377 31.4882 93.565C31.3084 93.2653 31.2945 92.6106 31.4462 91.6009C31.722 89.6635 32.5623 86.6802 33.9671 82.6511C34.9329 79.8579 35.5651 77.9988 35.8638 77.0739C36.5089 74.9381 36.9393 73.0213 37.1551 71.3235C37.5119 68.6686 37.448 66.4371 36.9634 64.6289C36.7521 63.8408 36.4574 63.1122 36.0794 62.4433C34.6507 59.8942 32.2103 58.6227 28.7581 58.6287C27.2678 58.6306 25.7577 58.8366 24.2277 59.2467C21.3995 60.0047 18.444 61.4926 15.361 63.7104C11.1104 66.763 8.43683 69.9519 7.34035 73.2771C7.12478 73.9561 6.96943 74.5816 6.87431 75.1538C6.70558 76.1929 6.81647 77.0701 7.20697 77.7854C7.85008 78.9796 8.8727 79.5503 10.2748 79.4975C10.7927 79.4829 11.3019 79.2967 11.8023 78.939C11.9397 78.8027 12.1707 78.6911 12.4953 78.6041C12.8198 78.5172 13.0448 78.5687 13.1703 78.7587C13.2742 79.0538 13.0907 79.3887 12.6196 79.7635C11.7115 80.4541 10.7265 80.9045 9.66469 81.1146C8.71878 81.2936 7.85293 81.2151 7.06715 80.879C6.25197 80.526 5.59882 79.9433 5.10771 79.1307C4.97603 78.9175 4.85116 78.5907 4.7331 78.1503C4.21738 76.2262 4.89133 73.7348 6.75496 70.676C8.70343 67.4702 11.4563 64.67 15.0137 62.2754C18.3872 60.0294 21.9989 58.4402 25.8487 57.5077C28.3478 56.9124 30.652 56.8414 32.7613 57.2948C35.2912 57.8342 37.1829 59.1907 38.4364 61.3643C38.6285 61.7103 38.7735 62.0193 38.8712 62.2913C38.9859 62.5339 39.1023 62.8754 39.2204 63.3158C39.7236 65.1936 39.6936 67.7236 39.1303 70.9059C38.8756 72.3657 38.2701 74.6027 37.3139 77.617L36.1036 81.4449C35.8819 82.1006 35.5916 83.0108 35.2329 84.1754C34.5171 86.6035 33.9727 88.8366 33.5996 90.8747C33.6245 90.9674 33.6284 91.0284 33.6114 91.0578L33.658 91.2317C33.7061 91.3182 33.7765 91.349 33.8692 91.3242C34.3328 91.1999 35.0296 90.2305 35.9595 88.4159L37.3544 85.6939C38.127 84.2196 40.1545 80.5206 43.4367 74.5969L49.4453 63.7805L50.6831 61.5851C51.3618 60.4093 52.1764 59.6941 53.1269 59.4393C54.0078 59.2032 54.6342 59.408 55.006 60.0537C55.3423 60.6593 55.43 61.5427 55.2691 62.704C55.1219 63.6379 54.8574 64.6903 54.4754 65.8611L53.6115 68.478Z" fill="#01255A"/>
</svg>
