<svg width="130" height="100" viewBox="0 0 130 100" fill="none" xmlns="http://www.w3.org/2000/svg">
<g clip-path="url(#clip0_29_226)">
<path d="M62.0211 68.83C67.7231 68.83 66.6365 80 74.0728 80C81.5092 80 82.1694 65.2391 84.5971 58.9038C87.0249 52.5685 91.5057 45.4509 94.1073 37.9835C99.3394 22.966 93.0414 10.1215 86.1411 5.10051C76.128 -2.18475 68.9069 4.04083 62.0211 4.04083C55.1353 4.04083 47.9121 -2.18475 37.899 5.10051C31.0008 10.1215 24.7028 22.966 29.9349 37.9835C32.5365 45.4509 37.0153 52.5685 39.4451 58.9038C41.8749 65.2391 42.5165 80 49.9694 80C57.4223 80 56.3191 68.83 62.0211 68.83Z" fill="#FFFEF3" stroke="#596562" stroke-width="2" stroke-linecap="round" stroke-linejoin="round"/>
<path d="M71.4273 50.989C71.4273 45.7528 66.7776 40.4396 62.1965 40.4396C66.7776 40.4396 71.4273 35.1243 71.4273 29.8901C71.4273 35.1264 76.077 40.4396 80.6581 40.4396C76.077 40.4396 71.4273 45.7549 71.4273 50.989Z" fill="#FFF683" stroke="#596562" stroke-width="2" stroke-linecap="round" stroke-linejoin="round"/>
<path d="M88.1306 30.7692C88.1306 23.1355 81.2653 15.3846 74.5042 15.3846C81.2674 15.3846 88.1306 7.63373 88.1306 0C88.1306 7.63373 94.9958 15.3846 101.757 15.3846C94.9938 15.3846 88.1306 23.1355 88.1306 30.7692Z" fill="#FFF683" stroke="#596562" stroke-width="2" stroke-linecap="round" stroke-linejoin="round"/>
</g>
<defs>
<clipPath id="clip0_29_226">
<rect width="130" height="100" fill="white"/>
</clipPath>
</defs>
</svg>
