<svg width="130" height="100" viewBox="0 0 130 100" fill="none" xmlns="http://www.w3.org/2000/svg">
<g clip-path="url(#clip0_29_239)">
<path d="M45.3201 100C43.3252 100 41.7081 98.3667 41.7081 96.3518V37.7117H48.93V96.3518C48.93 98.3667 47.3129 100 45.318 100H45.3201Z" fill="#D3D3D3" stroke="#596562" stroke-width="2" stroke-linecap="round" stroke-linejoin="round"/>
<path d="M45.3191 37.7118V23.8741C45.3191 23.8741 39 19.1378 39 14.2791C39 9.42051 45.3191 4.31079 45.3191 4.31079" stroke="#596562" stroke-width="2" stroke-linecap="round" stroke-linejoin="round"/>
<path d="M87.7485 100C85.7536 100 84.1365 98.3667 84.1365 96.3518V37.7117H91.3583V96.3518C91.3583 98.3667 89.7412 100 87.7463 100H87.7485Z" fill="#D3D3D3" stroke="#596562" stroke-width="2" stroke-linecap="round" stroke-linejoin="round"/>
<path d="M87.7473 37.7118V13.3381" stroke="#596562" stroke-width="2" stroke-linecap="round" stroke-linejoin="round"/>
<path d="M84.3404 20.5024C88.0417 18.6222 89.0979 13.2705 86.6994 8.54901C84.301 3.82753 79.3561 1.52424 75.6548 3.40446C71.9535 5.28468 70.8973 10.6364 73.2958 15.3579C75.6942 20.0794 80.6391 22.3826 84.3404 20.5024Z" fill="#D3D3D3" stroke="#596562" stroke-width="2" stroke-linecap="round" stroke-linejoin="round"/>
</g>
<defs>
<clipPath id="clip0_29_239">
<rect width="130" height="100" fill="white"/>
</clipPath>
</defs>
</svg>
