<svg width="130" height="100" viewBox="0 0 130 100" fill="none" xmlns="http://www.w3.org/2000/svg">
<g clip-path="url(#clip0_1_368)">
<path d="M57.7893 68.6056C63.62 68.6056 62.5089 79.9979 70.1131 79.9979C77.7174 79.9979 78.3925 64.9432 80.8751 58.4819C83.3576 52.0205 87.9397 44.7612 90.6 37.1453C95.9503 21.8288 89.51 8.72881 82.4539 3.60785C72.2147 -3.82238 64.8306 2.52709 57.7893 2.52709C50.748 2.52709 43.3617 -3.82027 33.1225 3.60997C26.0686 8.73092 19.6283 21.8309 24.9786 37.1474C27.6389 44.7634 32.2188 52.0226 34.7035 58.484C37.1882 64.9453 37.8443 80 45.4654 80C53.0866 80 51.9586 68.6077 57.7893 68.6077V68.6056Z" fill="#FFFEF3" stroke="#596562" stroke-width="2" stroke-linecap="round" stroke-linejoin="round"/>
<path d="M89.1168 56.5635C95.6685 50.0289 95.6685 39.4343 89.1167 32.8997C82.565 26.3651 71.9425 26.3651 65.3908 32.8997C58.8391 39.4343 58.8391 50.0289 65.3908 56.5635C71.9425 63.098 82.565 63.098 89.1168 56.5635Z" fill="white" stroke="#596562" stroke-width="2" stroke-linecap="round" stroke-linejoin="round"/>
<path d="M89.1185 56.5652L106.871 74.2712" stroke="#596562" stroke-width="2" stroke-linecap="round" stroke-linejoin="round"/>
</g>
<defs>
<clipPath id="clip0_1_368">
<rect width="130" height="100" fill="white"/>
</clipPath>
</defs>
</svg>
