<svg width="256" height="253" viewBox="0 0 256 253" fill="none" xmlns="http://www.w3.org/2000/svg">
<g clip-path="url(#clip0_140_2468)">
<mask id="mask0_140_2468" style="mask-type:luminance" maskUnits="userSpaceOnUse" x="0" y="0" width="256" height="253">
<path d="M256 0.5H0V252.5H256V0.5Z" fill="white"/>
</mask>
<g mask="url(#mask0_140_2468)">
<path d="M198.45 252.5C179.55 252.5 165.2 247.25 155.4 236.75C145.833 226.25 141.05 211.2 141.05 191.6V171.65H177.45V193.35C177.45 209.45 184.1 217.5 197.4 217.5C203.933 217.5 208.833 215.517 212.1 211.55C215.6 207.35 217.35 200.117 217.35 189.85V169.9C217.35 158.7 215.367 150.767 211.4 146.1C207.433 141.2 201.017 138.75 192.15 138.75H179.2V103.75H193.2C200.9 103.75 206.617 101.767 210.35 97.8C214.317 93.8333 216.3 87.1833 216.3 77.85V60C216.3 51.6 214.55 45.4167 211.05 41.45C207.55 37.4833 202.883 35.5 197.05 35.5C184.683 35.5 178.5 43.0833 178.5 58.25V74.35H142.1V61.4C142.1 41.8 146.883 26.75 156.45 16.25C166.25 5.75 180.25 0.5 198.45 0.5C216.883 0.5 230.883 5.75 240.45 16.25C250.017 26.5167 254.8 41.45 254.8 61.05V69.8C254.8 83.1 252.583 93.8333 248.15 102C243.717 109.933 236.833 115.65 227.5 119.15V119.85C237.533 123.583 244.767 129.65 249.2 138.05C253.633 146.45 255.85 157.183 255.85 170.25V191.95C255.85 211.55 250.95 226.6 241.15 237.1C231.583 247.367 217.35 252.5 198.45 252.5Z" fill="#01255A" fill-opacity="0.2"/>
<path d="M59.3631 252.5C40.4631 252.5 25.9965 247.133 15.9631 236.4C5.92976 225.667 0.913086 210.5 0.913086 190.9V62.1C0.913086 42.5 5.92976 27.3333 15.9631 16.6C25.9965 5.86667 40.4631 0.5 59.3631 0.5C78.2631 0.5 92.7298 5.86667 102.763 16.6C112.797 27.3333 117.813 42.5 117.813 62.1V190.9C117.813 210.5 112.797 225.667 102.763 236.4C92.7298 247.133 78.2631 252.5 59.3631 252.5ZM59.3631 217.5C72.6631 217.5 79.3131 209.45 79.3131 193.35V59.65C79.3131 43.55 72.6631 35.5 59.3631 35.5C46.0631 35.5 39.4131 43.55 39.4131 59.65V193.35C39.4131 209.45 46.0631 217.5 59.3631 217.5Z" fill="#01255A" fill-opacity="0.2"/>
</g>
</g>
<defs>
<clipPath id="clip0_140_2468">
<rect width="256" height="253" fill="white"/>
</clipPath>
</defs>
</svg>
