<svg width="258" height="254" viewBox="0 0 258 254" fill="none" xmlns="http://www.w3.org/2000/svg">
<path d="M59.3631 253C40.4631 253 25.9964 247.633 15.9631 236.9C5.92976 226.167 0.913086 211 0.913086 191.4V62.6C0.913086 43 5.92976 27.8333 15.9631 17.1C25.9964 6.36666 40.4631 1 59.3631 1C78.2631 1 92.7298 6.36666 102.763 17.1C112.797 27.8333 117.813 43 117.813 62.6V191.4C117.813 211 112.797 226.167 102.763 236.9C92.7298 247.633 78.2631 253 59.3631 253ZM59.3631 218C72.6631 218 79.3131 209.95 79.3131 193.85V60.15C79.3131 44.05 72.6631 36 59.3631 36C46.0631 36 39.4131 44.05 39.4131 60.15V193.85C39.4131 209.95 46.0631 218 59.3631 218ZM200.2 253C181.533 253 167.3 247.75 157.5 237.25C147.7 226.517 142.8 211.233 142.8 191.4V172.15H179.2V194.2C179.2 210.067 185.85 218 199.15 218C212.45 218 219.1 210.067 219.1 194.2V139.25C219.1 123.15 212.45 115.1 199.15 115.1C185.85 115.1 179.2 123.15 179.2 139.25V141.35H142.8L149.8 4.49999H251.3V39.5H184.1L180.95 97.95H181.65C188.883 86.05 199.967 80.1 214.9 80.1C228.9 80.1 239.517 84.8833 246.75 94.45C253.983 104.017 257.6 117.9 257.6 136.1V191.4C257.6 211.233 252.7 226.517 242.9 237.25C233.1 247.75 218.867 253 200.2 253Z" fill="#01255A" fill-opacity="0.2"/>
</svg>
